/* XPM */
static char * blue_xpm[] = {
"22 22 180 2",
"  	c None",
". 	c #FFFFFF",
"+ 	c #F0F0F0",
"@ 	c #E9E9E9",
"# 	c #6565E9",
"$ 	c #0505C2",
"% 	c #000058",
"& 	c #000020",
"* 	c #000060",
"= 	c #0505C4",
"- 	c #7B7BE9",
"; 	c #F1F1F1",
"> 	c #E7E7F1",
", 	c #0707D2",
"' 	c #0404B5",
") 	c #4B4BF1",
"! 	c #A1A1F1",
"~ 	c #C7C7F1",
"{ 	c #ABABF1",
"] 	c #5353F1",
"^ 	c #01019C",
"/ 	c #0308E0",
"( 	c #EDEDFE",
"_ 	c #0303E4",
": 	c #0404B1",
"< 	c #5353FE",
"[ 	c #BBBBFE",
"} 	c #D1D1FE",
"| 	c #F3F3FE",
"1 	c #D9D9FE",
"2 	c #B3B3FE",
"3 	c #5F5FFE",
"4 	c #0202E7",
"5 	c #4949F1",
"6 	c #000087",
"7 	c #0505F1",
"8 	c #8787F1",
"9 	c #C1C1F1",
"0 	c #CBCBF1",
"a 	c #BFBFF1",
"b 	c #8B8BF1",
"c 	c #0000F1",
"d 	c #010194",
"e 	c #3939F1",
"f 	c #DDDDE9",
"g 	c #0202A7",
"h 	c #0202E9",
"i 	c #7777E9",
"j 	c #6363E9",
"k 	c #8585E9",
"l 	c #9999E9",
"m 	c #8D8DE9",
"n 	c #A7A7E9",
"o 	c #9797E9",
"p 	c #6B6BE9",
"q 	c #0000E9",
"r 	c #E1E1E9",
"s 	c #EEEEEE",
"t 	c #D5D5EE",
"u 	c #000091",
"v 	c #4747EE",
"w 	c #6D6DEE",
"x 	c #7979EE",
"y 	c #9B9BEE",
"z 	c #ABABEE",
"A 	c #9F9FEE",
"B 	c #8585EE",
"C 	c #6363EE",
"D 	c #3333EE",
"E 	c #02029D",
"F 	c #C7C7EE",
"G 	c #FDFDFD",
"H 	c #9F9FFD",
"I 	c #0303AE",
"J 	c #6363FD",
"K 	c #5959FD",
"L 	c #9595FD",
"M 	c #A1A1FD",
"N 	c #ADADFD",
"O 	c #B3B3FD",
"P 	c #B5B5FD",
"Q 	c #6767FD",
"R 	c #6565FD",
"S 	c #0505B6",
"T 	c #A7A7FD",
"U 	c #EFEFEF",
"V 	c #8D8DEF",
"W 	c #0808D1",
"X 	c #9999EF",
"Y 	c #ADADEF",
"Z 	c #CDCDEF",
"` 	c #CFCFEF",
" .	c #E3E3EF",
"..	c #EBEBEF",
"+.	c #DDDDEF",
"@.	c #C1C1EF",
"#.	c #BBBBEF",
"$.	c #A1A1EF",
"%.	c #0606C9",
"&.	c #9797EF",
"*.	c #E6E6E6",
"=.	c #9797E6",
"-.	c #0000E6",
";.	c #9B9BE6",
">.	c #CFCFE6",
",.	c #E3E3E6",
"'.	c #9393E6",
").	c #0505E6",
"!.	c #8787E6",
"~.	c #EAEAEA",
"{.	c #A7A7EA",
"].	c #0F0FEA",
"^.	c #7171EA",
"/.	c #E9E9EA",
"(.	c #6B6BEA",
"_.	c #0909EA",
":.	c #A3A3EA",
"<.	c #F7F7F7",
"[.	c #C1C1F7",
"}.	c #1919F7",
"|.	c #1B1BF7",
"1.	c #A5A5F7",
"2.	c #A1A1F7",
"3.	c #1717F7",
"4.	c #2121F7",
"5.	c #C3C3F7",
"6.	c #E8E8E8",
"7.	c #D9D9E8",
"8.	c #5B5BE8",
"9.	c #0303E6",
"0.	c #3B3BE8",
"a.	c #DFDFE8",
"b.	c #4343E8",
"c.	c #0101E8",
"d.	c #5555E8",
"e.	c #D7D7E8",
"f.	c #DEDEDE",
"g.	c #ADADDE",
"h.	c #171DDE",
"i.	c #0505BE",
"j.	c #0B0BDE",
"k.	c #7D7DDE",
"l.	c #6D6DDE",
"m.	c #0505DE",
"n.	c #0606C7",
"o.	c #2127DE",
"p.	c #ABABDE",
"q.	c #E0E0E0",
"r.	c #D3D3E0",
"s.	c #9999E0",
"t.	c #393EE0",
"u.	c #0707D6",
"v.	c #0303AA",
"w.	c #010196",
"x.	c #0202A5",
"y.	c #3B3BE0",
"z.	c #9797E0",
"A.	c #CDCDE0",
"B.	c #C9C9EA",
"C.	c #9B9BEA",
"D.	c #6569EA",
"E.	c #3939EA",
"F.	c #151BEA",
"G.	c #0101EA",
"H.	c #1515EA",
"I.	c #3737EA",
"J.	c #D9D9D9",
"K.	c #D3D3D9",
"L.	c #B5B5D9",
"M.	c #9393D9",
"N.	c #8383D9",
"O.	c #8989D9",
"P.	c #9D9DD9",
"Q.	c #B9B9D9",
"R.	c #CECECE",
"S.	c #C7C7CE",
"T.	c #CBCBCB",
"U.	c #CCCCCC",
"V.	c #767676",
"W.	c #757575",
". . . . . . . . . . . . . . . . . . . . . . ",
". . . . . . . . . . . . . . . . . . . . . . ",
"+ + + + + + + + + + + + + + + + + + + + + + ",
"@ @ @ @ @ @ @ # $ % & * = - @ @ @ @ @ @ @ @ ",
"; ; ; ; ; > , ' ) ! ~ { ] ^ / > ; ; ; ; ; ; ",
". . . . ( _ : < [ } | 1 2 3 ' 4 ( . . . . . ",
"; ; ; ; 5 6 7 8 9 0 0 ~ a b c d e ; ; ; ; ; ",
"@ @ @ f g h i j k l m n o p i q g r @ @ @ @ ",
"s s s t u v w x y y z A B B C D E F s s s s ",
"G G G H I J K L M N O P M M Q R S T G G G G ",
"U U U V W X Y Z ` U  ...+.@.#.$.%.&.U U U U ",
"*.*.*.=.-.;.>.*.*.*.*.*.*.*.,.'.).!.*.*.*.*.",
"~.~.~.{.].^./.~.~.~.~.~.~.~.~.(._.:.~.~.~.~.",
"<.<.<.[.}.|.1.<.<.<.<.<.<.<.2.3.4.5.<.<.<.<.",
"6.6.6.7.8.9.0.a.6.6.6.6.6.6.b.c.d.e.6.6.6.6.",
"f.f.f.f.g.h.i.j.k.f.f.f.l.m.n.o.p.f.f.f.f.f.",
"q.q.q.q.r.s.t.u.v.u w.d x.m.y.z.A.q.q.q.q.q.",
"~.~.~.~.~.B.C.D.E.F.G.H.I.D.C.B.~.~.~.~.~.~.",
"J.J.J.J.J.J.K.L.M.N.N.O.P.Q.J.J.J.J.J.J.J.J.",
"R.R.R.R.R.R.R.R.R.S.S.R.R.R.R.R.R.R.R.R.R.R.",
"T.U.U.T.T.T.U.T.U.U.T.T.T.U.U.T.U.U.T.T.U.U.",
"V.W.W.V.V.V.W.V.W.W.V.V.V.W.W.V.W.W.V.V.W.W."};
