/* XPM */
static char * button_unfocused_xpm[] = {
"22 22 69 1",
" 	c None",
".	c #ADADAD",
"+	c #A5A5A5",
"@	c #A9A9A9",
"#	c #AAAAAA",
"$	c #A8A8A8",
"%	c #929292",
"&	c #8D8D8D",
"*	c #848484",
"=	c #7C7C7C",
"-	c #7D7D7D",
";	c #888888",
">	c #9B9B9B",
",	c #A7A7A7",
"'	c #A2A2A2",
")	c #919191",
"!	c #979797",
"~	c #A6A6A6",
"{	c #B6B6B6",
"]	c #BBBBBB",
"^	c #B4B4B4",
"/	c #999999",
"(	c #8F8F8F",
"_	c #A4A4A4",
":	c #AFAFAF",
"<	c #ACACAC",
"[	c #BEBEBE",
"}	c #CBCBCB",
"|	c #CCCCCC",
"1	c #C8C8C8",
"2	c #C0C0C0",
"3	c #AEAEAE",
"4	c #9C9C9C",
"5	c #9E9E9E",
"6	c #8E8E8E",
"7	c #A0A0A0",
"8	c #B2B2B2",
"9	c #B9B9B9",
"0	c #B8B8B8",
"a	c #BDBDBD",
"b	c #B3B3B3",
"c	c #898989",
"d	c #A3A3A3",
"e	c #878787",
"f	c #9D9D9D",
"g	c #B1B1B1",
"h	c #B0B0B0",
"i	c #949494",
"j	c #B7B7B7",
"k	c #BABABA",
"l	c #BCBCBC",
"m	c #959595",
"n	c #C2C2C2",
"o	c #C1C1C1",
"p	c #B5B5B5",
"q	c #ABABAB",
"r	c #9F9F9F",
"s	c #BFBFBF",
"t	c #C3C3C3",
"u	c #C5C5C5",
"v	c #C7C7C7",
"w	c #C4C4C4",
"x	c #C6C6C6",
"y	c #A1A1A1",
"z	c #9A9A9A",
"A	c #8B8B8B",
"B	c #939393",
"C	c #8C8C8C",
"D	c #717171",
"......................",
"......................",
"+++++++@#@##@$++++++++",
"+++++++%&*=-;>,+++++++",
",,,,,')!~{]^$/(_,,,,,,",
"::::</!:[}|123453:::::",
"~~~,!6789]{0ab'c4,~~~~",
"ddd+ef+<:g:::#d>;~dddd",
"~~~+c+:h8bbbbg3_&@~~~~",
":::~i:{j0kll9jj:m#::::",
"____/hb0k[no]{pgm+____",
"___fmq{jk[o2a9{<ir____",
"___5m@2snttuvws@/_____",
"qqq$/r9ov1x1}w0y>#qqqq",
"'''dz(d9txtww{'%i'''''",
"77775%Amdbk^_Bci477777",
"'''''4ie;c;e;C(5''''''",
"qqqqqq~r>m)%/y@qqqqqqq",
"fffffff554>455ffffffff",
"ffffffffffffffffffffff",
"5555555555555555555555",
"DDDDDDDDDDDDDDDDDDDDDD"};
