/* XPM */
static char * close_pressed2_xpm[] = {
"22 22 231 2",
"  	c None",
". 	c #FFFFFF",
"+ 	c #F0F0F0",
"@ 	c #EFEFEF",
"# 	c #EEEEEE",
"$ 	c #E9E9E9",
"% 	c #E8E8E8",
"& 	c #E3E3E3",
"* 	c #A8A8A6",
"= 	c #5F5F5D",
"- 	c #242422",
"; 	c #101010",
"> 	c #232323",
", 	c #575759",
"' 	c #D1D1D2",
") 	c #E6E6E6",
"! 	c #F1F1F1",
"~ 	c #706667",
"{ 	c #423D41",
"] 	c #9D9897",
"^ 	c #C7B7B8",
"/ 	c #DFCFCF",
"( 	c #CDB9BB",
"_ 	c #9B8A8E",
": 	c #53474E",
"< 	c #695E64",
"[ 	c #EAEAEA",
"} 	c #FEFEFE",
"| 	c #F7F7F7",
"1 	c #75746F",
"2 	c #624950",
"3 	c #918B88",
"4 	c #DCD7D3",
"5 	c #FFF4F4",
"6 	c #F3E3E3",
"7 	c #FFF0F1",
"8 	c #E4D0D1",
"9 	c #99908B",
"0 	c #5F4B49",
"a 	c #7C716D",
"b 	c #EBEBEB",
"c 	c #ABA4A0",
"d 	c #4D2526",
"e 	c #793941",
"f 	c #AE4B4E",
"g 	c #CD6A6D",
"h 	c #FEA4AE",
"i 	c #F69CA6",
"j 	c #F99DA8",
"k 	c #C66A75",
"l 	c #B25256",
"m 	c #8C3033",
"n 	c #461E1C",
"o 	c #B6A7A9",
"p 	c #DCDCDC",
"q 	c #714F4D",
"r 	c #722C32",
"s 	c #7A3B43",
"t 	c #6D0A0D",
"u 	c #5F0000",
"v 	c #913741",
"w 	c #B35963",
"x 	c #90343F",
"y 	c #5B000A",
"z 	c #6B0B0F",
"A 	c #97373B",
"B 	c #6E3333",
"C 	c #7A5052",
"D 	c #ECECEC",
"E 	c #DBDBDB",
"F 	c #541E1C",
"G 	c #AA3333",
"H 	c #B53B3A",
"I 	c #A71309",
"J 	c #9A0600",
"K 	c #78120D",
"L 	c #942E29",
"M 	c #77110D",
"N 	c #7D1713",
"O 	c #A0110B",
"P 	c #C2332D",
"Q 	c #993536",
"R 	c #5D1F20",
"S 	c #FDFDFD",
"T 	c #FBFBFB",
"U 	c #E7E7E7",
"V 	c #51100C",
"W 	c #AB3130",
"X 	c #C34948",
"Y 	c #E34F45",
"Z 	c #E24E44",
"` 	c #88221D",
" .	c #86201B",
"..	c #821C18",
"+.	c #BE5854",
"@.	c #E1524C",
"#.	c #D1423C",
"$.	c #973334",
"%.	c #5A0E0E",
"&.	c #EDEDED",
"*.	c #DADADA",
"=.	c #67201A",
"-.	c #BC4237",
";.	c #DC6257",
">.	c #FA6D51",
",.	c #E5583C",
"'.	c #913B24",
").	c #943E27",
"!.	c #8D3623",
"~.	c #B7604D",
"{.	c #FC7361",
"].	c #EB6250",
"^.	c #AB4644",
"/.	c #6E1B17",
"(.	c #CECCCB",
"_.	c #782F26",
":.	c #C74E42",
"<.	c #E46A5F",
"[.	c #EB5E42",
"}.	c #B82B0F",
"|.	c #8E3821",
"1.	c #AA543D",
"2.	c #963F2C",
"3.	c #913A27",
"4.	c #EE6553",
"5.	c #F06755",
"6.	c #BA4D4A",
"7.	c #832C25",
"8.	c #D2D2D2",
"9.	c #E4E4E4",
"0.	c #D3D3D3",
"a.	c #876E63",
"b.	c #983F36",
"c.	c #C07067",
"d.	c #AB341C",
"e.	c #9D260E",
"f.	c #E57D72",
"g.	c #FFA59A",
"h.	c #DE756F",
"i.	c #8B221C",
"j.	c #AC382B",
"k.	c #E16D60",
"l.	c #944040",
"m.	c #915650",
"n.	c #D3D3D2",
"o.	c #F4F4F4",
"p.	c #E0E0E0",
"q.	c #BEBEBE",
"r.	c #944540",
"s.	c #BC675F",
"t.	c #DA634B",
"u.	c #F67F67",
"v.	c #FFA79C",
"w.	c #FFB6AB",
"x.	c #FFAAA4",
"y.	c #E47B75",
"z.	c #D66255",
"A.	c #D86356",
"B.	c #8C4342",
"C.	c #9F7873",
"D.	c #E1E1E1",
"E.	c #D5D5D5",
"F.	c #ADAAA8",
"G.	c #937C7A",
"H.	c #7F3E3F",
"I.	c #BD7F77",
"J.	c #D9A097",
"K.	c #FFC2C4",
"L.	c #FFC1C3",
"M.	c #FFC3C8",
"N.	c #E89DA2",
"O.	c #C58583",
"P.	c #A23D3C",
"Q.	c #7A5354",
"R.	c #A99F9C",
"S.	c #DEDEDE",
"T.	c #DDDDDD",
"U.	c #B9B9B9",
"V.	c #A2A2A2",
"W.	c #857576",
"X.	c #593A30",
"Y.	c #986760",
"Z.	c #B67173",
"`.	c #CF898B",
" +	c #B6676C",
".+	c #9F5254",
"++	c #6E443B",
"@+	c #5F5242",
"#+	c #8F8085",
"$+	c #B8B8B8",
"%+	c #D1D1D1",
"&+	c #CBCBCB",
"*+	c #B4B4B4",
"=+	c #9C9C9C",
"-+	c #685D5D",
";+	c #463F37",
">+	c #474538",
",+	c #4A4C3E",
"'+	c #525449",
")+	c #9B9B9B",
"!+	c #A1A1A1",
"~+	c #B3B3B3",
"{+	c #CACACA",
"]+	c #BDBDBD",
"^+	c #A9ACAE",
"/+	c #A7A7A7",
"(+	c #A4A4A4",
"_+	c #A3A3A3",
":+	c #A6A6A6",
"<+	c #A2AAAA",
"[+	c #BCBCBC",
"}+	c #E2E2E2",
"|+	c #D9D9D9",
"1+	c #D8D8D8",
"2+	c #C7C7C7",
"3+	c #BBBBBB",
"4+	c #AEAEAE",
"5+	c #A9A9A9",
"6+	c #A8A8A8",
"7+	c #ACACAC",
"8+	c #B7B7B7",
"9+	c #CECECE",
"0+	c #C5C5C5",
"a+	c #C0C0C0",
"b+	c #C4C4C4",
"c+	c #CCCCCC",
"d+	c #C9C9C9",
"e+	c #C8C8C8",
"f+	c #757575",
"g+	c #6D6D6D",
"h+	c #6C6C6C",
". . . . . . . . . . . . . . . . . . . . . . ",
". . . . . . . . . . . . . . . . . . . . . . ",
"+ + + + + + + @ # # # # @ + + + + + + + + + ",
"$ $ $ $ $ % & * = - ; > , ' ) $ $ $ $ $ $ $ ",
"! ! ! ! + $ ~ { ] ^ / ( _ : < [ + ! ! ! ! ! ",
". . . } | 1 2 3 4 5 6 7 8 9 0 a | } . . . . ",
"! ! ! b c d e f g h i j k l m n o b ! ! ! ! ",
"$ $ % p q r s t u v w x y z A B C p % $ $ $ ",
"# # D E F G H I J K L M N O P Q R E D # # # ",
"S S T U V W X Y Z `  ...+.@.#.$.%.% T S S S ",
"@ @ &.*.=.-.;.>.,.'.).!.~.{.].^./.*.&.@ @ @ ",
") ) & (._.:.<.[.}.|.1.2.3.4.5.6.7.8.9.) ) ) ",
"[ [ ) 0.a.b.c.d.e.f.g.h.i.j.k.l.m.n.U [ [ [ ",
"| | o.p.q.r.s.t.u.v.w.x.y.z.A.B.C.D.o.| | | ",
"% % ) E.F.G.H.I.J.K.L.M.N.O.P.Q.R.E.) % % % ",
"S.S.T.8.U.V.W.X.Y.Z.`. +.+++@+#+$+%+T.S.S.S.",
"p.p.p.E &+*+V.=+-+;+>+,+'+)+!+~+{+*.p.p.p.p.",
"[ [ [ $ & 0.]+^+/+(+_+_+:+<+[+8.}+$ [ [ [ [ ",
"|+|+|+|+1+0.2+3+4+5+/+6+7+8+2+0.1+|+|+|+|+|+",
"9+9+9+9+9+9+&+0+a+]+]+]+q.b+{+9+9+9+9+9+9+9+",
"c+d+{+{+d+d+d+d+2+2+2+e+e+2+d+{+{+d+{+{+d+d+",
"f+g+h+h+g+g+h+h+g+g+g+h+h+g+h+h+h+g+h+h+g+g+"};
