/* XPM */
static char * maximize_pressed2_xpm[] = {
"22 22 229 2",
"  	c None",
". 	c #FFFFFF",
"+ 	c #F0F0F0",
"@ 	c #EEEEEE",
"# 	c #E9E9E9",
"$ 	c #E5E5E5",
"% 	c #C7C7C6",
"& 	c #61605E",
"* 	c #3D2324",
"= 	c #2D1515",
"- 	c #392526",
"; 	c #645655",
"> 	c #CCC9C9",
", 	c #F1F1F1",
"' 	c #EAEAEA",
") 	c #906461",
"! 	c #6D4546",
"~ 	c #AE8B8D",
"{ 	c #E0CDC6",
"] 	c #EBD8D1",
"^ 	c #DBC2C4",
"/ 	c #A5898A",
"( 	c #6C4548",
"_ 	c #8C696F",
": 	c #F8F8F8",
"< 	c #906866",
"[ 	c #824A4A",
"} 	c #BE9091",
"| 	c #F9CBCE",
"1 	c #FFEFE8",
"2 	c #FFECE5",
"3 	c #FFF0F3",
"4 	c #F6DCDF",
"5 	c #C49396",
"6 	c #7C4E54",
"7 	c #90707B",
"8 	c #ECECEC",
"9 	c #C5ADB5",
"0 	c #79322A",
"a 	c #AC623A",
"b 	c #EEA95E",
"c 	c #FFC378",
"d 	c #FCD079",
"e 	c #F5C972",
"f 	c #FFD279",
"g 	c #FECB72",
"h 	c #ECA571",
"i 	c #A35D2D",
"j 	c #6E3938",
"k 	c #CCB3BA",
"l 	c #E8E8E8",
"m 	c #DDDDDD",
"n 	c #8A4D52",
"o 	c #A65030",
"p 	c #C47B52",
"q 	c #D89348",
"r 	c #E19C51",
"s 	c #DEB25B",
"t 	c #DAAE57",
"u 	c #DFAC53",
"v 	c #D6A34A",
"w 	c #DB9460",
"x 	c #D08955",
"y 	c #8D4E36",
"z 	c #954C3D",
"A 	c #DCDCDC",
"B 	c #7B3124",
"C 	c #CE7020",
"D 	c #EC923C",
"E 	c #E1901D",
"F 	c #EC9B28",
"G 	c #EAB245",
"H 	c #E4AC3F",
"I 	c #E9A63B",
"J 	c #E88E16",
"K 	c #EF951D",
"L 	c #B66E38",
"M 	c #8E2D0A",
"N 	c #FDFDFD",
"O 	c #FBFBFB",
"P 	c #82371A",
"Q 	c #E88D37",
"R 	c #E58B35",
"S 	c #A75600",
"T 	c #A15000",
"U 	c #975F00",
"V 	c #965E00",
"W 	c #9E5B00",
"X 	c #9F5C00",
"Y 	c #A54B00",
"Z 	c #F89E26",
"` 	c #C98652",
" .	c #922F06",
"..	c #EFEFEF",
"+.	c #EDEDED",
"@.	c #DADADA",
"#.	c #914827",
"$.	c #E8A544",
"%.	c #E5A342",
"&.	c #986700",
"*.	c #946300",
"=.	c #886900",
"-.	c #8F7004",
";.	c #9C6E0E",
">.	c #936505",
",.	c #AC5700",
"'.	c #FFAC1E",
").	c #EAB16C",
"!.	c #A14F1F",
"~.	c #E6E6E6",
"{.	c #E3E3E3",
"].	c #CECECE",
"^.	c #9D5839",
"/.	c #D99233",
"(.	c #FFCA69",
"_.	c #FFCE4D",
":.	c #FFE968",
"<.	c #FFEA7E",
"[.	c #FFED81",
"}.	c #FFEA8A",
"|.	c #FFDC7C",
"1.	c #FFCA3C",
"2.	c #FFCF41",
"3.	c #DAA056",
"4.	c #9D5D1D",
"5.	c #D2D2D2",
"6.	c #E4E4E4",
"7.	c #E7E7E7",
"8.	c #D4D4D4",
"9.	c #967556",
"0.	c #CCA146",
"a.	c #F0D27A",
"b.	c #F8ED60",
"c.	c #F9EE61",
"d.	c #FDFF77",
"e.	c #FFFF85",
"f.	c #FFFE7B",
"g.	c #F9EC69",
"h.	c #FFD265",
"i.	c #B49255",
"j.	c #886B59",
"k.	c #D5D5D5",
"l.	c #F7F7F7",
"m.	c #F4F4F4",
"n.	c #E1E1E1",
"o.	c #9C847A",
"p.	c #9F6F34",
"q.	c #D0B056",
"r.	c #FFFD70",
"s.	c #FFFF7D",
"t.	c #F8FA72",
"u.	c #FFFD7A",
"v.	c #FFEE81",
"w.	c #E5B245",
"x.	c #9C7A44",
"y.	c #9A8779",
"z.	c #E2E2E2",
"A.	c #F5F5F5",
"B.	c #D7D7D7",
"C.	c #B0ABB0",
"D.	c #7F604E",
"E.	c #987B43",
"F.	c #C4C368",
"G.	c #F2F298",
"H.	c #FFFFA2",
"I.	c #FFFFA3",
"J.	c #FFFC8E",
"K.	c #F2EC7E",
"L.	c #D4C38E",
"M.	c #967B3C",
"N.	c #7A6749",
"O.	c #A9A6A3",
"P.	c #D6D6D6",
"Q.	c #DEDEDE",
"R.	c #BCBCBC",
"S.	c #897D81",
"T.	c #685841",
"U.	c #6C6726",
"V.	c #94983D",
"W.	c #CBD467",
"X.	c #E3EC83",
"Y.	c #D6D362",
"Z.	c #A7A735",
"`.	c #776F24",
" +	c #6A5B3A",
".+	c #807B77",
"++	c #BABABA",
"@+	c #E0E0E0",
"#+	c #CDCDCD",
"$+	c #B4B4B4",
"%+	c #8C8889",
"&+	c #626353",
"*+	c #565B3B",
"=+	c #433453",
"-+	c #494351",
";+	c #474843",
">+	c #4A4A42",
",+	c #625C5C",
"'+	c #8B848B",
")+	c #B3B3B3",
"!+	c #CBCBCB",
"~+	c #DBDBDB",
"{+	c #BDBDBD",
"]+	c #AAAAAC",
"^+	c #83838D",
"/+	c #827E7F",
"(+	c #757573",
"_+	c #767873",
":+	c #8D8F8C",
"<+	c #AEAEAF",
"[+	c #D9D9D9",
"}+	c #D8D8D8",
"|+	c #D3D3D3",
"1+	c #C7C7C7",
"2+	c #ACACAC",
"3+	c #A6A6A4",
"4+	c #A5A5A5",
"5+	c #A7A7A8",
"6+	c #B0B0B0",
"7+	c #C9C9C9",
"8+	c #CACACA",
"9+	c #C5C5C5",
"0+	c #B8B8B8",
"a+	c #BBBBBB",
"b+	c #C0C0C0",
"c+	c #C8C8C8",
"d+	c #C6C6C6",
"e+	c #6D6D6D",
"f+	c #6C6C6C",
". . . . . . . . . . . . . . . . . . . . . . ",
". . . . . . . . . . . . . . . . . . . . . . ",
"+ + + + + + + + @ @ @ @ @ + + + + + + + + + ",
"# # # # # # $ % & * = - ; > $ # # # # # # # ",
", , , , + ' ) ! ~ { ] ^ / ( _ ' + , , , , , ",
". . . . : < [ } | 1 2 3 4 5 6 7 : . . . . . ",
", , , 8 9 0 a b c d e f g h i j k 8 , , , , ",
"# # l m n o p q r s t u v w x y z m l # # # ",
"@ @ 8 A B C D E F G H I I J K L M A 8 @ @ @ ",
"N N O l P Q R S T U V W X Y Z `  .l O N N N ",
"....+.@.#.$.%.&.*.=.-.;.>.,.'.).!.@.+.......",
"~.~.{.].^./.(._.:.<.[.}.|.1.2.3.4.5.6.~.~.~.",
"' ' 7.8.9.0.a.b.c.d.e.f.g.h.h.i.j.k.l ' ' ' ",
"l.l.m.n.o.p.q.r.s.d.t.u.e.v.w.x.y.z.A.l.l.l.",
"l l ~.B.C.D.E.F.G.H.I.J.K.L.M.N.O.P.~.l l l ",
"Q.Q.m 8.R.S.T.U.V.W.X.Y.Z.`. +.+++5.m Q.Q.Q.",
"@+@+@+A #+$+%+&+*+=+-+;+>+,+'+)+!+~+@+@+@+@+",
"' ' ' ' {.5.{+]+^+/+(+_+:+<+{+5.{.' ' ' ' ' ",
"[+[+[+[+}+|+1+++2+3+4+5+6+R.7+|+}+[+[+[+[+[+",
"].].].].].].8+9+{+0+0+a+b+1+!+].].].].].].].",
"7+8+8+7+8+8+c+1+1+9+9+d+1+7+8+7+8+8+7+8+7+7+",
"e+f+f+e+f+f+e+e+f+f+e+e+e+f+f+e+f+f+e+f+e+e+"};
