/* XPM */
static char * iconify_xpm[] = {
"22 22 230 2",
"  	c None",
". 	c #FFFFFF",
"+ 	c #F0F0F0",
"@ 	c #EEEEEE",
"# 	c #E9E9E9",
"$ 	c #E5E5E5",
"% 	c #C9C9C9",
"& 	c #5B5B59",
"* 	c #252523",
"= 	c #090A05",
"- 	c #2C2C2C",
"; 	c #565656",
"> 	c #C4C4C4",
", 	c #F1F1F1",
"' 	c #EAEAEA",
") 	c #676067",
"! 	c #434144",
"~ 	c #8A8A8C",
"{ 	c #BFBEC4",
"] 	c #CECCD7",
"^ 	c #C4B3C3",
"/ 	c #908F94",
"( 	c #2C3836",
"_ 	c #676E74",
": 	c #FEFEFE",
"< 	c #F7F7F7",
"[ 	c #6B706A",
"} 	c #3F4A3C",
"| 	c #8C9B86",
"1 	c #C6D5C0",
"2 	c #D6E3CF",
"3 	c #EDF8E7",
"4 	c #E4E6DB",
"5 	c #C8D7C2",
"6 	c #8FA78D",
"7 	c #3B5041",
"8 	c #63676A",
"9 	c #EBEBEB",
"0 	c #A1A5A0",
"a 	c #243D1F",
"b 	c #4A703F",
"c 	c #7AA369",
"d 	c #A5CB8E",
"e 	c #B9DB9E",
"f 	c #ABCB8C",
"g 	c #B7D49E",
"h 	c #98BF80",
"i 	c #7AA868",
"j 	c #42693A",
"k 	c #253D27",
"l 	c #9A9F9D",
"m 	c #E8E8E8",
"n 	c #DCDCDC",
"o 	c #455441",
"p 	c #2F5C23",
"q 	c #4F8F39",
"r 	c #569837",
"s 	c #6AA644",
"t 	c #6CA33D",
"u 	c #74A93F",
"v 	c #72AA49",
"w 	c #69A63F",
"x 	c #53942E",
"y 	c #5A9543",
"z 	c #376131",
"A 	c #3A4F3E",
"B 	c #DBDBDB",
"C 	c #ECECEC",
"D 	c #1F3818",
"E 	c #40802C",
"F 	c #40931F",
"G 	c #56A62B",
"H 	c #6DB138",
"I 	c #6CAD2F",
"J 	c #7DC03C",
"K 	c #6FB53B",
"L 	c #6AB330",
"M 	c #5AA725",
"N 	c #489223",
"O 	c #3C782E",
"P 	c #1B3E1D",
"Q 	c #FDFDFD",
"R 	c #FBFBFB",
"S 	c #E7E7E7",
"T 	c #113509",
"U 	c #509B34",
"V 	c #51AD26",
"W 	c #63B32C",
"X 	c #7CBE40",
"Y 	c #99DA58",
"Z 	c #86CD43",
"` 	c #90D757",
" .	c #84CC42",
"..	c #6FBD2C",
"+.	c #57A626",
"@.	c #589D42",
"#.	c #113F10",
"$.	c #EFEFEF",
"%.	c #EDEDED",
"&.	c #DADADA",
"*.	c #2D5822",
"=.	c #5FAF3C",
"-.	c #69C534",
";.	c #8AD24C",
">.	c #95CC55",
",.	c #A7E168",
"'.	c #9BE15D",
").	c #99D95F",
"!.	c #9CDE56",
"~.	c #84CC3C",
"{.	c #71BF38",
"].	c #62AD48",
"^.	c #1B5117",
"/.	c #E6E6E6",
"(.	c #E4E4E4",
"_.	c #D2D2D2",
":.	c #2F5F23",
"<.	c #5AAE34",
"[.	c #77CF3D",
"}.	c #99DB57",
"|.	c #B4E474",
"1.	c #BAEE7F",
"2.	c #B3F57A",
"3.	c #BBF682",
"4.	c #A9E463",
"5.	c #9FE052",
"6.	c #87D04A",
"7.	c #60AB42",
"8.	c #326A2B",
"9.	c #BEC5BD",
"0.	c #E2E2E2",
"a.	c #D5D5D5",
"b.	c #5C7852",
"c.	c #5C8E37",
"d.	c #95D857",
"e.	c #9EEA56",
"f.	c #A7EF65",
"g.	c #C3FF8F",
"h.	c #C6FE9D",
"i.	c #C8FA97",
"j.	c #B8F677",
"k.	c #A4F05C",
"l.	c #92DE58",
"m.	c #599440",
"n.	c #557754",
"o.	c #D0D0D0",
"p.	c #F5F5F5",
"q.	c #7B946D",
"r.	c #558031",
"s.	c #7DB746",
"t.	c #B3F673",
"u.	c #C8FF89",
"v.	c #C7FF8F",
"w.	c #C2F590",
"x.	c #C8FA89",
"y.	c #C7FF7F",
"z.	c #B9FC6F",
"A.	c #83C24D",
"B.	c #568541",
"C.	c #7B957C",
"D.	c #DEDEDE",
"E.	c #F3F3F3",
"F.	c #D6D6D6",
"G.	c #A3A9A8",
"H.	c #58724F",
"I.	c #5A843C",
"J.	c #96C962",
"K.	c #C2F57C",
"L.	c #CFFF7C",
"M.	c #DCFF84",
"N.	c #D3FF8F",
"O.	c #BDEF74",
"P.	c #9ECF5C",
"Q.	c #5E8532",
"R.	c #546E47",
"S.	c #A8AEAA",
"T.	c #DDDDDD",
"U.	c #BBBBBB",
"V.	c #788480",
"W.	c #4D6448",
"X.	c #506F36",
"Y.	c #739541",
"Z.	c #9CBF57",
"`.	c #B9DC68",
" +	c #99C067",
".+	c #5D7835",
"++	c #556541",
"@+	c #7B817D",
"#+	c #BCBCBC",
"$+	c #D3D3D3",
"%+	c #E0E0E0",
"&+	c #CCCCCC",
"*+	c #B4B4B4",
"=+	c #868F8C",
"-+	c #5B6660",
";+	c #465246",
">+	c #3F4C38",
",+	c #3B492F",
"'+	c #455A33",
")+	c #445533",
"!+	c #57604F",
"~+	c #848388",
"{+	c #E3E3E3",
"]+	c #BDBDBD",
"^+	c #ACACAE",
"/+	c #858793",
"(+	c #73767F",
"_+	c #6C7079",
":+	c #6D736F",
"<+	c #8D9091",
"[+	c #ADADAE",
"}+	c #D9D9D9",
"|+	c #D8D8D8",
"1+	c #C8C8C8",
"2+	c #AEAEAE",
"3+	c #A8A8A8",
"4+	c #A6A6A6",
"5+	c #A9A9A9",
"6+	c #B1B1B1",
"7+	c #CECECE",
"8+	c #CBCBCB",
"9+	c #C6C6C6",
"0+	c #BFBFBF",
"a+	c #C1C1C1",
"b+	c #C7C7C7",
"c+	c #CACACA",
"d+	c #6C6C6C",
"e+	c #6D6D6D",
"f+	c #757575",
"g+	c #767676",
". . . . . . . . . . . . . . . . . . . . . . ",
". . . . . . . . . . . . . . . . . . . . . . ",
"+ + + + + + + + @ @ @ @ @ + + + + + + + + + ",
"# # # # # # $ % & * = - ; > $ # # # # # # # ",
", , , , + ' ) ! ~ { ] ^ / ( _ ' + , , , , , ",
". . . : < [ } | 1 2 3 4 5 6 7 8 < : . . . . ",
", , , 9 0 a b c d e f g h i j k l 9 , , , , ",
"# # m n o p q r s t u v w x y z A B m # # # ",
"@ @ C B D E F G H I J K L M N O P B C @ @ @ ",
"Q Q R S T U V W X Y Z `  ...+.@.#.S R Q Q Q ",
"$.$.%.&.*.=.-.;.>.,.'.).!.~.{.].^.&.C $.$.$.",
"/./.(._.:.<.[.}.|.1.2.3.4.5.6.7.8.9.0./././.",
"' ' m a.b.c.d.e.f.g.h.i.j.k.l.m.n.o.(.' ' ' ",
"< < p.0.q.r.s.t.u.v.w.x.y.z.A.B.C.D.E.< < < ",
"m m /.F.G.H.I.J.K.L.M.N.O.P.Q.R.S.F./.m m m ",
"D.D.T._.U.V.W.X.Y.Z.`. +Y..+++@+#+$+T.D.D.D.",
"%+%+%+B &+*+=+-+;+>+,+'+)+!+~+*+&+B %+%+%+%+",
"' ' ' ' {+_.]+^+/+(+_+:+<+[+]+_.{+' ' ' ' ' ",
"}+}+}+}+|+$+1+#+2+3+4+5+6+#+1+$+|+}+}+}+}+}+",
"7+7+7+7+7+7+8+9+0+#+U.]+a+b+8+7+7+7+7+7+7+7+",
"c+c+% c+c+% % 1+1+b+9+b+1+% c+% c+c+% c+&+8+",
"d+d+e+d+d+e+e+e+d+d+e+d+d+d+d+e+d+d+e+d+f+g+"};
