/* XPM */
static char * maximize_pressed_xpm[] = {
"22 22 233 2",
"  	c None",
". 	c #FFFFFF",
"+ 	c #F0F0F0",
"@ 	c #EEEEEE",
"# 	c #E9E9E9",
"$ 	c #E5E5E5",
"% 	c #C7C7C6",
"& 	c #61605E",
"* 	c #3D2324",
"= 	c #2D1515",
"- 	c #392526",
"; 	c #645655",
"> 	c #CCC9C9",
", 	c #F1F1F1",
"' 	c #EAEAEA",
") 	c #906461",
"! 	c #6D4546",
"~ 	c #A49091",
"{ 	c #D2BEBD",
"] 	c #DFCDC9",
"^ 	c #D0BDB6",
"/ 	c #A98B89",
"( 	c #6C4548",
"_ 	c #8C696F",
": 	c #F8F8F8",
"< 	c #906866",
"[ 	c #884C44",
"} 	c #C9988B",
"| 	c #F7E1D6",
"1 	c #FDF1EF",
"2 	c #FFF8F4",
"3 	c #FEF5EE",
"4 	c #F8DFD8",
"5 	c #BF918F",
"6 	c #7B4E55",
"7 	c #90707B",
"8 	c #ECECEC",
"9 	c #C5ADB5",
"0 	c #79322C",
"a 	c #BB6E53",
"b 	c #F4C7A5",
"c 	c #FADEBC",
"d 	c #FCE8CC",
"e 	c #FAE7C8",
"f 	c #F9E6C3",
"g 	c #FAE1BD",
"h 	c #F6D1B4",
"i 	c #AB6F5D",
"j 	c #6E3838",
"k 	c #CCB3BA",
"l 	c #E8E8E8",
"m 	c #DDDDDD",
"n 	c #8A4D52",
"o 	c #B6563D",
"p 	c #F5B077",
"q 	c #F0B96D",
"r 	c #F4C97C",
"s 	c #F1CA75",
"t 	c #F1CE76",
"u 	c #F4D478",
"v 	c #F0C665",
"w 	c #F2BD65",
"x 	c #ECAD6B",
"y 	c #A45531",
"z 	c #954C3D",
"A 	c #DCDCDC",
"B 	c #7B3124",
"C 	c #E0804C",
"D 	c #F7B455",
"E 	c #F4C152",
"F 	c #F7CC60",
"G 	c #FDD665",
"H 	c #F9D25F",
"I 	c #FCD963",
"J 	c #FBD154",
"K 	c #F7BC44",
"L 	c #F9B856",
"M 	c #E18D4C",
"N 	c #8E2D0A",
"O 	c #FDFDFD",
"P 	c #FBFBFB",
"Q 	c #82371A",
"R 	c #F9AD62",
"S 	c #FCC854",
"T 	c #FDDA5D",
"U 	c #FDDB68",
"V 	c #FFE580",
"W 	c #FDDE78",
"X 	c #FEE076",
"Y 	c #FFE170",
"Z 	c #FFD35A",
"` 	c #FEC65D",
" .	c #F5AC66",
"..	c #922F06",
"+.	c #EFEFEF",
"@.	c #EDEDED",
"#.	c #DADADA",
"$.	c #914827",
"%.	c #FEC272",
"&.	c #FDD65C",
"*.	c #FCE36B",
"=.	c #FFE888",
"-.	c #FEE98F",
";.	c #FFED9C",
">.	c #FFF1A1",
",.	c #FFED8F",
"'.	c #FFE373",
").	c #FED56C",
"!.	c #F9C47A",
"~.	c #A14F1F",
"{.	c #E6E6E6",
"].	c #E3E3E3",
"^.	c #CECECE",
"/.	c #9D5839",
"(.	c #FABD6A",
"_.	c #FEE16D",
":.	c #FEEE86",
"<.	c #FFEFA2",
"[.	c #FFF8AA",
"}.	c #FFF8B0",
"|.	c #FEF9B1",
"1.	c #FCF297",
"2.	c #FEED7E",
"3.	c #FEE476",
"4.	c #F2C971",
"5.	c #9D5D1D",
"6.	c #D2D2D2",
"7.	c #E4E4E4",
"8.	c #E7E7E7",
"9.	c #D4D4D4",
"0.	c #967556",
"a.	c #DCAD53",
"b.	c #FFE778",
"c.	c #FFF087",
"d.	c #FFF9AB",
"e.	c #FFFCB0",
"f.	c #FFFEC4",
"g.	c #FEFDC1",
"h.	c #FEF69E",
"i.	c #FFF587",
"j.	c #FFEB83",
"k.	c #D1AB6A",
"l.	c #886B59",
"m.	c #D5D5D5",
"n.	c #F7F7F7",
"o.	c #F4F4F4",
"p.	c #E1E1E1",
"q.	c #9C847A",
"r.	c #A8783E",
"s.	c #F7DA7D",
"t.	c #FFF698",
"u.	c #FFFDA4",
"v.	c #FFFFB5",
"w.	c #FFFFBD",
"x.	c #FFFFBC",
"y.	c #FFFDAE",
"z.	c #FFF79B",
"A.	c #F3D679",
"B.	c #A5834D",
"C.	c #9A8779",
"D.	c #E2E2E2",
"E.	c #F5F5F5",
"F.	c #D7D7D7",
"G.	c #B0ABB0",
"H.	c #7F604E",
"I.	c #AE8E50",
"J.	c #F0E792",
"K.	c #FDFEAA",
"L.	c #FFFDB1",
"M.	c #FFFFBE",
"N.	c #FFFFBF",
"O.	c #FEFEB3",
"P.	c #F5E999",
"Q.	c #AA8D4B",
"R.	c #7A6749",
"S.	c #A9A6A3",
"T.	c #D6D6D6",
"U.	c #DEDEDE",
"V.	c #BCBCBC",
"W.	c #897D81",
"X.	c #685841",
"Y.	c #756F32",
"Z.	c #AAB25B",
"`.	c #E9ED77",
" +	c #F0F786",
".+	c #DEEA71",
"++	c #B1B947",
"@+	c #817A2D",
"#+	c #6A5B3A",
"$+	c #807B77",
"%+	c #BABABA",
"&+	c #E0E0E0",
"*+	c #CDCDCD",
"=+	c #B4B4B4",
"-+	c #8C8889",
";+	c #626353",
">+	c #565B3B",
",+	c #433453",
"'+	c #494351",
")+	c #474843",
"!+	c #4A4A42",
"~+	c #625C5C",
"{+	c #8B848B",
"]+	c #B3B3B3",
"^+	c #CBCBCB",
"/+	c #DBDBDB",
"(+	c #BDBDBD",
"_+	c #AAAAAC",
":+	c #83838D",
"<+	c #827E7F",
"[+	c #757573",
"}+	c #767873",
"|+	c #8D8F8C",
"1+	c #AEAEAF",
"2+	c #D9D9D9",
"3+	c #D8D8D8",
"4+	c #D3D3D3",
"5+	c #C7C7C7",
"6+	c #ACACAC",
"7+	c #A6A6A4",
"8+	c #A5A5A5",
"9+	c #A7A7A8",
"0+	c #B0B0B0",
"a+	c #C9C9C9",
"b+	c #CACACA",
"c+	c #C5C5C5",
"d+	c #B8B8B8",
"e+	c #BBBBBB",
"f+	c #C0C0C0",
"g+	c #C8C8C8",
"h+	c #C6C6C6",
"i+	c #6D6D6D",
"j+	c #6C6C6C",
". . . . . . . . . . . . . . . . . . . . . . ",
". . . . . . . . . . . . . . . . . . . . . . ",
"+ + + + + + + + @ @ @ @ @ + + + + + + + + + ",
"# # # # # # $ % & * = - ; > $ # # # # # # # ",
", , , , + ' ) ! ~ { ] ^ / ( _ ' + , , , , , ",
". . . . : < [ } | 1 2 3 4 5 6 7 : . . . . . ",
", , , 8 9 0 a b c d e f g h i j k 8 , , , , ",
"# # l m n o p q r s t u v w x y z m l # # # ",
"@ @ 8 A B C D E F G H I J K L M N A 8 @ @ @ ",
"O O P l Q R S T U V W X Y Z `  ...l P O O O ",
"+.+.@.#.$.%.&.*.=.-.;.>.,.'.).!.~.#.@.+.+.+.",
"{.{.].^./.(._.:.<.[.}.|.1.2.3.4.5.6.7.{.{.{.",
"' ' 8.9.0.a.b.c.d.e.f.g.h.i.j.k.l.m.l ' ' ' ",
"n.n.o.p.q.r.s.t.u.v.w.x.y.z.A.B.C.D.E.n.n.n.",
"l l {.F.G.H.I.J.K.L.M.N.O.P.Q.R.S.T.{.l l l ",
"U.U.m 9.V.W.X.Y.Z.`. +.+++@+#+$+%+6.m U.U.U.",
"&+&+&+A *+=+-+;+>+,+'+)+!+~+{+]+^+/+&+&+&+&+",
"' ' ' ' ].6.(+_+:+<+[+}+|+1+(+6.].' ' ' ' ' ",
"2+2+2+2+3+4+5+%+6+7+8+9+0+V.a+4+3+2+2+2+2+2+",
"^.^.^.^.^.^.b+c+(+d+d+e+f+5+^+^.^.^.^.^.^.^.",
"a+b+b+a+b+b+g+5+5+c+c+h+5+a+b+a+b+b+a+b+a+a+",
"i+j+j+i+j+j+i+i+j+j+i+i+i+j+j+i+j+j+i+j+i+i+"};
