/* XPM */
static char * selected_xpm[] = {
"67 20 3 1",
" 	g None",
".	g #999999",
"+	g #A2A2A2",
"...................................................................",
"...................................................................",
"+++++++++++++++++++++++++++++++++++++++++++++++++++++++++++++++++++",
"+++++++++++++++++++++++++++++++++++++++++++++++++++++++++++++++++++",
"...................................................................",
"...................................................................",
"+++++++++++++++++++++++++++++++++++++++++++++++++++++++++++++++++++",
"+++++++++++++++++++++++++++++++++++++++++++++++++++++++++++++++++++",
"...................................................................",
"...................................................................",
"+++++++++++++++++++++++++++++++++++++++++++++++++++++++++++++++++++",
"+++++++++++++++++++++++++++++++++++++++++++++++++++++++++++++++++++",
"...................................................................",
"...................................................................",
"+++++++++++++++++++++++++++++++++++++++++++++++++++++++++++++++++++",
"+++++++++++++++++++++++++++++++++++++++++++++++++++++++++++++++++++",
"...................................................................",
"...................................................................",
"+++++++++++++++++++++++++++++++++++++++++++++++++++++++++++++++++++",
"+++++++++++++++++++++++++++++++++++++++++++++++++++++++++++++++++++"};
