/* XPM */
static char * stick_pressed2_xpm[] = {
"22 22 148 2",
"  	c None",
". 	c #FFFFFF",
"+ 	c #F0F0F0",
"@ 	c #EEEEEE",
"# 	c #E9E9E9",
"$ 	c #E5E5E5",
"% 	c #A4A4A3",
"& 	c #5D5D5C",
"* 	c #292929",
"= 	c #0F0F0F",
"- 	c #2C2C2C",
"; 	c #5D5D5D",
"> 	c #AEADAD",
", 	c #F1F1F1",
"' 	c #E6E6E6",
") 	c #696769",
"! 	c #545454",
"~ 	c #878787",
"{ 	c #A5A5A5",
"] 	c #B2B2B2",
"^ 	c #A9A9A9",
"/ 	c #8B8B8B",
"( 	c #474747",
"_ 	c #6B6D6E",
": 	c #F6F6F6",
"< 	c #747474",
"[ 	c #535353",
"} 	c #888888",
"| 	c #B8B8B8",
"1 	c #C2C2C2",
"2 	c #D0D0D0",
"3 	c #C5C5C5",
"4 	c #B4B4B4",
"5 	c #8E8E8E",
"6 	c #555555",
"7 	c #757576",
"8 	c #ECECEC",
"9 	c #9C9C9B",
"0 	c #3F3F3F",
"a 	c #5C5C5C",
"b 	c #969696",
"c 	c #B0B0B0",
"d 	c #AFAFAF",
"e 	c #989898",
"f 	c #595959",
"g 	c #454545",
"h 	c #959494",
"i 	c #DADADA",
"j 	c #4E4E4E",
"k 	c #5B5B5B",
"l 	c #7F7F7F",
"m 	c #8F8F8F",
"n 	c #929292",
"o 	c #9E9E9E",
"p 	c #979797",
"q 	c #838383",
"r 	c #626262",
"s 	c #DCDCDC",
"t 	c #DBDBDB",
"u 	c #7C7C7C",
"v 	c #8D8D8D",
"w 	c #9D9D9D",
"x 	c #A4A4A4",
"y 	c #9F9F9F",
"z 	c #939393",
"A 	c #727272",
"B 	c #4B4B4B",
"C 	c #D4D4D4",
"D 	c #FDFDFD",
"E 	c #CECECE",
"F 	c #ABABAB",
"G 	c #B1B1B1",
"H 	c #B3B3B3",
"I 	c #5E5E5E",
"J 	c #D2D2D2",
"K 	c #EFEFEF",
"L 	c #BABABA",
"M 	c #676767",
"N 	c #BCBCBC",
"O 	c #C0C0C0",
"P 	c #BBBBBB",
"Q 	c #AEAEAE",
"R 	c #ACACAC",
"S 	c #A0A0A0",
"T 	c #BFBFBF",
"U 	c #6D6D6D",
"V 	c #9C9C9C",
"W 	c #ADADAD",
"X 	c #C7C7C7",
"Y 	c #CBCBCB",
"Z 	c #CDCDCD",
"` 	c #C8C8C8",
" .	c #B5B5B5",
"..	c #999999",
"+.	c #767676",
"@.	c #EAEAEA",
"#.	c #C1C1C1",
"$.	c #D1D1D1",
"%.	c #D5D5D5",
"&.	c #C6C6C6",
"*.	c #959595",
"=.	c #7A7A7A",
"-.	c #F7F7F7",
";.	c #D9D9D9",
">.	c #D3D3D3",
",.	c #AAAAAA",
"'.	c #858585",
").	c #8C8C8C",
"!.	c #E8E8E8",
"~.	c #D7D7D7",
"{.	c #6B6B6B",
"].	c #868686",
"^.	c #B7B7B7",
"/.	c #8A8A8A",
"(.	c #D6D6D6",
"_.	c #DEDEDE",
":.	c #797A7A",
"<.	c #565656",
"[.	c #707070",
"}.	c #919191",
"|.	c #C3C3C3",
"1.	c #6E6E6E",
"2.	c #5A5A5A",
"3.	c #7E7F7E",
"4.	c #E0E0E0",
"5.	c #898B8B",
"6.	c #4D4D4D",
"7.	c #414141",
"8.	c #434343",
"9.	c #424242",
"0.	c #4A4A4A",
"a.	c #656565",
"b.	c #8A8A8B",
"c.	c #E3E3E3",
"d.	c #BDBDBD",
"e.	c #A2A3A7",
"f.	c #8E8E92",
"g.	c #7F8080",
"h.	c #8F9090",
"i.	c #A2A6A6",
"j.	c #D8D8D8",
"k.	c #A6A6A4",
"l.	c #A7A7A8",
"m.	c #C9C9C9",
"n.	c #CACACA",
"o.	c #CCCCCC",
"p.	c #757575",
"q.	c #6C6C6C",
". . . . . . . . . . . . . . . . . . . . . . ",
". . . . . . . . . . . . . . . . . . . . . . ",
"+ + + + + + + + @ @ @ @ @ + + + + + + + + + ",
"# # # # # # $ % & * = - ; > $ # # # # # # # ",
", , , , + ' ) ! ~ { ] ^ / ( _ ' + , , , , , ",
". . . . : < [ } | 1 2 3 4 5 6 7 : . . . . . ",
", , , 8 9 0 a b c 4 4 ] d e f g h 8 , , , , ",
"# # # i j k } l m e n o p q } r j s # # # # ",
"@ @ @ t g u ~ v w w x y z z q A B C @ @ @ @ ",
"D D D E f v } { F G H 4 F F m 5 I J D D D D ",
"K K K L M w { H 4 1 N O P Q R S r T K K K K ",
"' ' ' | U V W N X Y E Z ` O  ...+.c ' ' ' ' ",
"@.@.@.1 u p P #.$.%.$.%.$.X &.*.=.O @.@.@.@.",
"-.-.-.;.} ~ R Z >.J %.Z %.>.,.'.).i -.-.-.-.",
"!.!.!.~.o {.].^.$.%.%.%.%.O /.U 9 (.!.!.!.!.",
"_._._.C P :.<.[.}.c |.G /.1.2.3.L J _._._._.",
"4.4.4.s Z 4 5.r 6.7.8.9.0.a.b.H Y t 4.4.4.4.",
"@.@.@.@.c.J d.e.f.g.+.l h.i.d.J c.@.@.@.@.@.",
";.;.;.;.j.>.X L R k.{ l.c N m.>.j.;.;.;.;.;.",
"E E E E E E n.3 d.| | P O X Y E E E E E E E ",
"Y o.o.m.n.n.` X X 3 3 &.X m.n.m.n.n.Y o.o.Y ",
"+.p.p.U q.q.U U q.q.U U U q.q.U q.q.+.p.p.+."};
