/* XPM */
static char * stick_xpm[] = {
"22 22 145 2",
"  	c None",
". 	c #FFFFFF",
"+ 	c #F0F0F0",
"@ 	c #EEEEEE",
"# 	c #E9E9E9",
"$ 	c #E5E5E5",
"% 	c #A4A4A3",
"& 	c #5D5D5C",
"* 	c #292929",
"= 	c #0F0F0F",
"- 	c #2C2C2C",
"; 	c #5D5D5D",
"> 	c #AEADAD",
", 	c #F1F1F1",
"' 	c #E6E6E6",
") 	c #696769",
"! 	c #585858",
"~ 	c #9C9C9C",
"{ 	c #C5C5C5",
"] 	c #D7D7D7",
"^ 	c #CACACA",
"/ 	c #A0A0A0",
"( 	c #4B4B4B",
"_ 	c #6B6D6E",
": 	c #F6F6F6",
"< 	c #747474",
"[ 	c #5B5B5B",
"} 	c #A9A9A9",
"| 	c #DDDDDD",
"1 	c #E8E8E8",
"2 	c #F9F9F9",
"3 	c #ECECEC",
"4 	c #D9D9D9",
"5 	c #AFAFAF",
"6 	c #757576",
"7 	c #9C9C9B",
"8 	c #414141",
"9 	c #7B7B7B",
"0 	c #B9B9B9",
"a 	c #D4D4D4",
"b 	c #D3D3D3",
"c 	c #BBBBBB",
"d 	c #777777",
"e 	c #474747",
"f 	c #959494",
"g 	c #DADADA",
"h 	c #4E4E4E",
"i 	c #6C6C6C",
"j 	c #ABABAB",
"k 	c #A2A2A2",
"l 	c #B2B2B2",
"m 	c #B5B5B5",
"n 	c #C1C1C1",
"o 	c #BABABA",
"p 	c #A6A6A6",
"q 	c #737373",
"r 	c #DCDCDC",
"s 	c #DBDBDB",
"t 	c #454545",
"u 	c #999999",
"v 	c #AAAAAA",
"w 	c #B0B0B0",
"x 	c #C0C0C0",
"y 	c #C7C7C7",
"z 	c #C2C2C2",
"A 	c #B6B6B6",
"B 	c #8F8F8F",
"C 	c #FDFDFD",
"D 	c #CECECE",
"E 	c #595959",
"F 	c #C9C9C9",
"G 	c #CFCFCF",
"H 	c #D5D5D5",
"I 	c #D8D8D8",
"J 	c #B1B1B1",
"K 	c #5E5E5E",
"L 	c #D2D2D2",
"M 	c #EFEFEF",
"N 	c #676767",
"O 	c #E2E2E2",
"P 	c #E0E0E0",
"Q 	c #D0D0D0",
"R 	c #C3C3C3",
"S 	c #626262",
"T 	c #BFBFBF",
"U 	c #B8B8B8",
"V 	c #6D6D6D",
"W 	c #D1D1D1",
"X 	c #F3F3F3",
"Y 	c #F7F7F7",
"Z 	c #F5F5F5",
"` 	c #767676",
" .	c #EAEAEA",
"..	c #7C7C7C",
"+.	c #E7E7E7",
"@.	c #FBFBFB",
"#.	c #FAFAFA",
"$.	c #EDEDED",
"%.	c #A7A7A7",
"&.	c #7A7A7A",
"*.	c #888888",
"=.	c #898989",
"-.	c #CCCCCC",
";.	c #FCFCFC",
">.	c #878787",
",.	c #8C8C8C",
"'.	c #9E9E9E",
").	c #6B6B6B",
"!.	c #E4E4E4",
"~.	c #939393",
"{.	c #D6D6D6",
"].	c #DEDEDE",
"^.	c #797A7A",
"/.	c #565656",
"(.	c #9F9F9F",
"_.	c #727272",
":.	c #5A5A5A",
"<.	c #7E7F7E",
"[.	c #CDCDCD",
"}.	c #B4B4B4",
"|.	c #898B8B",
"1.	c #4D4D4D",
"2.	c #434343",
"3.	c #424242",
"4.	c #4A4A4A",
"5.	c #656565",
"6.	c #8A8A8B",
"7.	c #B3B3B3",
"8.	c #CBCBCB",
"9.	c #E3E3E3",
"0.	c #BDBDBD",
"a.	c #A2A3A7",
"b.	c #8E8E92",
"c.	c #7F8080",
"d.	c #7F7F7F",
"e.	c #8F9090",
"f.	c #A2A6A6",
"g.	c #ACACAC",
"h.	c #A6A6A4",
"i.	c #A5A5A5",
"j.	c #A7A7A8",
"k.	c #BCBCBC",
"l.	c #C8C8C8",
"m.	c #C6C6C6",
"n.	c #757575",
". . . . . . . . . . . . . . . . . . . . . . ",
". . . . . . . . . . . . . . . . . . . . . . ",
"+ + + + + + + + @ @ @ @ @ + + + + + + + + + ",
"# # # # # # $ % & * = - ; > $ # # # # # # # ",
", , , , + ' ) ! ~ { ] ^ / ( _ ' + , , , , , ",
". . . . : < [ } | 1 2 3 4 5 ; 6 : . . . . . ",
", , , 3 7 8 9 0 a 4 4 ] b c d e f 3 , , , , ",
"# # # g h i j k l c m n o p j q h r # # # # ",
"@ @ @ s t u v w x x y z A A p B ( a @ @ @ @ ",
"C C C D E w j F G H I 4 G G l J K L C C C C ",
"M M M o N x F I 4 # O ' P L Q R S T M M M M ",
"' ' ' U V 0 W O @ X Y Z M ' g A ` w ' ' ' ' ",
" . . .z ..} P +.@.. #.. #.@ $.%.&.x  . . . .",
"Y Y Y 4 *.=.-.: C ;.. : . C ^ >.,.g Y Y Y Y ",
"1 1 1 ] '.).B g @.. . . . !.~.V 7 {.1 1 1 1 ",
"].].].a c ^./.< p W  .L (._.:.<.o L ].].].].",
"P P P r [.}.|.S 1.8 2.3.4.5.6.7.8.s P P P P ",
" . . . .9.L 0.a.b.c.` d.e.f.0.L 9. . . . . .",
"4 4 4 4 I b y o g.h.i.j.w k.F b I 4 4 4 4 4 ",
"D D D D D D ^ { 0.U U c x y 8.D D D D D D D ",
"8.-.-.F ^ ^ l.y y { { m.y F ^ F ^ ^ 8.-.-.8.",
"` n.n.V i i V V i i V V V i i V i i ` n.n.` "};
