/* XPM */
static char * stuck_unfocused2_xpm[] = {
"22 22 103 2",
"  	c None",
". 	c #ADADAD",
"+ 	c #A5A5A5",
"@ 	c #A9A9A9",
"# 	c #AAAAAA",
"$ 	c #A8A8A8",
"% 	c #959595",
"& 	c #737373",
"* 	c #414141",
"= 	c #242424",
"- 	c #717171",
"; 	c #9E9E9E",
"> 	c #A7A7A7",
", 	c #A2A2A2",
"' 	c #807F80",
") 	c #5E5E5E",
"! 	c #7F7F7F",
"~ 	c #9A9A9A",
"{ 	c #838383",
"] 	c #555555",
"^ 	c #808181",
"/ 	c #A4A4A4",
"( 	c #AFAFAF",
"_ 	c #ACACAC",
": 	c #8A8A8A",
"< 	c #5B5B5B",
"[ 	c #7B7B7B",
"} 	c #B9B9B9",
"| 	c #C6C6C6",
"1 	c #BBBBBB",
"2 	c #808080",
"3 	c #5D5D5D",
"4 	c #8E8E8E",
"5 	c #AEAEAE",
"6 	c #A6A6A6",
"7 	c #979797",
"8 	c #4D4D4D",
"9 	c #535353",
"0 	c #888888",
"a 	c #515151",
"b 	c #9B9A9A",
"c 	c #A3A3A3",
"d 	c #6D6D6D",
"e 	c #5C5C5C",
"f 	c #777777",
"g 	c #707070",
"h 	c #818181",
"i 	c #909090",
"j 	c #898989",
"k 	c #747474",
"l 	c #616161",
"m 	c #6F6F6F",
"n 	c #797979",
"o 	c #7E7E7E",
"p 	c #8F8F8F",
"q 	c #969696",
"r 	c #929292",
"s 	c #858585",
"t 	c #676767",
"u 	c #606060",
"v 	c #656565",
"w 	c #9F9F9F",
"x 	c #A0A0A0",
"y 	c #828282",
"z 	c #696969",
"A 	c #999999",
"B 	c #B7B7B7",
"C 	c #B2B2B2",
"D 	c #B5B5B5",
"E 	c #A1A1A1",
"F 	c #939393",
"G 	c #6C6C6C",
"H 	c #9D9D9D",
"I 	c #7A7A7A",
"J 	c #B0B0B0",
"K 	c #BABABA",
"L 	c #BFBFBF",
"M 	c #C2C2C2",
"N 	c #C0C0C0",
"O 	c #BCBCBC",
"P 	c #B4B4B4",
"Q 	c #8C8C8C",
"R 	c #B6B6B6",
"S 	c #C8C8C8",
"T 	c #C5C5C5",
"U 	c #C9C9C9",
"V 	c #8D8D8D",
"W 	c #ABABAB",
"X 	c #C1C1C1",
"Y 	c #C3C3C3",
"Z 	c #CACACA",
"` 	c #989898",
" .	c #868686",
"..	c #949494",
"+.	c #757575",
"@.	c #878787",
"#.	c #727272",
"$.	c #9C9C9C",
"%.	c #545454",
"&.	c #505050",
"*.	c #848484",
"=.	c #9B9B9B",
"-.	c #919191",
". . . . . . . . . . . . . . . . . . . . . . ",
". . . . . . . . . . . . . . . . . . . . . . ",
"+ + + + + + + @ # @ # # @ $ + + + + + + + + ",
"+ + + + + + + % & * = * - ; > + + + + + + + ",
"> > > > > , ' ) ! ~ > ; { ] ^ / > > > > > > ",
"( ( ( ( _ : < [ . } | 1 # 2 3 4 5 ( ( ( ( ( ",
"6 6 6 > 7 8 9 0 / @ $ > / : a a b > 6 6 6 6 ",
"c c c + d e f g h : { i j k f l d 6 c c c c ",
"6 6 6 + < m n o p p q r s s k t u @ 6 6 6 6 ",
"( ( ( 6 v ! [ ~ w + $ @ x w y 2 z # ( ( ( ( ",
"/ / / / - p A > @ B C D ( E x F G + / / / / ",
"/ / / H I 4 E J K L M N O P @ Q ! w / / / / ",
"/ / / ; j i J R | S T U | O K V : / / / / / ",
"W W W $ q : E X S S U Y Z S w 0 ` # W W W W ",
", , , c ~ h  ._ | U S S S D j { .., , , , , ",
"x x x x ; r +.k @./ B + h #.+...$.x x x x x ",
", , , , , $...! z %.&.%.t *.p ; , , , , , , ",
"W W W W W W 6 w =.% -.r A E @ W W W W W W W ",
"H H H H H H H ; ; $.=.$.; ; H H H H H H H H ",
"H H H H H H H H H H H H H H H H H H H H H H ",
"; ; ; ; ; ; ; ; ; ; ; ; ; ; ; ; ; ; ; ; ; ; ",
"- - - - - - - - - - - - - - - - - - - - - - "};
