/* XPM */
static char * stuck_xpm[] = {
"22 22 149 2",
"  	c None",
". 	c #FFFFFF",
"+ 	c #F0F0F0",
"@ 	c #EEEEEE",
"# 	c #E9E9E9",
"$ 	c #E5E5E5",
"% 	c #A4A4A3",
"& 	c #5D5D5C",
"* 	c #292929",
"= 	c #0F0F0F",
"- 	c #2C2C2C",
"; 	c #5D5D5D",
"> 	c #AEADAD",
", 	c #F1F1F1",
"' 	c #E6E6E6",
") 	c #696769",
"! 	c #585858",
"~ 	c #9C9C9C",
"{ 	c #C5C5C5",
"] 	c #D7D7D7",
"^ 	c #CACACA",
"/ 	c #A0A0A0",
"( 	c #4B4B4B",
"_ 	c #6B6D6E",
": 	c #F6F6F6",
"< 	c #747474",
"[ 	c #5B5B5B",
"} 	c #A9A9A9",
"| 	c #DDDDDD",
"1 	c #E8E8E8",
"2 	c #F9F9F9",
"3 	c #ECECEC",
"4 	c #D9D9D9",
"5 	c #AFAFAF",
"6 	c #757576",
"7 	c #9C9C9B",
"8 	c #414141",
"9 	c #7B7B7B",
"0 	c #B9B9B9",
"a 	c #D4D4D4",
"b 	c #D3D3D3",
"c 	c #BBBBBB",
"d 	c #777777",
"e 	c #474747",
"f 	c #959494",
"g 	c #DADADA",
"h 	c #4E4E4E",
"i 	c #6C6C6C",
"j 	c #ABABAB",
"k 	c #A2A2A2",
"l 	c #A7A7A7",
"m 	c #838383",
"n 	c #6E6E6E",
"o 	c #868686",
"p 	c #AEAEAE",
"q 	c #A6A6A6",
"r 	c #737373",
"s 	c #DCDCDC",
"t 	c #DBDBDB",
"u 	c #454545",
"v 	c #999999",
"w 	c #AAAAAA",
"x 	c #757575",
"y 	c #797979",
"z 	c #767676",
"A 	c #6F6F6F",
"B 	c #ADADAD",
"C 	c #8F8F8F",
"D 	c #FDFDFD",
"E 	c #CECECE",
"F 	c #595959",
"G 	c #B0B0B0",
"H 	c #909090",
"I 	c #7E7E7E",
"J 	c #818181",
"K 	c #848484",
"L 	c #939393",
"M 	c #B2B2B2",
"N 	c #B1B1B1",
"O 	c #5E5E5E",
"P 	c #D2D2D2",
"Q 	c #EFEFEF",
"R 	c #BABABA",
"S 	c #676767",
"T 	c #C0C0C0",
"U 	c #C9C9C9",
"V 	c #8E8E8E",
"W 	c #898989",
"X 	c #8C8C8C",
"Y 	c #888888",
"Z 	c #808080",
"` 	c #D0D0D0",
" .	c #C3C3C3",
"..	c #626262",
"+.	c #BFBFBF",
"@.	c #B8B8B8",
"#.	c #6D6D6D",
"$.	c #D1D1D1",
"%.	c #B6B6B6",
"&.	c #EAEAEA",
"*.	c #C2C2C2",
"=.	c #7C7C7C",
"-.	c #E0E0E0",
";.	c #9F9F9F",
">.	c #EDEDED",
",.	c #7A7A7A",
"'.	c #F7F7F7",
").	c #CCCCCC",
"!.	c #E4E4E4",
"~.	c #EBEBEB",
"{.	c #878787",
"].	c #9E9E9E",
"^.	c #6B6B6B",
"/.	c #E3E3E3",
"(.	c #9D9D9D",
"_.	c #D6D6D6",
":.	c #DEDEDE",
"<.	c #797A7A",
"[.	c #565656",
"}.	c #727272",
"|.	c #5A5A5A",
"1.	c #7E7F7E",
"2.	c #CDCDCD",
"3.	c #B4B4B4",
"4.	c #898B8B",
"5.	c #4D4D4D",
"6.	c #434343",
"7.	c #424242",
"8.	c #4A4A4A",
"9.	c #656565",
"0.	c #8A8A8B",
"a.	c #B3B3B3",
"b.	c #CBCBCB",
"c.	c #BDBDBD",
"d.	c #A2A3A7",
"e.	c #8E8E92",
"f.	c #7F8080",
"g.	c #7F7F7F",
"h.	c #8F9090",
"i.	c #A2A6A6",
"j.	c #D8D8D8",
"k.	c #C7C7C7",
"l.	c #ACACAC",
"m.	c #A6A6A4",
"n.	c #A5A5A5",
"o.	c #A7A7A8",
"p.	c #BCBCBC",
"q.	c #C8C8C8",
"r.	c #C6C6C6",
". . . . . . . . . . . . . . . . . . . . . . ",
". . . . . . . . . . . . . . . . . . . . . . ",
"+ + + + + + + + @ @ @ @ @ + + + + + + + + + ",
"# # # # # # $ % & * = - ; > $ # # # # # # # ",
", , , , + ' ) ! ~ { ] ^ / ( _ ' + , , , , , ",
". . . . : < [ } | 1 2 3 4 5 ; 6 : . . . . . ",
", , , 3 7 8 9 0 a 4 4 ] b c d e f 3 , , , , ",
"# # # g h i j k l m n o p q j r h s # # # # ",
"@ @ @ t u v w } x x y z A B q C ( a @ @ @ @ ",
"D D D E F G j H I J m K I L M N O P D D D D ",
"Q Q Q R S T U m K V W X Y Z `  ...+.Q Q Q Q ",
"' ' ' @.#.0 $.o Y X W V K W g %.z G ' ' ' ' ",
"&.&.&.*.=.} -.~ I K m J I ;.>.l ,.T &.&.&.&.",
"'.'.'.4 Y W ).!.A z y x x ~.^ {.X g '.'.'.'.",
"1 1 1 ] ].^.C g /.].n (.' !.L #.7 _.1 1 1 1 ",
":.:.:.a c <.[.< q $.&.P ;.}.|.1.R P :.:.:.:.",
"-.-.-.s 2.3.4...5.8 6.7.8.9.0.a.b.t -.-.-.-.",
"&.&.&.&./.P c.d.e.f.z g.h.i.c.P /.&.&.&.&.&.",
"4 4 4 4 j.b k.R l.m.n.o.G p.U b j.4 4 4 4 4 ",
"E E E E E E ^ { c.@.@.c T k.b.E E E E E E E ",
"b.).).U ^ ^ q.k.k.{ { r.k.U ^ U ^ ^ b.).).b.",
"z x x #.i i #.#.i i #.#.#.i i #.i i z x x z "};
