/* XPM */
static char * stuck_unfocused_xpm[] = {
"22 22 73 1",
" 	c None",
".	c #ADADAD",
"+	c #A5A5A5",
"@	c #A9A9A9",
"#	c #AAAAAA",
"$	c #A8A8A8",
"%	c #929292",
"&	c #8D8D8D",
"*	c #848484",
"=	c #7C7C7C",
"-	c #7D7D7D",
";	c #888888",
">	c #9B9B9B",
",	c #A7A7A7",
"'	c #A2A2A2",
")	c #919191",
"!	c #979797",
"~	c #A6A6A6",
"{	c #B6B6B6",
"]	c #BBBBBB",
"^	c #B4B4B4",
"/	c #999999",
"(	c #8F8F8F",
"_	c #A4A4A4",
":	c #AFAFAF",
"<	c #ACACAC",
"[	c #BEBEBE",
"}	c #CBCBCB",
"|	c #CCCCCC",
"1	c #C8C8C8",
"2	c #C0C0C0",
"3	c #AEAEAE",
"4	c #9C9C9C",
"5	c #9E9E9E",
"6	c #8E8E8E",
"7	c #A0A0A0",
"8	c #B2B2B2",
"9	c #B9B9B9",
"0	c #B8B8B8",
"a	c #BDBDBD",
"b	c #B3B3B3",
"c	c #898989",
"d	c #A3A3A3",
"e	c #878787",
"f	c #9D9D9D",
"g	c #ABABAB",
"h	c #6E6E6E",
"i	c #868686",
"j	c #757575",
"k	c #797979",
"l	c #767676",
"m	c #6F6F6F",
"n	c #949494",
"o	c #939393",
"p	c #7E7E7E",
"q	c #818181",
"r	c #838383",
"s	c #B7B7B7",
"t	c #959595",
"u	c #B0B0B0",
"v	c #8C8C8C",
"w	c #808080",
"x	c #B5B5B5",
"y	c #B1B1B1",
"z	c #9F9F9F",
"A	c #9A9A9A",
"B	c #BFBFBF",
"C	c #C1C1C1",
"D	c #A1A1A1",
"E	c #909090",
"F	c #8B8B8B",
"G	c #BABABA",
"H	c #717171",
"......................",
"......................",
"+++++++@#@##@$++++++++",
"+++++++%&*=-;>,+++++++",
",,,,,')!~{]^$/(_,,,,,,",
"::::</!:[}|123453:::::",
"~~~,!6789]{0ab'c4,~~~~",
"ddd+ef+<g*hig#d>;~dddd",
"~~~+c+:.jjklm33_&@~~~~",
":::~n:{opqr*pns:t#::::",
"____/ubr*6cv;wxyt+____",
"___ftg{w;vc6*r{<nz____",
"___5t@2/p*rqpAB@/_____",
"ggg$/z9[mlkjjC0D>#gggg",
"'''dA(d9[Eh&B{'%n'''''",
"77775%FtdbG^_ocn477777",
"'''''4ne;c;e;v(5''''''",
"gggggg~z>t)%/D@ggggggg",
"fffffff554>455ffffffff",
"ffffffffffffffffffffff",
"5555555555555555555555",
"HHHHHHHHHHHHHHHHHHHHHH"};
