/* XPM */
static char * bar_xpm[] = {
"32 18 32 1",
" 	c None",
".	c #3E3C3A",
"+	c #343230",
"@	c #514F4D",
"#	c #474645",
"$	c #464544",
"%	c #474545",
"&	c #464545",
"*	c #474544",
"=	c #464443",
"-	c #454443",
";	c #454342",
">	c #444241",
",	c #444342",
"'	c #444341",
")	c #434241",
"!	c #434240",
"~	c #424140",
"{	c #43413F",
"]	c #43423F",
"^	c #42413E",
"/	c #42403F",
"(	c #41403E",
"_	c #42403D",
":	c #413F3E",
"<	c #413F3D",
"[	c #403D3C",
"}	c #403E3C",
"|	c #403D3B",
"1	c #3F3E3B",
"2	c #3F3D3B",
"3	c #393735",
"................................",
"++++++++++++++++++++++++++++++++",
"@@@@@@@@@@@@@@@@@@@@@@@@@@@@@@@@",
"################################",
"$$$$%%%%%%%%%%%&&&&&&&&&&&&&&&&&",
"$$$$$$$$$$$$$$$*****************",
"===============-----------======",
"---------------;;;;;;;;;;;;;;;;;",
">>>>,,,,,,,,,,,'''''''''''''''''",
")))))))))))))))>>>>>>>>>>>!!!!!!",
"~~~~{{{{{{{{{{{{{{{{{{{{{{]]]]]]",
"^^^^///////////(((((((((((((((((",
"((((___________:::::::::::<<<<<<",
"[[[[}}}}}}}}}}}|||||||||||111111",
"22222222222222222222222222222222",
"@@@@@@@@@@@@@@@@@@@@@@@@@@@@@@@@",
"++++++++++++++++++++++++++++++++",
"33333333333333333333333333333333"};
