/* XPM */
static char * button_pressed_xpm[] = {
"18 18 49 1",
" 	c None",
".	c #3E3C3A",
"+	c #343230",
"@	c #514F4D",
"#	c #474645",
"$	c #474545",
"%	c #54595A",
"&	c #74858A",
"*	c #7F959B",
"=	c #464545",
"-	c #464544",
";	c #657174",
">	c #859CA4",
",	c #474544",
"'	c #464443",
")	c #849BA3",
"!	c #859CA3",
"~	c #7F949B",
"{	c #7B8F95",
"]	c #535959",
"^	c #454443",
"/	c #788B90",
"(	c #7A8D93",
"_	c #78898F",
":	c #454342",
"<	c #444342",
"[	c #82989F",
"}	c #7B8E94",
"|	c #99B7C1",
"1	c #444341",
"2	c #434241",
"3	c #8399A0",
"4	c #444241",
"5	c #434240",
"6	c #43413F",
"7	c #7F949A",
"8	c #43423F",
"9	c #42403F",
"0	c #7B8E95",
"a	c #41403E",
"b	c #42403D",
"c	c #413F3E",
"d	c #413F3D",
"e	c #403E3C",
"f	c #80959C",
"g	c #403D3B",
"h	c #3F3E3B",
"i	c #3F3D3B",
"j	c #393735",
"..................",
"++++++++++++++++++",
"@@@@@@@@@@@@@@@@@@",
"##################",
"$$$$$$%&**&%======",
"-----;>>>>>>;,,,,,",
"''''%)!~{{~!)]^^''",
"^^^^/>~((((~>_::::",
"<<<<[>}(||(}>[1111",
"2222[>}(||(}>34455",
"6666/>~((((7>_6688",
"9999%)!7007!)]aaaa",
"bbbbb;>>>>>>;cccdd",
"eeeeee%&ff&%gggghh",
"iiiiiiiiiiiiiiiiii",
"@@@@@@@@@@@@@@@@@@",
"++++++++++++++++++",
"jjjjjjjjjjjjjjjjjj"};
