/* XPM */
static char * close_xpm[] = {
"18 18 46 1",
" 	c None",
".	c #3E3C3A",
"+	c #343230",
"@	c #514F4D",
"#	c #474645",
"$	c #464545",
"%	c #555B5C",
"&	c #5B6465",
"*	c #474545",
"=	c #474544",
"-	c #4D5151",
";	c #5F686B",
">	c #464544",
",	c #464443",
"'	c #454443",
")	c #5E686A",
"!	c #5E676A",
"~	c #4E5152",
"{	c #41413F",
"]	c #454342",
"^	c #575D5F",
"/	c #4E5151",
"(	c #575E5F",
"_	c #444341",
":	c #5D6668",
"<	c #41403E",
"[	c #99B7C1",
"}	c #444342",
"|	c #434240",
"1	c #444241",
"2	c #5D6669",
"3	c #434241",
"4	c #43423F",
"5	c #43413F",
"6	c #4D5050",
"7	c #41403F",
"8	c #42403F",
"9	c #413F3D",
"0	c #413F3E",
"a	c #42403D",
"b	c #3F3E3B",
"c	c #403D3B",
"d	c #5C6466",
"e	c #403E3C",
"f	c #3F3D3B",
"g	c #393735",
"..................",
"+++++++++++++++++.",
"@@@@@@@@@@@@@@@@+.",
"###############@+.",
"$$$$$$$%&&%$***@+.",
"=====-;;;;;;->>@+.",
",,''')!~{{~!),,@+.",
"]]]]^;/]]]]/;('@+.",
"____:;<_[[_<;:}@+.",
"||112;<1[[1<;:3@+.",
"4455^;65555/;(5@+.",
"<<<<<)!6776!)88@+.",
"99000-;;;;;;-aa@+.",
"bbccccc%dd%ceee@+.",
"fffffffffffffff@+.",
"@@@@@@@@@@@@@@@@+.",
"+++++++++++++++++.",
"gggggggggggggggg.."};
