/* XPM */
static char * close_pressed_xpm[] = {
"18 18 49 1",
" 	c None",
".	c #3E3C3A",
"+	c #343230",
"@	c #514F4D",
"#	c #474645",
"$	c #464545",
"%	c #54595A",
"&	c #74858A",
"*	c #7F959B",
"=	c #474545",
"-	c #474544",
";	c #657174",
">	c #859CA4",
",	c #464544",
"'	c #464443",
")	c #454443",
"!	c #535959",
"~	c #849BA3",
"{	c #859CA3",
"]	c #7F949B",
"^	c #7B8F95",
"/	c #454342",
"(	c #78898F",
"_	c #7A8D93",
":	c #788B90",
"<	c #444341",
"[	c #82989F",
"}	c #7B8E94",
"|	c #99B7C1",
"1	c #444342",
"2	c #434240",
"3	c #444241",
"4	c #8399A0",
"5	c #434241",
"6	c #43423F",
"7	c #43413F",
"8	c #7F949A",
"9	c #41403E",
"0	c #7B8E95",
"a	c #42403F",
"b	c #413F3D",
"c	c #413F3E",
"d	c #42403D",
"e	c #3F3E3B",
"f	c #403D3B",
"g	c #80959C",
"h	c #403E3C",
"i	c #3F3D3B",
"j	c #393735",
"..................",
"+++++++++++++++++.",
"@@@@@@@@@@@@@@@@+.",
"###############@+.",
"$$$$$$%&**&%===@+.",
"-----;>>>>>>;,,@+.",
"''))!~{]^^]{~%'@+.",
"////(>]____]>:)@+.",
"<<<<[>}_||_}>[1@+.",
"22334>}_||_}>[5@+.",
"6677(>8____]>:7@+.",
"9999!~{8008{~%a@+.",
"bbccc;>>>>>>;dd@+.",
"eeffff%&gg&%hhh@+.",
"iiiiiiiiiiiiiii@+.",
"@@@@@@@@@@@@@@@@+.",
"+++++++++++++++++.",
"jjjjjjjjjjjjjjjj.."};
