/* XPM */
static char * stuck_xpm[] = {
"18 18 72 1",
" 	c None",
".	c #3E3C3A",
"+	c #343230",
"@	c #514F4D",
"#	c #474645",
"$	c #383736",
"%	c #2D2C2C",
"&	c #272626",
"*	c #282727",
"=	c #474545",
"-	c #434141",
";	c #262626",
">	c #2E3132",
",	c #313636",
"'	c #2C2C2C",
")	c #424141",
"!	c #464545",
"~	c #464544",
"{	c #2C2C2B",
"]	c #2A2C2C",
"^	c #33383A",
"/	c #2D2C2B",
"(	c #474544",
"_	c #464443",
":	c #373535",
"<	c #262525",
"[	c #333839",
"}	c #333739",
"|	c #2A2C2D",
"1	c #242423",
"2	c #363535",
"3	c #454443",
"4	c #2C2B2B",
"5	c #2F3333",
"6	c #262524",
"7	c #2F3233",
"8	c #2C2B2A",
"9	c #454342",
"0	c #444342",
"a	c #262625",
"b	c #323738",
"c	c #242322",
"d	c #252524",
"e	c #516166",
"f	c #444341",
"g	c #434241",
"h	c #252424",
"i	c #434240",
"j	c #43413F",
"k	c #2B2A28",
"l	c #252423",
"m	c #2A2B2B",
"n	c #43423F",
"o	c #42403F",
"p	c #333231",
"q	c #242323",
"r	c #41403E",
"s	c #42403D",
"t	c #413F3E",
"u	c #2A2827",
"v	c #413F3D",
"w	c #403E3C",
"x	c #403D3B",
"y	c #3C3937",
"z	c #292726",
"A	c #232221",
"B	c #323637",
"C	c #3F3E3B",
"D	c #3F3D3B",
"E	c #32302F",
"F	c #282726",
"G	c #393735",
"..................",
".+++++++++++++++++",
".+@@@@@@@@@@@@@@@@",
".+@####$%&*%$#####",
".+@==-%;>,,>;')!!!",
".+@~~{]^^^^^^]/(((",
".+@_:<[}|11|}[<2__",
".+@345^]6666]^7899",
".+@0ab^cdeedc^baff",
".+@g<b^cheehc^b<ii",
".+@jk5^]llllm^7knn",
".+@opq[}mqqm}[cprr",
".+@stu]^^^^^^]utvv",
".+@wxyzA>BB>AzyxCC",
".+@DDDDEFAcFEDDDDD",
".+@@@@@@@@@@@@@@@@",
".+++++++++++++++++",
"..GGGGGGGGGGGGGGGG"};
