/* XPM */
static char * toolbar_xpm[] = {
"59 17 34 1",
" 	c #343230",
".	c #4F4F4F",
"+	c #474645",
"@	c #464544",
"#	c #474544",
"$	c #464644",
"%	c #474644",
"&	c #464543",
"*	c #454543",
"=	c #464443",
"-	c #454443",
";	c #444342",
">	c #454342",
",	c #444442",
"'	c #434341",
")	c #444241",
"!	c #444341",
"~	c #434240",
"{	c #434140",
"]	c #42413F",
"^	c #42403F",
"/	c #43413F",
"(	c #413F3E",
"_	c #41403E",
":	c #42403D",
"<	c #42403E",
"[	c #413F3D",
"}	c #403F3D",
"|	c #403E3C",
"1	c #3F3D3C",
"2	c #403E3B",
"3	c #3F3E3B",
"4	c #3F3E3C",
"5	c #3F3D3B",
"                                                           ",
"...........................................................",
"                                                           ",
"+++++++++++++++++++++++++++++++++++++++++++++++++++++++++++",
"+++++++++++++++++++++++++++++++++++++++++++++++++++++++++++",
"@@@@@###########@@@@@@@@@@@$$$$$$$$$$$$$$$$$$$$$$%%%%%%%%%%",
"@@@@@@@@@@@@@@@@&&&&&&&&&&&@@@@@@@@@@@@@@@@@@@@@@@@@@@@@@@@",
"&&&&&**********************======================----------",
";;;;;;;;;;;;;;;;;;;;;;;;;;;>>>>>>>>>>>;;;;;;;;;;;,,,,,,,,,,",
"'''''''''''''''')))))))))))!!!!!!!!!!!)))))))))))!!!!!!!!!!",
"~~~~~{{{{{{{{{{{~~~~~~~~~~~~~~~~~~~~~~{{{{{{{{{{{{{{{{{{{{{",
"]]]]]^^^^^^^^^^^]]]]]]]]]]]]]]]]]]]]]]]]]]]]]]]]]//////////",
"(((((___________:::::::::::___________<<<<<<<<<<<__________",
"[[[[[[[[[[[[[[[[[[[[[[[[[[[[[[[[[[[[[[[[[[[[[[[[[}}}}}}}}}}",
"|||||||||||||||||||||||||||||||||||||||||||||||||||||||||||",
"11111222222222223333333333344444444444222222222223333333333",
"55555555555555555555555555555555555555555555555555555555555"};
