/* XPM */
static char * menu_selected_xpm[] = {
"1 20 19 1",
" 	c None",
".	c #777777",
"+	c #979797",
"@	c #949494",
"#	c #919191",
"$	c #8C8C8C",
"%	c #8A8A8A",
"&	c #878787",
"*	c #848484",
"=	c #7F7F7F",
"-	c #7D7D7D",
";	c #7A7A7A",
">	c #737373",
",	c #707070",
"'	c #6D6D6D",
")	c #6C6C6C",
"!	c #696969",
"~	c #676767",
"{	c #666666",
".",
"+",
"@",
"#",
"#",
"$",
"%",
"&",
"*",
"=",
"-",
";",
".",
">",
",",
"'",
")",
"!",
"~",
"{"};
