/* XPM */
static char * close_pressed_xpm[] = {
"19 19 24 1",
" 	c None",
".	c #B0B0B0",
"+	c #E7E7E7",
"@	c #FCFCFC",
"#	c #8D8D8D",
"$	c #959595",
"%	c #FFFFFF",
"&	c #FDFDFD",
"*	c #F9F9F9",
"=	c #F8F8F8",
"-	c #5B5B5B",
";	c #777777",
">	c #767676",
",	c #2B2B2B",
"'	c #787878",
")	c #FBFBFB",
"!	c #414141",
"~	c #626262",
"{	c #FAFAFA",
"]	c #F6F6F6",
"^	c #646464",
"/	c #757575",
"(	c #F2F2F2",
"_	c #F5F5F5",
"...................",
"+++++++++++++++++++",
"@@@@@@@@@@@@@@@@@@+",
"@#$$$$$$$$$#%@@@@@+",
"&$*==@@@==*$%&&&&&+",
"@$=-;=*=;-=$%@@@@@+",
"@$=>,'=',>=$%@@@@@+",
"@$)='!~!'=)$%@@@@@+",
")${]=~^~=]{$%)))))+",
")$*=;!~!;=*$%)))))+",
"{$=>,;=;,>=$%{{{{{+",
"{$=-/=(=/-=$%{{{{{+",
"{$_=======_$%{{{{{+",
"*#$$$$$$$$$#%*****+",
"*%%%%%%%%%%%%*****+",
"******************+",
"******************+",
"******************+",
"+++++++++++++++++++"};
