/* XPM */
static char * close_focus_xpm[] = {
"19 19 19 1",
" 	c None",
".	c #B0B0B0",
"+	c #E7E7E7",
"@	c #FCFCFC",
"#	c #8C8C8C",
"$	c #FDFDFD",
"%	c #616161",
"&	c #F9F9F9",
"*	c #000000",
"=	c #F8F8F8",
"-	c #F7F7F7",
";	c #FBFBFB",
">	c #F6F6F6",
",	c #646464",
"'	c #F5F5F5",
")	c #FAFAFA",
"!	c #F4F4F4",
"~	c #F3F3F3",
"{	c #F2F2F2",
"...................",
"+++++++++++++++++++",
"@@@@@@@@@@@@@@@@@@+",
"@############@@@@@+",
"$#$$$$$$$$$$#$$$$$+",
"@#@%%&&&&%%@#@@@@@+",
"@#@%*%==%*%@#@@@@@+",
"@#@-%*%%*%-@#@@@@@+",
";#;>>%,,%>>;#;;;;;+",
";#;''%,,%'';#;;;;;+",
")#)!%*%%*%!)#)))))+",
")#)%*%~~%*%)#)))))+",
")#)%%{{{{%%)#)))))+",
"&#&&&&&&&&&&#&&&&&+",
"&############&&&&&+",
"&&&&&&&&&&&&&&&&&&+",
"&&&&&&&&&&&&&&&&&&+",
"&&&&&&&&&&&&&&&&&&+",
"+++++++++++++++++++"};
