/* XPM */
static char * close_unfocus_xpm[] = {
"19 19 13 1",
" 	c None",
".	c #BABABA",
"+	c #FCFCFC",
"@	c #EBEBEB",
"#	c #FDFDFD",
"$	c #A1A1A1",
"%	c #FBFBFB",
"&	c #686868",
"*	c #FAFAFA",
"=	c #F9F9F9",
"-	c #A3A3A3",
";	c #F8F8F8",
">	c #F7F7F7",
"...................",
"++++++++++++++++++@",
"++++++++++++++++++@",
"+............+++++@",
"#.##########.#####@",
"+.#$$%%%%$$#.+++++@",
"+.#$&$**$&$#.+++++@",
"+.#*$&$$&$*#.+++++@",
"%.+==$--$==+.%%%%%@",
"%.+==$--$==+.%%%%%@",
"*.+;$&$$&$;+.*****@",
"*.+$&$>>$&$+.*****@",
"*.+$$>>>>$$+.*****@",
"=.%%%%%%%%%%.=====@",
"=............=====@",
"==================@",
"==================@",
"==================@",
"@@@@@@@@@@@@@@@@@@@"};
