/* XPM */
static char * max_pressed_xpm[] = {
"19 19 15 1",
" 	c None",
".	c #B0B0B0",
"+	c #E7E7E7",
"@	c #FCFCFC",
"#	c #8D8D8D",
"$	c #959595",
"%	c #FFFFFF",
"&	c #FDFDFD",
"*	c #FBFBFB",
"=	c #BBBBBB",
"-	c #E0E0E0",
";	c #545454",
">	c #FAFAFA",
",	c #535353",
"'	c #F9F9F9",
"...................",
"+++++++++++++++++++",
"@@@@@@@@@@@@@@@@@@@",
"@#$$$$$$$$$#%@@@@@@",
"&$*********$%&&&&&&",
"@$*=======*$%@@@@@@",
"@$-;;;;;;;-$%@@@@@@",
"@$-;@@@@@;-$%@@@@@@",
"*$-;*****;-$%******",
"*$-;>>>>>;-$%******",
">$-;,,,,,;-$%>>>>>>",
">$*=======*$%>>>>>>",
">$'''''''''$%>>>>>>",
"'#$$$$$$$$$#%''''''",
"'%%%%%%%%%%%%''''''",
"'''''''''''''''''''",
"'''''''''''''''''''",
"'''''''''''''''''''",
"+++++++++++++++++++"};
