/* XPM */
static char * max_unfocus_xpm[] = {
"19 19 10 1",
" 	c None",
".	c #BABABA",
"+	c #FCFCFC",
"@	c #FDFDFD",
"#	c #D0D0D0",
"$	c #686868",
"%	c #FBFBFB",
"&	c #FAFAFA",
"*	c #F9F9F9",
"=	c #EBEBEB",
"...................",
"+++++++++++++++++++",
"+++++++++++++++++++",
"+............++++++",
"@.@@@@@@@@@@.@@@@@@",
"+.@########@.++++++",
"+.@$$$$$$$$@.++++++",
"+.@$@@@@@@$@.++++++",
"%.+$++++++$+.%%%%%%",
"%.+$++++++$+.%%%%%%",
"&.+$++++++$+.&&&&&&",
"&.+$$$$$$$$+.&&&&&&",
"&.+########+.&&&&&&",
"*.%%%%%%%%%%.******",
"*............******",
"*******************",
"*******************",
"*******************",
"==================="};
