/* XPM */
static char * min_pressed_xpm[] = {
"19 19 14 1",
" 	c None",
".	c #B0B0B0",
"+	c #E7E7E7",
"@	c #FCFCFC",
"#	c #8D8D8D",
"$	c #959595",
"%	c #FFFFFF",
"&	c #FDFDFD",
"*	c #FBFBFB",
"=	c #FAFAFA",
"-	c #F9F9F9",
";	c #535353",
">	c #494949",
",	c #F5F5F5",
"...................",
"+++++++++++++++++++",
"@@@@@@@@@@@@@@@@@@@",
"@#$$$$$$$$$#%@@@@@@",
"&$&&&&&&&&&$%&&&&&&",
"@$@@@@@@@@@$%@@@@@@",
"@$@@@@@@@@@$%@@@@@@",
"@$@@@@@@@@@$%@@@@@@",
"*$*********$%******",
"*$=========$%******",
"=$-;;;;;;-=$%======",
"=$->>>>>>-=$%======",
"=$,--------$%======",
"-#$$$$$$$$$#%------",
"-%%%%%%%%%%%%------",
"-------------------",
"-------------------",
"-------------------",
"+++++++++++++++++++"};
