/* XPM */
static char * min_focus_xpm[] = {
"19 19 11 1",
" 	c None",
".	c #B0B0B0",
"+	c #E7E7E7",
"@	c #FCFCFC",
"#	c #8C8C8C",
"$	c #FDFDFD",
"%	c #FBFBFB",
"&	c #FAFAFA",
"*	c #000000",
"=	c #616161",
"-	c #F9F9F9",
"...................",
"+++++++++++++++++++",
"@@@@@@@@@@@@@@@@@@@",
"@############@@@@@@",
"$#$$$$$$$$$$#$$$$$$",
"@#@@@@@@@@@@#@@@@@@",
"@#@@@@@@@@@@#@@@@@@",
"@#@@@@@@@@@@#@@@@@@",
"%#%%%%%%%%%%#%%%%%%",
"%#%%%%%%%%%%#%%%%%%",
"&#&&&&&&&&&&#&&&&&&",
"&#&*******&&#&&&&&&",
"&#&=======&&#&&&&&&",
"-#----------#------",
"-############------",
"-------------------",
"-------------------",
"-------------------",
"+++++++++++++++++++"};
