/* XPM */
static char * min_unfocus_xpm[] = {
"19 19 10 1",
" 	c None",
".	c #BABABA",
"+	c #FCFCFC",
"@	c #FDFDFD",
"#	c #FBFBFB",
"$	c #FAFAFA",
"%	c #686868",
"&	c #A1A1A1",
"*	c #F9F9F9",
"=	c #EBEBEB",
"...................",
"+++++++++++++++++++",
"+++++++++++++++++++",
"+............++++++",
"@.@@@@@@@@@@.@@@@@@",
"+.@@@@@@@@@@.++++++",
"+.@@@@@@@@@@.++++++",
"+.@@@@@@@@@@.++++++",
"#.++++++++++.######",
"#.++++++++++.######",
"$.++++++++++.$$$$$$",
"$.+%%%%%%%++.$$$$$$",
"$.+&&&&&&&++.$$$$$$",
"*.##########.******",
"*............******",
"*******************",
"*******************",
"*******************",
"==================="};
