/* XPM */
static char * stick_unfocus_xpm[] = {
"19 19 9 1",
" 	c None",
".	c #BABABA",
"+	c #EBEBEB",
"@	c #FCFCFC",
"#	c #FDFDFD",
"$	c #FBFBFB",
"%	c #686868",
"&	c #FAFAFA",
"*	c #F9F9F9",
"...................",
"+@@@@@@@@@@@@@@@@@@",
"+@@@@@@@@@@@@@@@@@@",
"+@@@@@............@",
"+#####.##########.#",
"+@@@@@.##########.@",
"+@@@@@.##########.@",
"+@@@@@.##########.@",
"+$$$$$.@@@@%%@@@@.$",
"+$$$$$.@@@@%%@@@@.$",
"+&&&&&.@@@@@@@@@@.&",
"+&&&&&.@@@@@@@@@@.&",
"+&&&&&.@@@@@@@@@@.&",
"+*****.$$$$$$$$$$.*",
"+*****............*",
"+******************",
"+******************",
"+******************",
"+++++++++++++++++++"};
