/* XPM */
static char * stick_pressed_xpm[] = {
"19 19 14 1",
" 	c None",
".	c #B0B0B0",
"+	c #E7E7E7",
"@	c #FCFCFC",
"#	c #8D8D8D",
"$	c #959595",
"%	c #FFFFFF",
"&	c #FDFDFD",
"*	c #D0D0D0",
"=	c #CFCFCF",
"-	c #FBFBFB",
";	c #000000",
">	c #FAFAFA",
",	c #F9F9F9",
"...................",
"+++++++++++++++++++",
"+@@@@@@@@@@@@@@@@@@",
"+@@@@@#$$$$$$$$$#%@",
"+&&&&&$&&&&&&&&&$%&",
"+@@@@@$@@@@@@@@@$%@",
"+@@@@@$@@@@@@@@@$%@",
"+@@@@@$@@@*=*@@@$%@",
"+-----$---=;=---$%-",
"+-----$>>>===>>>$%-",
"+>>>>>$>>>>>>>>>$%>",
"+>>>>>$>>>>>>>>>$%>",
"+>>>>>$,,,,,,,,,$%>",
"+,,,,,#$$$$$$$$$#%,",
"+,,,,,%%%%%%%%%%%%,",
"+,,,,,,,,,,,,,,,,,,",
"+,,,,,,,,,,,,,,,,,,",
"+,,,,,,,,,,,,,,,,,,",
"+++++++++++++++++++"};
