/* XPM */
static char * stick_focus_xpm[] = {
"19 19 10 1",
" 	c None",
".	c #B0B0B0",
"+	c #E7E7E7",
"@	c #FCFCFC",
"#	c #8C8C8C",
"$	c #FDFDFD",
"%	c #FBFBFB",
"&	c #000000",
"*	c #FAFAFA",
"=	c #F9F9F9",
"...................",
"+++++++++++++++++++",
"+@@@@@@@@@@@@@@@@@@",
"+@@@@@############@",
"+$$$$$#$$$$$$$$$$#$",
"+@@@@@#@@@@@@@@@@#@",
"+@@@@@#@@@@@@@@@@#@",
"+@@@@@#@@@@@@@@@@#@",
"+%%%%%#%%%%&&%%%%#%",
"+%%%%%#%%%%&&%%%%#%",
"+*****#**********#*",
"+*****#**********#*",
"+*****#**********#*",
"+=====#==========#=",
"+=====############=",
"+==================",
"+==================",
"+==================",
"+++++++++++++++++++"};
