/* XPM */
static char * stuck_unfocus_xpm[] = {
"19 19 12 1",
" 	c None",
".	c #BABABA",
"+	c #EBEBEB",
"@	c #FCFCFC",
"#	c #FFFFFF",
"$	c #FDFDFD",
"%	c #D0D0D0",
"&	c #CFCFCF",
"*	c #FBFBFB",
"=	c #838383",
"-	c #FAFAFA",
";	c #F9F9F9",
"...................",
"+@@@@@@@@@@@@@@@@@@",
"+@@@@@@@@@@@@@@@@@@",
"+@@@@@...........#@",
"+$$$$$.$$$$$$$$$.#$",
"+@@@@@.@@@@@@@@@.#@",
"+@@@@@.@@@@@@@@@.#@",
"+@@@@@.@@@%&%@@@.#@",
"+*****.***&=&***.#*",
"+*****.---&&&---.#*",
"+-----.---------.#-",
"+-----.---------.#-",
"+-----.;;;;;;;;;.#-",
"+;;;;;...........#;",
"+;;;;;############;",
"+;;;;;;;;;;;;;;;;;;",
"+;;;;;;;;;;;;;;;;;;",
"+;;;;;;;;;;;;;;;;;;",
"+++++++++++++++++++"};
