/* XPM */
static char * title_xpm[] = {
"19 19 11 1",
" 	c None",
".	c #BABABA",
"+	c #FAFAFA",
"@	c #FBFBFB",
"#	c #FCFCFC",
"$	c #F9F9F9",
"%	c #F8F8F8",
"&	c #F7F7F7",
"*	c #F6F6F6",
"=	c #F5F5F5",
"-	c #EBEBEB",
"...................",
"+++++++++++++++++++",
"+++++++++++++++++@@",
"+++++++++++++++++++",
"###################",
"@@@@@@@@@@@@@@@@@@@",
"+++++++++++++++++++",
"+++++++++++++++++++",
"$$$$$$$$$$$$$$$$$$$",
"$$$$$$$$$$$$$$$$$$$",
"%%%%%%%%%%%%%%%%%%%",
"&&&&&&&&&&&&&&&&&&&",
"&&&&&&&&&&&&&&&&&&&",
"*******************",
"=====**************",
"===================",
"===================",
"===================",
"-------------------"};
