/* XPM */
static char * title_focus_xpm[] = {
"19 19 11 1",
" 	c None",
".	c #B0B0B0",
"+	c #E7E7E7",
"@	c #FAFAFA",
"#	c #FBFBFB",
"$	c #FCFCFC",
"%	c #F9F9F9",
"&	c #F8F8F8",
"*	c #F7F7F7",
"=	c #F6F6F6",
"-	c #F5F5F5",
"...................",
"+++++++++++++++++++",
"@@@@@@@@@@@@@@@@@##",
"@@@@@@@@@@@@@@@@@@@",
"$$$$$$$$$$$$$$$$$$$",
"###################",
"@@@@@@@@@@@@@@@@@@@",
"@@@@@@@@@@@@@@@@@@@",
"%%%%%%%%%%%%%%%%%%%",
"%%%%%%%%%%%%%%%%%%%",
"&&&&&&&&&&&&&&&&&&&",
"*******************",
"*******************",
"===================",
"-----==============",
"-------------------",
"-------------------",
"-------------------",
"+++++++++++++++++++"};
