/* XPM */
static char * panther_close_brushed_xpm[] = {
"22 22 192 2",
"  	c None",
". 	c #EFEFEF",
"+ 	c #F0F0F0",
"@ 	c #C2C2C2",
"# 	c #C1C1C1",
"$ 	c #B0B0B0",
"% 	c #AFAFAF",
"& 	c #AEAEAE",
"* 	c #ADADAD",
"= 	c #A9A9A9",
"- 	c #A8A8A8",
"; 	c #A7A7A7",
"> 	c #A6A6A6",
", 	c #A5A5A5",
"' 	c #A4A4A4",
") 	c #ACACAC",
"! 	c #858585",
"~ 	c #535353",
"{ 	c #2B2B2B",
"] 	c #0E0E0E",
"^ 	c #848484",
"/ 	c #A3A3A3",
"( 	c #656565",
"_ 	c #2C2B2B",
": 	c #4D4546",
"< 	c #7F7676",
"[ 	c #999090",
"} 	c #989090",
"| 	c #666666",
"1 	c #AAAAAA",
"2 	c #646565",
"3 	c #1F1818",
"4 	c #685556",
"5 	c #AE9B9C",
"6 	c #D4CBCC",
"7 	c #E5DEDE",
"8 	c #E6E0E0",
"9 	c #D6CDCD",
"0 	c #AD9B9C",
"a 	c #695556",
"b 	c #201818",
"c 	c #312627",
"d 	c #5C3637",
"e 	c #9F6A6D",
"f 	c #C99899",
"g 	c #DCB0B2",
"h 	c #DFB4B5",
"i 	c #DEB4B5",
"j 	c #CA9799",
"k 	c #5E3738",
"l 	c #332728",
"m 	c #5E5D5D",
"n 	c #4C1C1F",
"o 	c #89353A",
"p 	c #A93C3E",
"q 	c #BD534F",
"r 	c #C3635D",
"s 	c #C5635E",
"t 	c #C5635D",
"u 	c #C2625C",
"v 	c #BE524F",
"w 	c #89363A",
"x 	c #4E1D20",
"y 	c #5F5E5E",
"z 	c #3E2D2E",
"A 	c #75252A",
"B 	c #A02424",
"C 	c #B12623",
"D 	c #BD3730",
"E 	c #C1453C",
"F 	c #C34A43",
"G 	c #C44A43",
"H 	c #C2463C",
"I 	c #BD3630",
"J 	c #B32523",
"K 	c #9F2324",
"L 	c #75262A",
"M 	c #432D2F",
"N 	c #A2A2A2",
"O 	c #A1A1A1",
"P 	c #410D10",
"Q 	c #93262C",
"R 	c #B42825",
"S 	c #C03830",
"T 	c #C94A41",
"U 	c #D15950",
"V 	c #D56056",
"W 	c #D66056",
"X 	c #D45A51",
"Y 	c #CC4B44",
"Z 	c #C3392F",
"` 	c #B72926",
" .	c #450E11",
"..	c #ABABAB",
"+.	c #580F13",
"@.	c #A52A2B",
"#.	c #C4413B",
"$.	c #D25148",
"%.	c #DC635A",
"&.	c #E56F69",
"*.	c #EA7870",
"=.	c #EB7971",
"-.	c #E7746B",
";.	c #E0655C",
">.	c #D65349",
",.	c #CA423B",
"'.	c #A5292A",
").	c #590F13",
"!.	c #6B3A3C",
"~.	c #AA312A",
"{.	c #CE554B",
"].	c #E2685D",
"^.	c #F0766E",
"/.	c #F5847D",
"(.	c #F88D84",
"_.	c #F6857E",
":.	c #F1786E",
"<.	c #E5695F",
"[.	c #D2554B",
"}.	c #AA3129",
"|.	c #6D3A3C",
"1.	c #827070",
"2.	c #9E2924",
"3.	c #D66059",
"4.	c #EE786F",
"5.	c #F9857C",
"6.	c #F9938A",
"7.	c #FA9D93",
"8.	c #FA9E94",
"9.	c #F9958C",
"0.	c #F9877E",
"a.	c #EF796F",
"b.	c #DA615A",
"c.	c #A12824",
"d.	c #837070",
"e.	c #A4A2A2",
"f.	c #7F3635",
"g.	c #C75651",
"h.	c #F0817C",
"i.	c #F8958C",
"j.	c #FAA197",
"k.	c #FAA89F",
"l.	c #FAABA1",
"m.	c #FAA499",
"n.	c #F8968E",
"o.	c #F4847D",
"p.	c #CF5A52",
"q.	c #813534",
"r.	c #A4A3A3",
"s.	c #B9B9B9",
"t.	c #948A8B",
"u.	c #8F2E29",
"v.	c #D87069",
"w.	c #EF9890",
"x.	c #F5A9A0",
"y.	c #F9B5AA",
"z.	c #F9B6AC",
"A.	c #F6ADA3",
"B.	c #F09B93",
"C.	c #DF776F",
"D.	c #93312C",
"E.	c #BDBDBD",
"F.	c #C4C4C4",
"G.	c #948D8D",
"H.	c #85534E",
"I.	c #AB6058",
"J.	c #CA887F",
"K.	c #DF9F97",
"L.	c #E2A49A",
"M.	c #CD8A83",
"N.	c #AF645D",
"O.	c #89564F",
"P.	c #948E8E",
"Q.	c #C6C6C6",
"R.	c #C1C0C0",
"S.	c #8F8382",
"T.	c #855D59",
"U.	c #7F4E46",
"V.	c #804E46",
"W.	c #8A605C",
"X.	c #908382",
"Y.	c #C3C3C3",
"Z.	c #C7C7C7",
"`.	c #B6B6B6",
" +	c #CACACA",
".+	c #D8D8D8",
"++	c #DBDBDB",
"@+	c #D4D4D4",
"#+	c #C9C9C9",
"$+	c #B5B5B5",
"%+	c #B1B1B1",
"&+	c #B7B7B7",
". . . . . . . . . . . . . . . . + + + + + + ",
"@ @ @ @ @ @ @ @ @ @ # # # # # # @ @ @ # # # ",
"$ $ $ $ $ $ $ $ $ % % % % % % & % % % % % & ",
"* = - - ; ; > > > , , , , , ' ' , , , , , ' ",
") * * * * * ) ) ) ) ) ) ) ) ) ) * * * * * * ",
"; - ; ; ; ; ; ! ~ { ] ] { ~ ^ ' , , ' ' ' / ",
"> > > > > > ( _ : < [ } < : _ | = = = = = 1 ",
"- = = = = 2 3 4 5 6 7 8 9 0 a b 2 ; ; > > > ",
"/ ' ' ' ^ c d e f g h i g j e k l ^ ' ' ' ' ",
"> ; ; ; m n o p q r s t u v p w x y ; ; ; ; ",
"/ ' ' / z A B C D E F G H I J K L M N O O O ",
"; - - - P Q R S T U V W X Y Z ` Q  .1 1 1 1 ",
"........+.@.#.$.%.&.*.=.-.;.>.,.'.).1 1 = = ",
"' , , , !.~.{.].^./.(.(._.:.<.[.}.|.- ; ; ; ",
") * * * 1.2.3.4.5.6.7.8.9.0.a.b.c.d.........",
"O N N N e.f.g.h.i.j.k.l.m.n.o.p.q.r.> ; ; ; ",
"1 ......s.t.u.v.w.x.y.z.A.B.C.D.t.E.$ $ $ $ ",
"> ; > > > F.G.H.I.J.K.L.M.N.O.P.F.> > > > > ",
"; - - = = = Q.R.S.T.U.V.W.X.Y.Z.) ) ) ) ) ) ",
"' , , , , ' ' `. +.+++++@+#+$+N / / / / N N ",
"..) ) ) ) ......* %+&+&+%+* 1 1 ............",
"> - - - = = = = = = 1 1 1 1 1 ..) ) ) ) * * "};
