/* XPM */
static char * panther_close_pressed_pressed_xpm[] = {
"22 22 182 2",
"  	c None",
". 	c #EEEEEE",
"+ 	c #EFEFEF",
"@ 	c #F0F0F0",
"# 	c #C2C2C2",
"$ 	c #C1C1C1",
"% 	c #B0B0B0",
"& 	c #AFAFAF",
"* 	c #AEAEAE",
"= 	c #ADADAD",
"- 	c #A9A9A9",
"; 	c #A8A8A8",
"> 	c #A7A7A7",
", 	c #A6A6A6",
"' 	c #A5A5A5",
") 	c #A4A4A4",
"! 	c #ACACAC",
"~ 	c #858585",
"{ 	c #535353",
"] 	c #2B2B2B",
"^ 	c #0E0E0E",
"/ 	c #848484",
"( 	c #A3A3A3",
"_ 	c #656565",
": 	c #2C2B2B",
"< 	c #4D4546",
"[ 	c #7F7676",
"} 	c #999090",
"| 	c #989090",
"1 	c #666666",
"2 	c #AAAAAA",
"3 	c #646565",
"4 	c #1F1818",
"5 	c #685556",
"6 	c #AE9B9C",
"7 	c #D4CBCC",
"8 	c #E5DEDE",
"9 	c #E6E0E0",
"0 	c #D6CDCD",
"a 	c #AD9B9C",
"b 	c #695556",
"c 	c #201818",
"d 	c #312627",
"e 	c #5C3637",
"f 	c #8D4B4D",
"g 	c #7D2526",
"h 	c #DCB0B2",
"i 	c #DFB4B5",
"j 	c #DEB4B5",
"k 	c #5E3738",
"l 	c #332728",
"m 	c #5E5D5D",
"n 	c #4C1C1F",
"o 	c #89353A",
"p 	c #76100A",
"q 	c #6E0902",
"r 	c #821E17",
"s 	c #C5635E",
"t 	c #C5635D",
"u 	c #89363A",
"v 	c #4E1D20",
"w 	c #5F5E5E",
"x 	c #3E2D2E",
"y 	c #75252A",
"z 	c #A02424",
"A 	c #B12623",
"B 	c #7F120B",
"C 	c #750C05",
"D 	c #871B14",
"E 	c #881B14",
"F 	c #B32523",
"G 	c #9F2324",
"H 	c #75262A",
"I 	c #432D2F",
"J 	c #A2A2A2",
"K 	c #A1A1A1",
"L 	c #410D10",
"M 	c #93262C",
"N 	c #B42825",
"O 	c #C03830",
"P 	c #C94A41",
"Q 	c #881C12",
"R 	c #7C1208",
"S 	c #CC4B44",
"T 	c #C3392F",
"U 	c #B72926",
"V 	c #450E11",
"W 	c #ABABAB",
"X 	c #580F13",
"Y 	c #A52A2B",
"Z 	c #C4413B",
"` 	c #D25148",
" .	c #DC635A",
"..	c #9A2E25",
"+.	c #831A10",
"@.	c #9B2F25",
"#.	c #E0655C",
"$.	c #D65349",
"%.	c #CA423B",
"&.	c #A5292A",
"*.	c #590F13",
"=.	c #6B3A3C",
"-.	c #AA312A",
";.	c #CE554B",
">.	c #E2685D",
",.	c #A6382F",
"'.	c #8F251B",
").	c #9B3127",
"!.	c #A6392F",
"~.	c #E5695F",
"{.	c #D2554B",
"].	c #AA3129",
"^.	c #6D3A3C",
"/.	c #827070",
"(.	c #9E2924",
"_.	c #D66059",
":.	c #A8483D",
"<.	c #93392D",
"[.	c #9F4338",
"}.	c #FA9D93",
"|.	c #FA9E94",
"1.	c #A9483D",
"2.	c #DA615A",
"3.	c #A12824",
"4.	c #837070",
"5.	c #A4A2A2",
"6.	c #7F3635",
"7.	c #C75651",
"8.	c #D86F68",
"9.	c #AB4E42",
"0.	c #FAA197",
"a.	c #FAA89F",
"b.	c #FAABA1",
"c.	c #FAA499",
"d.	c #AB4E43",
"e.	c #DB7168",
"f.	c #CF5A52",
"g.	c #813534",
"h.	c #A4A3A3",
"i.	c #B9B9B9",
"j.	c #948A8B",
"k.	c #8F2E29",
"l.	c #D87069",
"m.	c #EF9890",
"n.	c #F5A9A0",
"o.	c #F9B5AA",
"p.	c #F9B6AC",
"q.	c #F6ADA3",
"r.	c #F09B93",
"s.	c #DF776F",
"t.	c #93312C",
"u.	c #BDBDBD",
"v.	c #C4C4C4",
"w.	c #948D8D",
"x.	c #85534E",
"y.	c #AB6058",
"z.	c #CA887F",
"A.	c #DF9F97",
"B.	c #E2A49A",
"C.	c #CD8A83",
"D.	c #AF645D",
"E.	c #89564F",
"F.	c #948E8E",
"G.	c #C6C6C6",
"H.	c #C1C0C0",
"I.	c #8F8382",
"J.	c #855D59",
"K.	c #7F4E46",
"L.	c #804E46",
"M.	c #8A605C",
"N.	c #908382",
"O.	c #C3C3C3",
"P.	c #C7C7C7",
"Q.	c #B6B6B6",
"R.	c #CACACA",
"S.	c #D8D8D8",
"T.	c #DBDBDB",
"U.	c #D4D4D4",
"V.	c #C9C9C9",
"W.	c #B5B5B5",
"X.	c #B1B1B1",
"Y.	c #B7B7B7",
". . . . . . + + + + + + + + + + @ @ @ @ @ @ ",
"# # # # # # # # # # $ $ $ $ $ $ # # # $ $ $ ",
"% % % % % % % % % & & & & & & * & & & & & * ",
"= - ; ; > > , , , ' ' ' ' ' ) ) ' ' ' ' ' ) ",
"! = = = = = ! ! ! ! ! ! ! ! ! ! = = = = = = ",
"> ; > > > > > ~ { ] ^ ^ ] { / ) ' ' ) ) ) ( ",
", , , , , , _ : < [ } | [ < : 1 - - - - - 2 ",
"; - - - - 3 4 5 6 7 8 9 0 a b c 3 > > , , , ",
"( ) ) ) / d e f g h i j h g f k l / ) ) ) ) ",
", > > > m n o p q r s t r q p u v w > > > > ",
"( ) ) ( x y z A B C D E C B F G H I J K K K ",
"> ; ; ; L M N O P Q R R Q S T U M V 2 2 2 2 ",
"W W W W X Y Z `  ...+.+.@.#.$.%.&.*.2 2 - - ",
") ' ' ' =.-.;.>.,.'.).).'.!.~.{.].^.; > > > ",
"! = = = /.(._.:.<.[.}.|.[.<.1.2.3.4.W W W W ",
"K J J J 5.6.7.8.9.0.a.b.c.d.e.f.g.h., > > > ",
"2 W W W i.j.k.l.m.n.o.p.q.r.s.t.j.u.% % % % ",
", > , , , v.w.x.y.z.A.B.C.D.E.F.v., , , , , ",
"> ; ; - - - G.H.I.J.K.L.M.N.O.P.! ! ! ! ! ! ",
") ' ' ' ' ) ) Q.R.S.T.T.U.V.W.J ( ( ( ( J J ",
"W ! ! ! ! W W W = X.Y.Y.X.= 2 2 W W W W W W ",
", ; ; ; - - - - - - 2 2 2 2 2 W ! ! ! ! = = "};
