/* XPM */
static char * linther_selected_brushed_xpm[] = {
"6 21 42 1",
" 	c None",
".	c #00005F",
"+	c #00005D",
"@	c #00005B",
"#	c #00005A",
"$	c #DEE2F4",
"%	c #DEE1F4",
"&	c #DCE0F3",
"*	c #DDE1F4",
"=	c #BED4EF",
"-	c #BDD3EF",
";	c #A5C7EB",
">	c #A6C8EB",
",	c #9AC1EA",
"'	c #94BDEA",
")	c #90BCEA",
"!	c #8CBAE9",
"~	c #8EBBEB",
"{	c #8CBCEC",
"]	c #8EBDEC",
"^	c #8BBBEE",
"/	c #5EA4EE",
"(	c #64A8F2",
"_	c #6CB0FB",
":	c #6BB0F6",
"<	c #75B7FD",
"[	c #73B7FD",
"}	c #7DBEFF",
"|	c #7CBEFF",
"1	c #86C5FF",
"2	c #86C9FF",
"3	c #8ED1FF",
"4	c #93D2FF",
"5	c #97DAFF",
"6	c #9EDDFF",
"7	c #A0E0FF",
"8	c #A5E4FF",
"9	c #A9E6FF",
"0	c #B1F3FF",
"a	c #BBFFFF",
"b	c #B7FFFF",
"c	c #505050",
".+@#..",
"$%&*&*",
"=-====",
";>>>>>",
",,,,,,",
"''''''",
")!~~~~",
"{{]]]]",
"^^^^^^",
"/(((((",
"_:::::",
"<[[[[[",
"}|||||",
"122222",
"344444",
"555555",
"677777",
"899999",
"000000",
"abaaaa",
"cccccc"};
