/* XPM */
static char * panther_button_pressed_xpm[] = {
"28 25 170 2",
"  	c None",
". 	c #F9F9F9",
"+ 	c #CFCFCF",
"@ 	c #9F9D9F",
"# 	c #949394",
"$ 	c #9A999A",
"% 	c #777777",
"& 	c #6C6B6C",
"* 	c #666666",
"= 	c #9F9F9F",
"- 	c #71757B",
"; 	c #7B8CA6",
"> 	c #88A5D1",
", 	c #8FB2E6",
"' 	c #70747A",
") 	c #848484",
"! 	c #7C8DA6",
"~ 	c #91B4E6",
"{ 	c #91B3E6",
"] 	c #7085A4",
"^ 	c #707070",
"/ 	c #8BA9D2",
"( 	c #92B6E7",
"_ 	c #92B6E8",
": 	c #92B5E8",
"< 	c #6B93CB",
"[ 	c #94B8E8",
"} 	c #95B8E8",
"| 	c #90B5E7",
"1 	c #5D93DC",
"2 	c #97BBE9",
"3 	c #96BBE9",
"4 	c #7BA8E3",
"5 	c #518DDB",
"6 	c #98BEEB",
"7 	c #99BEEB",
"8 	c #99BEEA",
"9 	c #98BEEA",
"0 	c #99BDEB",
"a 	c #98BDEB",
"b 	c #8EB6E8",
"c 	c #659CE0",
"d 	c #5592DD",
"e 	c #9BC1EC",
"f 	c #9BC1EB",
"g 	c #99BFEB",
"h 	c #74A8E3",
"i 	c #5997DF",
"j 	c #9EC4ED",
"k 	c #9EC4EC",
"l 	c #9CC3ED",
"m 	c #7BAFE6",
"n 	c #5D9CE1",
"o 	c #A1C7EE",
"p 	c #A0C7EE",
"q 	c #97C1EC",
"r 	c #7CB1E8",
"s 	c #62A2E3",
"t 	c #A4CAEF",
"u 	c #A4CBEF",
"v 	c #A3CBEF",
"w 	c #A4CBF0",
"x 	c #9DC6EB",
"y 	c #8BBDEC",
"z 	c #75AFE7",
"A 	c #66A7E5",
"B 	c #67A8E5",
"C 	c #67A7E5",
"D 	c #66A8E5",
"E 	c #67A8E6",
"F 	c #A7CEF1",
"G 	c #A6CEF1",
"H 	c #78B5E9",
"I 	c #6CAEE8",
"J 	c #6BAEE7",
"K 	c #6BADE7",
"L 	c #6CADE7",
"M 	c #6CAEE7",
"N 	c #A9D1F2",
"O 	c #AAD1F2",
"P 	c #9ECBF1",
"Q 	c #71B4EA",
"R 	c #71B5EA",
"S 	c #72B4EA",
"T 	c #ACD5F4",
"U 	c #ACD6F4",
"V 	c #ADD5F4",
"W 	c #9FCEF3",
"X 	c #8BC4EF",
"Y 	c #78BBEC",
"Z 	c #76BAEC",
"` 	c #76BBEC",
" .	c #AFD9F5",
"..	c #AFD8F5",
"+.	c #99CDF2",
"@.	c #82C3F0",
"#.	c #7ABFEE",
"$.	c #7BBFEE",
"%.	c #7ABFEF",
"&.	c #7BC0EE",
"*.	c #7AC0EE",
"=.	c #B2DCF7",
"-.	c #B2DCF6",
";.	c #99D0F3",
">.	c #80C5F0",
",.	c #7EC4F1",
"'.	c #7FC4F1",
").	c #7EC4F0",
"!.	c #7FC4F0",
"~.	c #B5DFF8",
"{.	c #B4DFF8",
"].	c #A0D6F6",
"^.	c #83CAF2",
"/.	c #83C9F2",
"(.	c #82C9F2",
"_.	c #82C9F3",
":.	c #84C9F3",
"<.	c #84C9F2",
"[.	c #83C9F3",
"}.	c #82CAF3",
"|.	c #B6E2F8",
"1.	c #ABDDF7",
"2.	c #8FD1F6",
"3.	c #87CEF4",
"4.	c #87CEF5",
"5.	c #86CEF4",
"6.	c #86CDF5",
"7.	c #88CEF4",
"8.	c #88CEF5",
"9.	c #86CEF5",
"0.	c #B9E4FA",
"a.	c #9CDAF7",
"b.	c #8AD3F6",
"c.	c #8AD2F6",
"d.	c #89D2F6",
"e.	c #8BD2F6",
"f.	c #8BD2F7",
"g.	c #8BD3F7",
"h.	c #8BD3F6",
"i.	c #A5CEE2",
"j.	c #90D7F8",
"k.	c #8DD6F7",
"l.	c #8ED6F8",
"m.	c #8DD7F7",
"n.	c #8DD6F8",
"o.	c #8ED6F7",
"p.	c #87C4DF",
"q.	c #838383",
"r.	c #87A4B0",
"s.	c #90D9F9",
"t.	c #8FDAF9",
"u.	c #8FD9F9",
"v.	c #90DAF9",
"w.	c #91DAF9",
"x.	c #91D9F8",
"y.	c #91D9F9",
"z.	c #7BA0B0",
"A.	c #A1A1A1",
"B.	c #7C8386",
"C.	c #7CA1B0",
"D.	c #8BC9E2",
"E.	c #92DCFA",
"F.	c #93DCFA",
"G.	c #7B8386",
"H.	c #CACACA",
"I.	c #A4A4A4",
"J.	c #8B8B8B",
"K.	c #727272",
"L.	c #C8C8C8",
"M.	c #C9C9C9",
". . + @ # # # # # # # # # # # # # # # # # # # # @ + . . ",
". $ % & * * * * * * * * * * * * * * * * * * * * & % $ . ",
"= - ; > , , , , , , , , , , , , , , , , , , , , > ; ' = ",
") ! ~ ~ ~ { ~ { { ~ ~ ~ ~ ~ ~ ~ ~ { ~ ~ ~ ~ ~ ~ ~ ~ ] ) ",
"^ / ( ( ( ( _ _ ( _ _ ( _ _ ( : ( : ( ( ( _ _ _ _ ( < ^ ",
"* [ [ [ [ [ [ } [ [ [ [ [ } [ [ [ [ [ [ [ [ [ [ [ | 1 * ",
"* 2 2 2 2 2 2 2 3 2 2 2 2 2 2 3 3 3 2 2 2 2 2 3 2 4 5 * ",
"* 6 7 7 8 7 7 6 7 6 8 8 7 9 9 9 9 9 9 8 0 8 a 9 b c d * ",
"* e e e e f e f f f f e e f f f f f f f f f f g h i i * ",
"* j j j j j j j k j j j j j j j j j k k j j l m n n n * ",
"* o o o o o o o o o o o o o o o o o o o p q r s s s s * ",
"* t t u t u v v w w w w w w w w w w w x y z A B C D E * ",
"* F G G F F G F G G G G G G G G G G G H I J K L J M L * ",
"* N N N N N N O P Q Q Q Q Q Q Q Q Q Q Q Q Q R Q S S Q * ",
"* T U T T V W X Y Z Z Z Z Z Z Z Z Z Z Z Z Z ` Z ` Z Z * ",
"*  . .....+.@.#.#.$.$.$.$.$.$.$.$.$.$.$.$.%.$.#.&.*.*.* ",
"* =.=.-.;.>.,.'.).,.!.!.!.!.!.!.!.!.!.!.'.!.'.'.!.'.!.* ",
"* ~.{.].^./.(.(.(._./.:.:.:.:.:.:.:.:.<./.[.}._./.(.[.* ",
"* |.1.2.3.4.5.5.5.5.3.6.6.3.4.4.3.7.8.3.3.9.9.3.5.3.5.* ",
"* 0.a.b.c.c.c.c.d.c.d.c.c.e.e.e.e.f.g.h.h.c.b.c.c.c.c.* ",
"^ i.j.k.l.m.n.n.n.k.n.k.k.l.l.o.l.o.l.o.o.n.n.n.n.n.p.^ ",
"q.r.s.s.t.u.s.v.s.v.s.s.v.w.x.y.w.y.y.y.s.v.s.v.s.s.z.q.",
"A.B.C.D.E.E.E.E.E.E.E.E.E.F.F.F.F.F.F.F.E.E.E.E.D.C.G.A.",
"H.I.J.K.* * * * * * * * * * * * * * * * * * * * K.J.I.H.",
"H.H.L.M.M.M.M.M.M.M.M.M.M.M.M.M.M.M.M.M.M.M.M.M.M.L.H.H."};
