/* XPM */
static char * linther_stuck_pressed_brushed2_xpm[] = {
"22 22 120 2",
"  	c None",
". 	c #F0F0F0",
"+ 	c #EFEFEF",
"@ 	c #C1C1C1",
"# 	c #C2C2C2",
"$ 	c #AEAEAE",
"% 	c #AFAFAF",
"& 	c #B0B0B0",
"* 	c #A4A4A4",
"= 	c #A5A5A5",
"- 	c #A6A6A6",
"; 	c #A7A7A7",
"> 	c #A8A8A8",
", 	c #A9A9A9",
"' 	c #ADADAD",
") 	c #ACACAC",
"! 	c #A3A3A3",
"~ 	c #848484",
"{ 	c #535353",
"] 	c #2B2B2B",
"^ 	c #0E0E0E",
"/ 	c #858585",
"( 	c #AAAAAA",
"_ 	c #666666",
": 	c #484848",
"< 	c #797979",
"[ 	c #929292",
"} 	c #939393",
"| 	c #656565",
"1 	c #1A1A1A",
"2 	c #5B5B5B",
"3 	c #A1A1A1",
"4 	c #D0D0D0",
"5 	c #E2E2E2",
"6 	c #E0E0E0",
"7 	c #CECECE",
"8 	c #434343",
"9 	c #7A7A7A",
"0 	c #BDBDBD",
"a 	c #424242",
"b 	c #292929",
"c 	c #5E5E5E",
"d 	c #2C2C2C",
"e 	c #4F4F4F",
"f 	c #5D5D5D",
"g 	c #727272",
"h 	c #7E7E7E",
"i 	c #808080",
"j 	c #7F7F7F",
"k 	c #A2A2A2",
"l 	c #343434",
"m 	c #3E3E3E",
"n 	c #6A6A6A",
"o 	c #6E6E6E",
"p 	c #696969",
"q 	c #494949",
"r 	c #323232",
"s 	c #1F1F1F",
"t 	c #474747",
"u 	c #616161",
"v 	c #717171",
"w 	c #828282",
"x 	c #7C7C7C",
"y 	c #6F6F6F",
"z 	c #606060",
"A 	c #525252",
"B 	c #1D1D1D",
"C 	c #262626",
"D 	c #4E4E4E",
"E 	c #898989",
"F 	c #969696",
"G 	c #9A9A9A",
"H 	c #999999",
"I 	c #868686",
"J 	c #777777",
"K 	c #686868",
"L 	c #252525",
"M 	c #ABABAB",
"N 	c #4A4A4A",
"O 	c #545454",
"P 	c #8D8D8D",
"Q 	c #9B9B9B",
"R 	c #8B8B8B",
"S 	c #787878",
"T 	c #555555",
"U 	c #767676",
"V 	c #4C4C4C",
"W 	c #B2B2B2",
"X 	c #B8B8B8",
"Y 	c #B1B1B1",
"Z 	c #838383",
"` 	c #757575",
" .	c #B3B3B3",
"..	c #C0C0C0",
"+.	c #BBBBBB",
"@.	c #959595",
"#.	c #B4B4B4",
"$.	c #C9C9C9",
"%.	c #C8C8C8",
"&.	c #BFBFBF",
"*.	c #8E8E8E",
"=.	c #4B4B4B",
"-.	c #B9B9B9",
";.	c #C4C4C4",
">.	c #909090",
",.	c #9D9D9D",
"'.	c #B5B5B5",
").	c #8F8F8F",
"!.	c #C7C7C7",
"~.	c #C3C3C3",
"{.	c #878787",
"].	c #6C6C6C",
"^.	c #5C5C5C",
"/.	c #C6C6C6",
"(.	c #D4D4D4",
"_.	c #DBDBDB",
":.	c #D8D8D8",
"<.	c #CACACA",
"[.	c #B6B6B6",
"}.	c #B7B7B7",
". . . . . . + + + + + + + + + + + + + + + + ",
"@ @ @ # # # @ @ @ @ @ @ # # # # # # # # # # ",
"$ % % % % % $ % % % % % % & & & & & & & & & ",
"* = = = = = * * = = = = = - - - ; ; > > , ' ",
"' ' ' ' ' ' ) ) ) ) ) ) ) ) ) ) ' ' ' ' ' ) ",
"! * * * = = * ~ { ] ^ ^ ] { / ; ; ; ; ; > ; ",
"( , , , , , _ ] : < [ } < : ] | - - - - - - ",
"- - - ; ; | 1 2 3 4 5 6 7 3 2 1 | , , , , > ",
"* * * * ~ ] 8 9 ; 0 @ @ 0 ; 9 a b ~ * * * ! ",
"; ; ; ; c d e f g h i i j g f e ] f ; ; ; - ",
"3 3 3 k l m : e c n o o p c e q m r ! * * ! ",
"( ( ( ( s t { u v h w w x y z A t B > > > ; ",
", , ( ( C D n < E F G H [ I J K e L M M M M ",
"; ; ; > N O < P Q - ) ) = G R S T q = = = * ",
"M M M M U V / Q > W X X Y ; G Z V ` ' ' ' ) ",
"; ; ; - ! V x =  .0 # ..+.W k J V ! k k k 3 ",
"& & & & 0 P D @.#.# $.%.&.Y *.=.P -.M M M ( ",
"- - - - - ;.>.| 9 ,.'.Y Q U u ).;.- - - ; - ",
") ) ) ) ) ) !.~.{.].^.^.p I ../., , , > > ; ",
"k k ! ! ! ! k '.$.(._._.:.<.[.* * = = = = * ",
"M M M M M M ( ( ' Y }.}.Y ' M M M ) ) ) ) M ",
"' ' ) ) ) ) M ( ( ( ( ( , , , , , , > > > - "};
