/* XPM */
static char * linther_title_brushed2_xpm[] = {
"552 23 65 1",
" 	c None",
".	c #F0F0F0",
"+	c #F1F1F1",
"@	c #F2F2F2",
"#	c #F3F3F3",
"$	c #F4F4F4",
"%	c #F5F5F5",
"&	c #F6F6F6",
"*	c #C5C5C5",
"=	c #C6C6C6",
"-	c #C7C7C7",
";	c #C8C8C8",
">	c #C9C9C9",
",	c #CACACA",
"'	c #CBCBCB",
")	c #CCCCCC",
"!	c #CDCDCD",
"~	c #CECECE",
"{	c #CFCFCF",
"]	c #D0D0D0",
"^	c #D1D1D1",
"/	c #D2D2D2",
"(	c #D3D3D3",
"_	c #D4D4D4",
":	c #D5D5D5",
"<	c #D6D6D6",
"[	c #D7D7D7",
"}	c #D8D8D8",
"|	c #D9D9D9",
"1	c #DADADA",
"2	c #DBDBDB",
"3	c #DCDCDC",
"4	c #DDDDDD",
"5	c #DEDEDE",
"6	c #B0B0B0",
"7	c #B1B1B1",
"8	c #B2B2B2",
"9	c #B4B4B4",
"0	c #B5B5B5",
"a	c #B7B7B7",
"b	c #B8B8B8",
"c	c #BABABA",
"d	c #BBBBBB",
"e	c #BCBCBC",
"f	c #BDBDBD",
"g	c #BEBEBE",
"h	c #BFBFBF",
"i	c #C0C0C0",
"j	c #C1C1C1",
"k	c #C2C2C2",
"l	c #C3C3C3",
"m	c #C4C4C4",
"n	c #ACACAC",
"o	c #ADADAD",
"p	c #AEAEAE",
"q	c #AFAFAF",
"r	c #B3B3B3",
"s	c #B6B6B6",
"t	c #B9B9B9",
"u	c #ABABAB",
"v	c #AAAAAA",
"w	c #A9A9A9",
"x	c #A8A8A8",
"y	c #A7A7A7",
"z	c #A6A6A6",
"......................++++++++++++..........+++......++++++++++++++++++++++@@@@@@@@@@@#################@######@##@@@###@@@@@#@@@@@@####################$$$$#####$$#############################$$$$$$$$$$$%%%%%%%%%%%%%%%&&&&&&&&&&&&&&&&&&&&&&&&%%%%%%%%%%%%%%%%%%%%%%%%&&&&&&&&&&&&&&&&&&&&&&%%%%%%%%%%%%%%%%%%%%%%%%&&&&&&&&&&&&&&&&&&&&&&&&%%%%%%%%%%%%%%%$$$$$$$$$$$#############################$$#####$$$$####################@@@@@@#@@@@@###@@@##@######@#################@@@@@@@@@@@++++++++++++++++++++++......+++..........++++++++++++......................",
"*=***=====---;;;>>>>>>,,,,,,'''''''''''''''')))))))'')))))))))!!!!!!!!!!!!))))))))))!!!))))!!!!!)))!!'''))''))')))))!!!!!~~~{{{{{{{]]]^^^^^^/((((_______________:::__::::::<<:<<<<<<::<<<<<<<<<<<<[[[[[[[[[<<[<<[<<[[[[<<<<<[[[[<<[[<::<<<:::<<<<<<<[[[[[[[}[[}}||||||1112333333455445543333332111||||||}}[[}[[[[[[[<<<<<<<:::<<<::<[[<<[[[[<<<<<[[[[<<[<<[<<[[[[[[[[[<<<<<<<<<<<<::<<<<<<:<<::::::__:::_______________((((/^^^^^^]]]{{{{{{{~~~!!!!!)))))'))''))'''!!)))!!!!!))))!!!))))))))))!!!!!!!!!!!!)))))))))'')))))))'''''''''''''''',,,,,,>>>>>>;;;---=====***=*",
"6766688888888889999999000000aaaaaaaabbbbbcccdddddeeeefffgggggghhhhhhhhgggggggfgggggfgggggffgggffffeffeeeffffffefffffgggggggghhhhhhhiijjjjjjjkkklllllmmmmmmmm****===*=----;;>>;>>>,,',,'')))))))!!!~~~~!!!!~!!!!!~!!!!!!!!)))!!))))))''')))))'))))))))))))))!))!!!~~~~{{{{]]]]]]^///^^///^]]]]]]{{{{~~~~!!!))!))))))))))))))')))))'''))))))!!)))!!!!!!!!~!!!!!~!!!!~~~~!!!)))))))'',,',,>>>;>>;;----=*===****mmmmmmmmlllllkkkjjjjjjjiihhhhhhhggggggggfffffeffffffeeeffeffffgggffgggggfgggggfggggggghhhhhhhhggggggfffeeeedddddcccbbbbbaaaaaaaa0000009999999888888888866676",
"nonnnooooooppppqqqq666777777rrrrr99999000sssaaabbbbbbttbbbbbaabbbaaaasss00999r9999rr99999rr99999999009990000sasaaabbttttttccdddddddeeeeeeeefggggggghiiiiiiiijjjjkllkklmmmmm**m*====-==-=====***==*===***mmmlllllmlkllllllkkkllllllmmlllmmmmmm=====--------;>;;>>>,,,,,,,,'')))))!!!!!!!!)))))'',,,,,,,,>>>;;>;--------=====mmmmmmlllmmllllllkkkllllllklmlllllmmm***===*==***=====-==-====*m**mmmmmlkkllkjjjjiiiiiiiihgggggggfeeeeeeeedddddddccttttttbbaaasas00009990099999999rr99999rr9999r99900sssaaaabbbaabbbbbttbbbbbbaaasss00099999rrrrr777777666qqqqppppoooooonnnon",
"q6qppqppooonnuunuuuuvvuuuuunoooppppqqq666888r9999000saabbbbtttcccdddddddddccccddddddeeeeeefgggggggghhghhiiiiiihiiiihiiihhhhhhhhgggggggffeeededddcccccccccccddddefffffghhhiijjjkkkllmmm*====----;;>,,,,,,,,,>>,,,',,'''''''))!!!!!!~~!!~{{{{{~{{{{{{~~~~!!!!~))!))!!)))'','',,>>>>>>;;>>>>>>,,'','')))!!))!))~!!!!~~~~{{{{{{~{{{{{~!!~~!!!!!!))''''''',,',,,>>,,,,,,,,,>;;----====*mmmllkkkjjjiihhhgfffffeddddcccccccccccdddedeeeffggggggghhhhhhhhiiihiiiihiiiiiihhghhggggggggfeeeeeeddddddccccdddddddddccctttbbbbaas0009999r888666qqqppppooonuuuuuvvuuuunuunnoooppqppq6q",
"wvwwwuuuuuuuunnoooppppqq66667777888888888rrr999000000sssssssssaassssss000009990999rr99rrr88rrr88888rr7778888rr8rrrrr99990000aaaabbbttcccccccdeeeeeffgggghhhhhhhhjjjiijjjjjjkkjkllllmllmmmmmmmmm*mm****mmmm*llmmlmlklllkkkjjjkkjjjjkkjiijjjjjjkkkkkkkkkkklllmmm**=----;;;;>>>>,,,'')'')'',,,>>>>;;;;----=**mmmlllkkkkkkkkkkkjjjjjjiijkkjjjjkkjjjkkklllklmlmmll*mmmm****mm*mmmmmmmmmllmllllkjkkjjjjjjiijjjhhhhhhhhggggffeeeeedcccccccttbbbaaaa00009999rrrrr8rr8888777rr88888rrr88rrr99rr999099900000ssssssaasssssssss000000999rrr88888888877776666qqppppooonnuuuuuuuuwwwvw",
"8877788887777778777777888888rrrrrrrrrrrrr9990009999990000000090000000999990000sssssabbbbbttcccccdddeeeeefggghhghhhiijjjiiiiijjjjjiijjjjjjiiijjjjiiiijjjjjjjjjjjjkkkjjkkkkkkllklkkkklkklllllllkklllmmmlllll*mm***=**------;;;>>>>,,'',''))!!!!~~~~~{{{{{~~~~{~~{{{{{{{{{{{{{{{{{{{{{~~{{{{{{{{{{{{{{{{{{{{{~~{~~~~{{{{{~~~~~!!!!))'','',,>>>>;;;------**=***mm*lllllmmmlllkklllllllkklkkkklkllkkkkkkjjkkkjjjjjjjjjjjjiiiijjjjiiijjjjjjiijjjjjiiiiijjjiihhhghhgggfeeeeedddcccccttbbbbbasssss0000999990000000900000000999999000999rrrrrrrrrrrrr8888887777778777777888877788",
"opoppqq666667778888888rrrrrr999999999999900000sssssssaaaaaaaaabbbbaaaaaaassssssssss0sss00090009999r99rrr9999009ssssabbbbtttcdddeeeegggghhhhhjjjjjjjjkkkkkkkkkkkklllkkllllllmlkmmmmm*mm*********==========*=**=**=******mmmllmmllllllkkkllllllmm****=====--->;;>,,''))))!!~~~{{{{]]]{{]]]{{{{~~~!!))))'',,>;;>---=====****mmllllllkkkllllllmmllmmm******=**=**=*==========*********mm*mmmmmklmllllllkklllkkkkkkkkkkkkjjjjjjjjhhhhhggggeeeedddctttbbbbassss9009999rrr99r99990009000sss0ssssssssssaaaaaaabbbbaaaaaaaaasssssss000009999999999999rrrrrr888888877766666qqppopo",
"xwxxxwwwwvvvvvvunnnnnnppppooppppppppppppq6667777777778888877778888888888rrrrrr9rrrrrrrrrrrr9999rrrr99r88rrrr99r9999900000000aaaaaaabbbbbbtttccccddddeeffffeeeeeefffeefffggghhghhhhhihhiiiihhhhhiiijjjjjjkklkkllklkklkkkkkkkklllkkkllkkjkkkkkkllllllllllllllmmm***========;;;;;;;,,,>>,,,;;;;;;;========***mmmllllllllllllllkkkkkkjkkllkkklllkkkkkkkklkklkllkklkkjjjjjjiiihhhhhiiiihhihhhhhghhgggfffeefffeeeeeeffffeeddddcccctttbbbbbbaaaaaaa0000000099999r99rrrr88r99rrrr9999rrrrrrrrrrrr9rrrrrr8888888888777788888777777777666qppppppppppppooppppnnnnnnuvvvvvvwwwwxxxwx",
"67666777788888888888888888888888888777777877888888888rrrrr99990000000000000000sssssssssssssaaaaaassaasssaaaabtbtttccdddeeeffgggghhhiiiiiijjjkkkjjjjjkkjjjjjjiiiijjjhhiiiiihiihiiiiijiijjjjkkkkklllmmmmmmmm*mm***=**=********=====*==***======;;;;;>>>>>,,,')''))!~~~~~~~~]]]]]]{]]]{{]]]{]]]]]]~~~~~~~~!))'')',,,>>>>>;;;;;======***==*=====********=**=***mm*mmmmmmmmlllkkkkkjjjjiijiiiiihiihiiiiihhjjjiiiijjjjjjkkjjjjjkkkjjjiiiiiihhhggggffeeedddcctttbtbaaaasssaassaaaaaasssssssssssss00000000000000009999rrrrr88888888877877777788888888888888888888888888777766676",
"pqqq67888rrr9990ssssaabbbbbabbbbbbaaaaassassassss000900099rrrrrrrrr8888777776677766677766667776667788777888899r9000saabbbttcdeeeffghiijjjkkkmmmm****-------=====--=**==***m**lmmmllmkkllkkjjjjijjjkjjjjiiijihiiijhhiiiihhhhhiihhhijjiiijjjjjklllmmm***===-->;>,,')!!~~{{{^^^////___((___////^^^{{{~~!!)',,>;>--===***mmmlllkjjjjjiiijjihhhiihhhhhiiiihhjiiihijiiijjjjkjjjijjjjkkllkkmllmmml**m***==**=--=====-------****mmmmkkkjjjiihgffeeedcttbbbaas0009r9988887778877666777666677766677766777778888rrrrrrrrr990009000ssssassassaaaaabbbbbbabbbbbaassss0999rrr88876qqqp",
"67666778888888899rrrrr9rrr88rr8887777666677788888777788rrrrrr90000sssssssaaaaabbttttcttttttccccctttcctbbttttcctcddddeeffffffgghhhhhiiiijjjjjkkkllkkklllkkkjjjjiijiihhhhhhhhiihiiihhihhijjjjjjkklll*******=-==--->;;>>;;;;;;;>>>>;;>>;;-;;;;;;>>>,,,,,,''''')''!!!~~~~~~{{]]]]]]^/^^]]^^/^]]]]]]{{~~~~~~!!!'')''''',,,,,,>>>;;;;;;-;;>>;;>>>>;;;;;;;>>;;>---==-=*******lllkkjjjjjjihhihhiiihiihhhhhhhhiijiijjjjkkklllkkkllkkkjjjjjiiiihhhhhggffffffeeddddctccttttbbtcctttcccccttttttcttttbbaaaaasssssss00009rrrrrr8877778888877766667777888rr88rrr9rrrrr99888888887766676",
"yxzzzyyyyyyyyyyxwwwwvvunnnoopqqq66677888r990ssssaaaaabttttttttcccccccttttttbbbtttbbbttttbbbttttbbbbttaaabbaabasaaaasaaaassssasssss0sssssssssaaaabbbbcccdddeeefffhhhhhjjjkkkmmlmm***=**---------;;;>>>;;;;;>--;;;>--;;;;;----;;;---;;-==---=========*****mmm*mlmmm*mmmmmmm*******---==---*******mmmmmmm*mmmlm*mmm*****=========---==-;;---;;;----;;;;;-->;;;-->;;;;;>>>;;;---------**=***mmlmmkkkjjjhhhhhfffeeedddcccbbbbaaaasssssssss0sssssassssaaaasaaaasabaabbaaattbbbbttttbbbttttbbbtttbbbttttttcccccccttttttttbaaaaassss099r88877666qqqpoonnnuvvwwwwxyyyyyyyyyyzzzxy",
"q6qqq666666666676666qq6qqqqpqqqqpppppoooopppqqqqqqqqq777777788rrrrrrrrrrrrr99900000saaassssaaaaaaaabbaaabbttcccddddeffffffffggggggghhhhhhhhhiiiihhhhhhhggggffffffffeeeeeeeeffefffffgfghhhhhhiiijjjkkkkkkkklllmmm*mm====*****======--===---;;;>,,,,,'''''''')'')))!!!!!!!!~~~~~~~~~~!!~~~~~~~~~~!!!!!!!!)))'')'''''''',,,,,>;;;---===--======*****====mm*mmmlllkkkkkkkkjjjiiihhhhhhgfgfffffeffeeeeeeeeffffffffgggghhhhhhhiiiihhhhhhhhhgggggggffffffffeddddcccttbbaaabbaaaaaaaassssaaas00000999rrrrrrrrrrrrr887777777qqqqqqqqqpppoooopppppqqqqpqqqq6qq666676666666666qqq6q",
"pqpooppppppppoopppppppqqqqqq666677778888899900ssssaaabbttttttcdddddddddddddcccddccccdccccccddddccccddcccddddeedeedddeeeeeeeeffffffffffffffffgfffffffggggggggggggiiihijjjjkkllkmmmm*=**=------;;>>>,,,,,,,,'>>,,,,>>,,>>>>>>>,,,>>>,,>>>,,,,,,'''',,,,,,,,,,',,'''))''''''))))''')))'')))'''))))''''''))''',,',,,,,,,,,,'''',,,,,,>>>,,>>>,,,>>>>>>>,,>>,,,,>>',,,,,,,,>>>;;------=**=*mmmmkllkkjjjjihiiiggggggggggggfffffffgffffffffffffffffeeeeeeeedddeedeeddddcccddccccddddccccccdccccddcccdddddddddddddcttttttbbaaassss009998888877776666qqqqqqpppppppooppppppppoopqp",
"nonnnoooooooooopppppppqqqqqqqqqqqqqqpppppqqqqqqqqqqqq666qqqqqq6666666666777778rrr999000ssssaabbbbbbttbbbtcccddcdddddedddddddeeeedddeeeeeeeeeffffffffggggggggffffgggfeffffffgfefffffgffggfffffffggghhhhhhiijiikkklllmmmm*****=-----;;---;;>>>>,,,,,,,,>>>>>>,>>,,>,,,,,,,,''''''')))'')))''''''',,,,,,,,>,,>>,>>>>>>,,,,,,,,>>>>;;---;;-----=*****mmmmlllkkkiijiihhhhhhgggfffffffggffgfffffefgffffffefgggffffggggggggffffffffeeeeeeeeedddeeeedddddddedddddcddccctbbbttbbbbbbaassss000999rrr8777776666666666qqqqqq666qqqqqqqqqqqqpppppqqqqqqqqqqqqqqpppppppoooooooooonnnon",
"vuvvvvvvvwwwwwwwwwwwwwvvvvuunnnnnnoooooopqqq666677788rr999000saaabbbttttcccdddeeffffhhhhhhhiiihhhhhihggghgggggffffeefeedddcccccttttccttttbbbtttbbbbbttttttccccccddeddeeefffggfgghhhjiijkkklllmm**=--;;;;>>,,,'''!))!~~~~~~~~{{~~~~{{!!!~~!!!)!!)))''',,>>>;>--;--;;;;----------=---==---=----------;;;;--;-->;>>>,,''')))!!)!!!~~!!!{{~~~~{{~~~~~~~~!))!''',,,>>;;;;--=**mmlllkkkjiijhhhggfggfffeeeddeddccccccttttttbbbbbtttbbbttttccttttcccccdddeefeeffffggggghggghihhhhhiiihhhhhhhffffeedddcccttttbbbaaas000999rr887776666qqqpoooooonnnnnnuuvvvvwwwwwwwwwwwwwvvvvvvvuv",
"8r888rr9rrrrrrr9999999999999999999999rrrr999000999999000000000000000009999999r9999990000000ssssssssaasaabbttcdcddeeefgggghhhiijjjjjkkkklkkkkllllllllmmllllllkkkklllkkkkkkkkllklkkkklkkllllllllklllmmmmllllmlllllmllmmmmmmmmm******==**=---;;;,,,,''''))))!!~!!{{{]]]]]]^]^^^^^^^///^^///^^^^^^^]^]]]]]]{{{!!~!!))))'''',,,,;;;---=**==******mmmmmmmmmllmlllllmllllmmmmlllkllllllllkklkkkklkllkkkkkkkklllkkkkllllllmmllllllllkkkklkkkkjjjjjiihhhggggfeeeddcdcttbbaasaassssssss0000000999999r999999900000000000000000999999000999rrrr9999999999999999999999rrrrrrr9rr888r8",
"pqpppqqqqqqqq667777778rrrrrr9999009999999000ssssss000ss0000000sssssssssaaaaaabtttttcdddddddffffffgghhggfgggghhghggggggggffffggggfffggggggggghiiiiiiijkkkkkkkkkkkmmlkkllllllmmlmmmmlmllmllllllllmmm*****===-==;;;>;;,,,,,,,,')))))!~~!!!!!!!!!~~~!!!!))))''')''))'))))))))!!!!~~~{{{~~{{{~~~!!!!))))))))'))'')'''))))!!!!~~~!!!!!!!!!~~!)))))',,,,,,,,;;>;;;==-===*****mmmllllllllmllmlmmmmlmmllllllkklmmkkkkkkkkkkkjiiiiiiihgggggggggfffggggffffgggggggghghhggggfgghhggffffffdddddddctttttbaaaaaasssssssss0000000ss000ssssss0009999999009999rrrrrr877777766qqqqqqqqpppqp",
"wvvvvunnnooooppqqq6666777778rrrrrrrrrrrrr99900009999900999999r9999rrrrrrr88888888887888877788877777887778888rr8rr999000000ssaabbbbtcccdddeeefggggghhiiiiiiijjjjjkkkjjkkkkkkllkllkkklkklkkkkkkjjkkkkkkkkkkjkjjkjjkjjjjjjjiiiijjiiiijjiiijjjjjjkkkklllllllllm*mm===-;;;;>>>'''')))!!~!!~!!)))''''>>>;;;;-===mm*mlllllllllkkkkjjjjjjiiijjiiiijjiiiijjjjjjjkjjkjjkjkkkkkkkkkkjjkkkkkklkklkkkllkllkkkkkkjjkkkjjjjjiiiiiiihhgggggfeeedddccctbbbbaass000000999rr8rr88887778877777888777888878888888888rrrrrrr9999r99999900999990000999rrrrrrrrrrrrr8777776666qqqppoooonnnuvvvvw",
"unuunoooooppppp666677788rrrr00000ssssssaabbbtttttttbbtttttttttccccccccccctttttccccttcccccctccccccccddtttctttccbtttttctttttttcccccccdeeeeeeffggghhhhijjjjkkkkllllm**mm**====--=------==---------;;;>>>>>>>;>;;>>>,>;>>>>>>>;;>>>>>>,,>;;>>;;;;>;;;;;;;------;--;;;>>>,,,,,')))))!~~~~~~~~!)))))',,,,,>>>;;;--;------;;;;;;;>;;;;>>;;>,,>>>>>>;;>>>>>>>;>,>>>;;>;>>>>>>>;;;---------==------=--====**mm**mllllkkkkjjjjihhhhgggffeeeeeedccccccctttttttctttttbcctttctttddcccccccctccccccttcccctttttccccccccccctttttttttbbtttttttbbbaassssss00000rrrr887776666pppppooooonuunu",
"8r888rrrrrrrrrr9000000ssssssaaaaaassssss0sssssss000090099999990000000sssaaaaaatttttcddddeeefgggghhhiihhhiiiijihiihhhiiiiiihhjjjjjjjkkkkkkkkkllllmmmm************==*mm***mmm*mlmmlllmkklkkkkkkkklllmmm***==-==-;;>;;,,,,,''''!!!!~~{{~~~{{{{{{{{{{~~~~~~~~~!~~~{{{]]]]]]]]^^^^^^^(((//(((^^^^^^^]]]]]]]]{{{~~~!~~~~~~~~~{{{{{{{{{{~~~{{~~!!!!'''',,,,,;;>;;-==-==***mmmlllkkkkkkkklkkmlllmmlm*mmm***mm*==************mmmmllllkkkkkkkkkjjjjjjjhhiiiiiihhhiihijiiiihhhiihhhggggfeeeddddctttttaaaaaasss000000099999990090000sssssss0ssssssaaaaaassssss0000009rrrrrrrrrr888r8",
"pqpppqqqqqqqqqq6666666777788rrrr999990000saabbbtttttcddddddeeeffffeeeeeeeddddcddccctcctttttctttttttttbbbttttcctcccccdddddddefffffffggggggggghhhhhhhhiiiiiijjjjjjlllkkmmmmm*==*=----;;;>>>>>,,,,'''''''''',',,,,,,>>>>>;;;;;;;;;;;;>;---;;;;;;>>>>>>>>>>>>>>',,'''))))))))!!!!!!!~~~!!~~~!!!!!!!))))))))''',,'>>>>>>>>>>>>>>;;;;;;---;>;;;;;;;;;;;;>>>>>,,,,,,','''''''''',,,,>>>>>;;;----=*==*mmmmmkkllljjjjjjiiiiiihhhhhhhhgggggggggfffffffedddddddccccctccttttbbbtttttttttctttttcctcccddcddddeeeeeeeffffeeeddddddctttttbbbaas000099999rrrr8877776666666qqqqqqqqqqpppqp"};
