/* XPM */
static char * panther_shade_brushed_xpm[] = {
"22 22 91 1",
" 	c #EFEFEF",
".	c #EEEEEE",
"+	c #E0E2E4",
"@	c #C4C4C4",
"#	c #C3C3C3",
"$	c #C6C6C6",
"%	c #CACACA",
"&	c #ADADAD",
"*	c #ACACAC",
"=	c #AEAEAE",
"-	c #B1B1B1",
";	c #A8A8A8",
">	c #A9A9A9",
",	c #AAAAAA",
"'	c #ABABAB",
")	c #A4A4A4",
"!	c #A3A3A3",
"~	c #A5A5A5",
"{	c #A6A6A6",
"]	c #A7A7A7",
"^	c #676767",
"/	c #3F3F3F",
"(	c #292929",
"_	c #262626",
":	c #282828",
"<	c #666666",
"[	c #575757",
"}	c #464646",
"|	c #878787",
"1	c #BBBBBB",
"2	c #C0C0C0",
"3	c #BFBFBF",
"4	c #555555",
"5	c #AFAFAF",
"6	c #6E6E6E",
"7	c #434343",
"8	c #9A9A9A",
"9	c #D0D0D0",
"0	c #E0E0E0",
"a	c #E6E6E6",
"b	c #E9E9E9",
"c	c #6D6D6D",
"d	c #4A4A4A",
"e	c #767676",
"f	c #B3B3B3",
"g	c #CDCDCD",
"h	c #D6D6D6",
"i	c #D8D8D8",
"j	c #D7D7D7",
"k	c #494949",
"l	c #A2A2A2",
"m	c #353535",
"n	c #939393",
"o	c #CBCBCB",
"p	c #CCCCCC",
"q	c #393939",
"r	c #A1A1A1",
"s	c #C9C9C9",
"t	c #D5D5D5",
"u	c #DCDCDC",
"v	c #DEDEDE",
"w	c #DFDFDF",
"x	c #383838",
"y	c #585858",
"z	c #999999",
"A	c #E4E4E4",
"B	c #F3F3F3",
"C	c #F9F9F9",
"D	c #F7F7F7",
"E	c #F8F8F8",
"F	c #848484",
"G	c #BDBDBD",
"H	c #FAFAFA",
"I	c #FCFCFC",
"J	c #FDFDFD",
"K	c #C2C2C2",
"L	c #7D7D7D",
"M	c #4F4F4F",
"N	c #959595",
"O	c #D9D9D9",
"P	c #DBDBDB",
"Q	c #B2B2B2",
"R	c #979797",
"S	c #5B5B5B",
"T	c #2D2D2D",
"U	c #1F1F1F",
"V	c #212121",
"W	c #2F2F2F",
"X	c #B7B7B7",
"Y	c #B8B8B8",
"Z	c #C1C1C1",
"                   . +",
"@@@@@@@@@@#########@$%",
"&&&&&&&&&&*&&&&&&&&==-",
";;>>>>>>>>;>>>>>,,,,,'",
")))!!!!!!!!!!!))))~~~{",
"{]]]]]];;;]]]]];;;;;;;",
",,,,,,,,,,>>>>>>>>>>>>",
"'''''''''',,,,,,,,,,,,",
"~~)^/(_::::::::_(/<!))",
"',[}|=1233223321=|}4{]",
"567890abbbbbbbba0987c&",
"*defghiiijjjjiiihgfek{",
"lmn1@%oppo%%oppo%@1nm;",
">qrstuv0vw00wv0vutsrx!",
"]yzoABCDCECCECDCBAoz[;",
"]F[GAHIJJJJJJJJIHAG[F)",
"lKLMN#hOOOOOOOOPpNMLK!",
"&QpRSTUVVVVVVVVUWSRo5>",
",'5K9h000000000uh9K5',",
";>>'XY2ZZ222222ZYX',>>",
">>,,,,,''','''''******",
"==========&&&&&&&*****"};
