/* XPM */
static char * panther_iconify_pressed_brushed_xpm[] = {
"22 22 193 2",
"  	c None",
". 	c #F0F0F0",
"+ 	c #C1C1C1",
"@ 	c #C0C0C0",
"# 	c #AEAEAE",
"$ 	c #ADADAD",
"% 	c #ACACAC",
"& 	c #A4A4A4",
"* 	c #A5A5A5",
"= 	c #A6A6A6",
"- 	c #AFAFAF",
"; 	c #B0B0B0",
"> 	c #B1B1B1",
", 	c #A3A3A3",
"' 	c #A2A2A2",
") 	c #818181",
"! 	c #545252",
"~ 	c #34292A",
"{ 	c #200C0E",
"] 	c #332929",
"^ 	c #535151",
"/ 	c #AAAAAA",
"( 	c #686666",
"_ 	c #3E2929",
": 	c #624244",
"< 	c #8E7576",
"[ 	c #A39090",
"} 	c #A49090",
"| 	c #8F7576",
"1 	c #644546",
"2 	c #3D2929",
"3 	c #6B6969",
"4 	c #656262",
"5 	c #401B1C",
"6 	c #835357",
"7 	c #BE9D9C",
"8 	c #DACECC",
"9 	c #E7DEDE",
"0 	c #DACDCC",
"a 	c #825357",
"b 	c #411B1F",
"c 	c #666363",
"d 	c #838383",
"e 	c #422024",
"f 	c #7C3D37",
"g 	c #B87E6C",
"h 	c #D9B29C",
"i 	c #E8CEB5",
"j 	c #EAD2B8",
"k 	c #EAD2B7",
"l 	c #B97E6D",
"m 	c #813F39",
"n 	c #4A2125",
"o 	c #A7A7A7",
"p 	c #655D5D",
"q 	c #61201B",
"r 	c #AD5B38",
"s 	c #CA813F",
"t 	c #DC9B46",
"u 	c #E1A64C",
"v 	c #E1A74E",
"w 	c #E0A54B",
"x 	c #DA9A46",
"y 	c #CA823F",
"z 	c #AC5B39",
"A 	c #732520",
"B 	c #655E5E",
"C 	c #A8A8A8",
"D 	c #A1A1A1",
"E 	c #512C2D",
"F 	c #8B4125",
"G 	c #C57027",
"H 	c #D88517",
"I 	c #E09217",
"J 	c #E59B22",
"K 	c #E89E28",
"L 	c #E7A028",
"M 	c #E69C22",
"N 	c #E39317",
"O 	c #D88717",
"P 	c #C57327",
"Q 	c #9A482A",
"R 	c #522D2D",
"S 	c #641911",
"T 	c #B3662B",
"U 	c #DB8719",
"V 	c #843600",
"W 	c #874200",
"X 	c #884B00",
"Y 	c #874D00",
"Z 	c #894D00",
"` 	c #884600",
" .	c #853800",
"..	c #DE8B1A",
"+.	c #B6672C",
"@.	c #631A11",
"#.	c #A9A9A9",
"$.	c #792F12",
"%.	c #C77B2B",
"&.	c #EA9B22",
"*.	c #8C4A00",
"=.	c #8C5700",
"-.	c #8C5E00",
";.	c #8A6000",
">.	c #8C5F00",
",.	c #8D5B00",
"'.	c #8C4B00",
").	c #EE9E21",
"!.	c #C97E2B",
"~.	c #7A2F12",
"{.	c #80533A",
"].	c #CC8127",
"^.	c #F2AA34",
"/.	c #FCBD42",
"(.	c #FDCA52",
"_.	c #FDD463",
":.	c #FDD96A",
"<.	c #FDDA6B",
"[.	c #FDD764",
"}.	c #FDCB54",
"|.	c #F4AE36",
"1.	c #D08427",
"2.	c #82533B",
"3.	c #ABABAB",
"4.	c #8A7A70",
"5.	c #C17B1B",
"6.	c #F1B141",
"7.	c #FBC954",
"8.	c #FDD861",
"9.	c #FEE36F",
"0.	c #FFEC79",
"a.	c #FFEF7A",
"b.	c #FEE772",
"c.	c #FEDA62",
"d.	c #FBCB55",
"e.	c #F2B641",
"f.	c #C37B1B",
"g.	c #8B7A70",
"h.	c #A6A4A3",
"i.	c #92662D",
"j.	c #DFA83D",
"k.	c #F7D15F",
"l.	c #FDE772",
"m.	c #FFF47D",
"n.	c #FFFA84",
"o.	c #FFFD85",
"p.	c #FFF57E",
"q.	c #FEEB73",
"r.	c #F9D561",
"s.	c #E1AD3D",
"t.	c #94682F",
"u.	c #A8A6A4",
"v.	c #BDBDBD",
"w.	c #95908A",
"x.	c #9A7523",
"y.	c #DBBB50",
"z.	c #F4E477",
"A.	c #FAF585",
"B.	c #FDFD91",
"C.	c #FDFC92",
"D.	c #FAF888",
"E.	c #F5EB79",
"F.	c #E2C755",
"G.	c #9E7B23",
"H.	c #BCBCBC",
"I.	c #C4C4C4",
"J.	c #94918C",
"K.	c #887941",
"L.	c #AFA442",
"M.	c #D0CB67",
"N.	c #E6E480",
"O.	c #E7E381",
"P.	c #D2CF6A",
"Q.	c #B5AE45",
"R.	c #8C7E43",
"S.	c #95928D",
"T.	c #C6C6C6",
"U.	c #C8C8C8",
"V.	c #C2C1C0",
"W.	c #908E81",
"X.	c #87844E",
"Y.	c #858135",
"Z.	c #858235",
"`.	c #8D8B4F",
" +	c #918F81",
".+	c #C3C3C3",
"++	c #CACACA",
"@+	c #B4B4B4",
"#+	c #C9C9C9",
"$+	c #D7D7D7",
"%+	c #DBDBDB",
"&+	c #D3D3D3",
"*+	c #B6B6B6",
". . . . . . . . . . . . . . . . . . . . . . ",
"+ + + + + + + + + + + + + + + + + + + + @ @ ",
"# # # # # $ $ $ # $ % % $ $ $ # # # # $ % % ",
"& & & & & & & & * * & & * * * = = = = = = = ",
"$ # # # # # # # - - # # - ; ; > > > > ; - - ",
", , , , , ' ' ) ! ~ { { ] ^ ) , , , , , ' ' ",
"/ / / / / / ( _ : < [ } | 1 2 3 - - - - # # ",
"= * * * * 4 5 6 7 8 9 9 0 7 a b c * * * & & ",
"& & & & d e f g h i j k i h l m n d & & , , ",
"o o o o p q r s t u v v w x y z A B C C C C ",
"D D D D E F G H I J K L M N O P Q R , & , , ",
"/ / / / S T U V W X Y Z Z `  ...+.@./ / #.#.",
"#.#.#.#.$.%.&.*.=.-.;.>.>.,.'.).!.~.C C = = ",
"o o o o {.].^./.(._.:.<.[.}./.|.1.2./ / #./ ",
"3.3.3.3.4.5.6.7.8.9.0.a.b.c.d.e.f.g.% % 3.3.",
"o o o o h.i.j.k.l.m.n.o.p.q.r.s.t.u.3.3./ / ",
"; ; ; ; v.w.x.y.z.A.B.C.D.E.F.G.w.H.- # $ $ ",
"= = = = = I.J.K.L.M.N.O.P.Q.R.S.T./ / / / / ",
"% % $ $ $ $ U.V.W.X.Y.Z.`. +.+++- - - - # # ",
"' ' ' ' ' D D @+#+$+%+%+&+#+@+, , , , , ' ' ",
"3./ / / / / / / $ > *+*+; $ / 3./ / / / #.C ",
"$ $ $ # # # # - ; ; - - ; ; ; > > > > > - - "};
