/* XPM */
static char * linther_stick_brushed2_xpm[] = {
"22 22 120 2",
"  	c None",
". 	c #F0F0F0",
"+ 	c #C0C0C0",
"@ 	c #C1C1C1",
"# 	c #ACACAC",
"$ 	c #ADADAD",
"% 	c #AEAEAE",
"& 	c #A6A6A6",
"* 	c #A5A5A5",
"= 	c #A4A4A4",
"- 	c #AFAFAF",
"; 	c #B0B0B0",
"> 	c #B1B1B1",
", 	c #A2A2A2",
"' 	c #A3A3A3",
") 	c #818181",
"! 	c #525252",
"~ 	c #2C2C2C",
"{ 	c #121212",
"] 	c #535353",
"^ 	c #6A6A6A",
"/ 	c #2F2F2F",
"( 	c #4E4E4E",
"_ 	c #7D7D7D",
": 	c #969696",
"< 	c #4C4C4C",
"[ 	c #676767",
"} 	c #AAAAAA",
"| 	c #646464",
"1 	c #272727",
"2 	c #626262",
"3 	c #A7A7A7",
"4 	c #D1D1D1",
"5 	c #E1E1E1",
"6 	c #262626",
"7 	c #636363",
"8 	c #838383",
"9 	c #2E2E2E",
"0 	c #8E8E8E",
"a 	c #BBBBBB",
"b 	c #D3D3D3",
"c 	c #D6D6D6",
"d 	c #8D8D8D",
"e 	c #4F4F4F",
"f 	c #2B2B2B",
"g 	c #A8A8A8",
"h 	c #606060",
"i 	c #3C3C3C",
"j 	c #707070",
"k 	c #909090",
"l 	c #333333",
"m 	c #5F5F5F",
"n 	c #383838",
"o 	c #5D5D5D",
"p 	c #939393",
"q 	c #9D9D9D",
"r 	c #9C9C9C",
"s 	c #929292",
"t 	c #545454",
"u 	c #373737",
"v 	c #A1A1A1",
"w 	c #A9A9A9",
"x 	c #787878",
"y 	c #979797",
"z 	c #B7B7B7",
"A 	c #BABABA",
"B 	c #B9B9B9",
"C 	c #B4B4B4",
"D 	c #ABABAB",
"E 	c #A0A0A0",
"F 	c #949494",
"G 	c #777777",
"H 	c #424242",
"I 	c #8B8B8B",
"J 	c #B5B5B5",
"K 	c #C2C2C2",
"L 	c #C9C9C9",
"M 	c #CBCBCB",
"N 	c #C6C6C6",
"O 	c #BFBFBF",
"P 	c #898989",
"Q 	c #5E5E5E",
"R 	c #919191",
"S 	c #B6B6B6",
"T 	c #CDCDCD",
"U 	c #D8D8D8",
"V 	c #D4D4D4",
"W 	c #CCCCCC",
"X 	c #B3B3B3",
"Y 	c #7E7E7E",
"Z 	c #868686",
"` 	c #E7E7E7",
" .	c #E5E5E5",
"..	c #DEDEDE",
"+.	c #B8B8B8",
"@.	c #858585",
"#.	c #6F6F6F",
"$.	c #E3E3E3",
"%.	c #EBEBEB",
"&.	c #EFEFEF",
"*.	c #EAEAEA",
"=.	c #D0D0D0",
"-.	c #6D6D6D",
";.	c #BCBCBC",
">.	c #7C7C7C",
",.	c #C3C3C3",
"'.	c #ECECEC",
").	c #F1F1F1",
"!.	c #DDDDDD",
"~.	c #BDBDBD",
"{.	c #C5C5C5",
"].	c #D9D9D9",
"^.	c #DADADA",
"/.	c #C4C4C4",
"(.	c #CACACA",
"_.	c #7A7A7A",
":.	c #7F7F7F",
"<.	c #C8C8C8",
"[.	c #DBDBDB",
"}.	c #D7D7D7",
". . . . . . . . . . . . . . . . . . . . . . ",
"+ + @ @ @ @ @ @ @ @ @ @ @ @ @ @ @ @ @ @ @ @ ",
"# # $ % % % % $ $ $ # # $ % $ $ $ % % % % % ",
"& & & & & & & * * * = = * * = = = = = = = = ",
"- - ; > > > > ; ; - % % - - % % % % % % % $ ",
", , ' ' ' ' ' ) ! ~ { { ~ ] ) , , ' ' ' ' ' ",
"% % - - - - ^ / ( _ : : _ < / [ } } } } } } ",
"= = * * * | 1 2 3 4 5 5 4 3 2 6 7 * * * * & ",
"' ' = = 8 9 ! 0 a b c c b a d e f 8 = = = = ",
"g g g g h i j k = $ - - % * k j l m 3 3 3 3 ",
"' ' = ' n o 8 p q * g 3 = r s ) t u v v v v ",
"w w } } / x y ' $ z A B C D E F G / } } } } ",
"& & g g H I g J K L M L N O C * P H w w w w ",
"} w } } Q R S K T c U U V W K X 0 Q 3 3 3 3 ",
"D D # # Y Z a W U 5 `  ...c M +.@.Y D D D D ",
"} } D D & #.; b $.%.. &.*.5 =.$ -.= 3 3 3 3 ",
"$ $ % - ;.R >.,.5 '.).).*.!.B G R ~.; ; ; ; ",
"} } } } } N s >.* {.].^.@ q G R /.& & & & & ",
"% % - - - - (.,.0 @._._.:.d @ <.$ $ $ $ # # ",
", , ' ' ' ' ' C L b [.[.}.L C v v , , , , , ",
"g w } } } } D } $ ; S S > $ } } } } } } } D ",
"- - > > > > > ; ; ; - - ; ; - % % % % $ $ $ "};
