/* XPM */
static char * panther_maximize_brushed_xpm[] = {
"22 22 202 2",
"  	c None",
". 	c #F0F0F0",
"+ 	c #EFEFEF",
"@ 	c #C0C0C0",
"# 	c #C1C1C1",
"$ 	c #C2C2C2",
"% 	c #C3C3C3",
"& 	c #ACACAC",
"* 	c #ADADAD",
"= 	c #AEAEAE",
"- 	c #A6A6A6",
"; 	c #A8A8A8",
"> 	c #A9A9A9",
", 	c #AAAAAA",
"' 	c #AFAFAF",
") 	c #B0B0B0",
"! 	c #A2A2A2",
"~ 	c #A3A3A3",
"{ 	c #828282",
"] 	c #525252",
"^ 	c #2A2A2A",
"/ 	c #0E0E0E",
"( 	c #3E3E3E",
"_ 	c #6B6B6B",
": 	c #959595",
"< 	c #A7A7A7",
"[ 	c #6A6A6A",
"} 	c #2B2B2B",
"| 	c #464646",
"1 	c #767676",
"2 	c #909190",
"3 	c #919290",
"4 	c #5E5E5E",
"5 	c #393939",
"6 	c #4A4A4A",
"7 	c #8D8D8D",
"8 	c #A4A4A4",
"9 	c #A5A5A5",
"0 	c #646464",
"a 	c #1E1B1E",
"b 	c #575A57",
"c 	c #9CA39C",
"d 	c #CBCFCC",
"e 	c #DDE1E0",
"f 	c #DEE1DE",
"g 	c #B3B9B4",
"h 	c #797E7A",
"i 	c #3A3A3B",
"j 	c #414042",
"k 	c #888888",
"l 	c #ABABAB",
"m 	c #838383",
"n 	c #252525",
"o 	c #3A4A3A",
"p 	c #6D8C6D",
"q 	c #9DBD9C",
"r 	c #BCD4B3",
"s 	c #C3D8B8",
"t 	c #ADC9A7",
"u 	c #85A584",
"v 	c #536A53",
"w 	c #2F372F",
"x 	c #555555",
"y 	c #5F5F5F",
"z 	c #223420",
"A 	c #3E7138",
"B 	c #58943E",
"C 	c #77AD46",
"D 	c #83B34E",
"E 	c #85B552",
"F 	c #86B652",
"G 	c #7CAF49",
"H 	c #67A042",
"I 	c #4B823B",
"J 	c #30532C",
"K 	c #424B40",
"L 	c #878787",
"M 	c #2F342E",
"N 	c #2C5E29",
"O 	c #428625",
"P 	c #559B19",
"Q 	c #67A51A",
"R 	c #73AD28",
"S 	c #75B12D",
"T 	c #74B02C",
"U 	c #6EAB22",
"V 	c #5FA21B",
"W 	c #4B921F",
"X 	c #367327",
"Y 	c #2E4A2C",
"Z 	c #6E716E",
"` 	c #172D10",
" .	c #3D7B2B",
"..	c #589C1C",
"+.	c #69AA1A",
"@.	c #76B42B",
"#.	c #83BF3E",
"$.	c #88C341",
"%.	c #89C342",
"&.	c #7EBC34",
"*.	c #72B223",
"=.	c #63A51B",
"-.	c #4C8D24",
";.	c #2A541E",
">.	c #636E5F",
",.	c #1A3C11",
"'.	c #528D2B",
").	c #71B028",
"!.	c #7FBE32",
"~.	c #8EC946",
"{.	c #9AD455",
"].	c #A0D85B",
"^.	c #A0D85C",
"/.	c #95D14F",
"(.	c #87C63C",
"_.	c #79B82C",
":.	c #62A029",
"<.	c #37671D",
"[.	c #61725A",
"}.	c #425B3A",
"|.	c #5A9425",
"1.	c #81BD3A",
"2.	c #93D149",
"3.	c #A1DA5B",
"4.	c #ADE568",
"5.	c #B5EB6F",
"6.	c #B5EB70",
"7.	c #A8E262",
"8.	c #9AD751",
"9.	c #8AC841",
"0.	c #6EAB2F",
"a.	c #4E7B2F",
"b.	c #788673",
"c.	c #737C70",
"d.	c #518A1A",
"e.	c #8AC144",
"f.	c #A0DB59",
"g.	c #AFE968",
"h.	c #BBF475",
"i.	c #C4FC7E",
"j.	c #C5FB7F",
"k.	c #B7F371",
"l.	c #A9E462",
"m.	c #96D151",
"n.	c #6FA830",
"o.	c #638445",
"p.	c #90958E",
"q.	c #A4A5A4",
"r.	c #4D722D",
"s.	c #7FB93F",
"t.	c #A9DF66",
"u.	c #BFF779",
"v.	c #CBFF83",
"w.	c #D1FF8A",
"x.	c #D3FF8B",
"y.	c #C7FD7F",
"z.	c #B6F071",
"A.	c #97D154",
"B.	c #699837",
"C.	c #7A8D69",
"D.	c #A7A8A7",
"E.	c #B9B9B9",
"F.	c #8D918A",
"G.	c #558126",
"H.	c #95CD55",
"I.	c #BCF07C",
"J.	c #CDFA8C",
"K.	c #DBFD95",
"L.	c #DBFD96",
"M.	c #C8F685",
"N.	c #B0E66B",
"O.	c #7CAF3F",
"P.	c #738A57",
"Q.	c #A1A39F",
"R.	c #C7C7C7",
"S.	c #91938D",
"T.	c #658043",
"U.	c #81AC48",
"V.	c #AACE6B",
"W.	c #C2E282",
"X.	c #C6E486",
"Y.	c #9AC05F",
"Z.	c #789D48",
"`.	c #7D8E69",
" +	c #ADAFAC",
".+	c #BDBDBD",
"++	c #C8C8C8",
"@+	c #C1C1C0",
"#+	c #899082",
"$+	c #708550",
"%+	c #668138",
"&+	c #678339",
"*+	c #7F8E6A",
"=+	c #A6AAA2",
"-+	c #C5C5C5",
";+	c #BABABA",
">+	c #B6B6B6",
",+	c #CACACA",
"'+	c #D8D8D8",
")+	c #DBDBDB",
"!+	c #CFCFCF",
"~+	c #B4B4B4",
". . . + . . . . . + + + + + + + + + + + + + ",
"@ @ @ @ # # # # # # # $ $ $ % % % % % % % % ",
"& & & & * * * * * * * * * * = = = = = = = = ",
"- - - - ; ; ; ; ; ; ; ; > > , , , , , , , , ",
"' ' ' ' ) ' ' ' ' = = = = = = = * * * * & & ",
"! ! ! ! ~ ~ ~ { ] ^ / / ( _ : - - - < < < < ",
"= = = = ) ) [ } | 1 2 3 4 5 6 7 ) ) ' ' ' ' ",
"8 9 9 9 - 0 a b c d e f g h i j k l l l l & ",
"~ ~ ~ ~ m n o p q r s s t u v w x : - - - - ",
"; ; ; ; y z A B C D E F G H I J K L = = = = ",
"~ ~ 8 8 M N O P Q R S T U V W X Y Z & & * * ",
"> > , , `  ...+.@.#.$.%.&.*.=.-.;.>.= = = = ",
"- - - - ,.'.).!.~.{.].^./.(._.:.<.[.9 8 8 8 ",
", , , , }.|.1.2.3.4.5.6.7.8.9.0.a.b.* * * * ",
"l l l , c.d.e.f.g.h.i.j.k.l.m.n.o.p.& & l l ",
", , , , q.r.s.t.u.v.w.x.y.z.A.B.C.D., , , , ",
"* & & & E.F.G.H.I.J.K.L.M.N.O.P.Q.' ; ; ; ; ",
", , , l & R.S.T.U.V.W.X.Y.Z.`. +.+) ) ) ) ) ",
"= = * * = = ++@+#+$+%+&+*+=+-+;+* & & & & & ",
"! ! ! ~ 8 8 8 >+,+'+)+)+!+# ' - < < < < ; ; ",
"; ; ; ; > > > ; l = ~+~+& , > > > > > > > > ",
"' ' ' = ' ' ' ' ' ' ' ' = ' ) ) ) ) ) ) ) ) "};
