/* XPM */
static char * linther_close_unfocused_brushed_xpm[] = {
"22 22 124 2",
"  	g None",
". 	g #EEEEEE",
"+ 	g #EFEFEF",
"@ 	g #F0F0F0",
"# 	g #C2C2C2",
"$ 	g #C1C1C1",
"% 	g #B0B0B0",
"& 	g #AFAFAF",
"* 	g #AEAEAE",
"= 	g #ADADAD",
"- 	g #A9A9A9",
"; 	g #A8A8A8",
"> 	g #A7A7A7",
", 	g #A6A6A6",
"' 	g #A5A5A5",
") 	g #A4A4A4",
"! 	g #ACACAC",
"~ 	g #858585",
"{ 	g #535353",
"] 	g #2B2B2B",
"^ 	g #0E0E0E",
"/ 	g #848484",
"( 	g #A3A3A3",
"_ 	g #656565",
": 	g #474747",
"< 	g #787878",
"[ 	g #929292",
"} 	g #666666",
"| 	g #AAAAAA",
"1 	g #646464",
"2 	g #1A1A1A",
"3 	g #5A5A5A",
"4 	g #A0A0A0",
"5 	g #CDCDCD",
"6 	g #E0E0E0",
"7 	g #E1E1E1",
"8 	g #CFCFCF",
"9 	g #5B5B5B",
"0 	g #292929",
"a 	g #414141",
"b 	g #5F5F5F",
"c 	g #3F3F3F",
"d 	g #BDBDBD",
"e 	g #C0C0C0",
"f 	g #424242",
"g 	g #2A2A2A",
"h 	g #5D5D5D",
"i 	g #4E4E4E",
"j 	g #2D2D2D",
"k 	g #262626",
"l 	g #3B3B3B",
"m 	g #7F7F7F",
"n 	g #4F4F4F",
"o 	g #2C2C2C",
"p 	g #5E5E5E",
"q 	g #323232",
"r 	g #3D3D3D",
"s 	g #494949",
"t 	g #313131",
"u 	g #3A3A3A",
"v 	g #484848",
"w 	g #3E3E3E",
"x 	g #333333",
"y 	g #A2A2A2",
"z 	g #A1A1A1",
"A 	g #1C1C1C",
"B 	g #515151",
"C 	g #6F6F6F",
"D 	g #303030",
"E 	g #707070",
"F 	g #616161",
"G 	g #1E1E1E",
"H 	g #ABABAB",
"I 	g #252525",
"J 	g #676767",
"K 	g #767676",
"L 	g #868686",
"M 	g #4D4D4D",
"N 	g #383838",
"O 	g #888888",
"P 	g #797979",
"Q 	g #6A6A6A",
"R 	g #545454",
"S 	g #8B8B8B",
"T 	g #585858",
"U 	g #434343",
"V 	g #8D8D8D",
"W 	g #757575",
"X 	g #4B4B4B",
"Y 	g #828282",
"Z 	g #636363",
"` 	g #525252",
" .	g #B7B7B7",
"..	g #B8B8B8",
"+.	g #777777",
"@.	g #686868",
"#.	g #BABABA",
"$.	g #BFBFBF",
"%.	g #BCBCBC",
"&.	g #8F8F8F",
"*.	g #7C7C7C",
"=.	g #B9B9B9",
"-.	g #4A4A4A",
";.	g #8E8E8E",
">.	g #B1B1B1",
",.	g #BEBEBE",
"'.	g #C8C8C8",
").	g #C9C9C9",
"!.	g #B3B3B3",
"~.	g #959595",
"{.	g #C4C4C4",
"].	g #9A9A9A",
"^.	g #B5B5B5",
"/.	g #9D9D9D",
"(.	g #C6C6C6",
"_.	g #5C5C5C",
":.	g #6C6C6C",
"<.	g #C3C3C3",
"[.	g #C7C7C7",
"}.	g #B6B6B6",
"|.	g #CACACA",
"1.	g #D8D8D8",
"2.	g #DBDBDB",
"3.	g #D4D4D4",
". . . . . . + + + + + + + + + + @ @ @ @ @ @ ",
"# # # # # # # # # # $ $ $ $ $ $ # # # $ $ $ ",
"% % % % % % % % % & & & & & & * & & & & & * ",
"= - ; ; > > , , , ' ' ' ' ' ) ) ' ' ' ' ' ) ",
"! = = = = = ! ! ! ! ! ! ! ! ! ! = = = = = = ",
"> ; > > > > > ~ { ] ^ ^ ] { / ) ' ' ) ) ) ( ",
", , , , , , _ ] : < [ [ < : ] } - - - - - | ",
"; - - - - 1 2 3 4 5 6 7 8 4 9 2 1 > > , , , ",
"( ) ) ) / 0 a b c d $ e d c b f g / ) ) ) ) ",
", > > > h g i j k l m m l k j n o p > > > > ",
"( ) ) ( q r s n t g u u g t n v w x y z z z ",
"> ; ; ; A : B b C l D D l E F { : G | | | | ",
"H H H H I n J K L M N N i O P Q i I | | - - ",
") ' ' ' v R < S T U n n U T V P R s ; > > > ",
"! = = = W X Y Z ` h  ...h ` Z / X W H H H H ",
"z y y y y X +.V @.#.$.$ %.@.&.*.X ( , > > > ",
"| H H H =.V -.;.>.,.'.).$ !.~.M V d % % % % ",
", > , , , {.&.F W ].>.^./.P 1 &.{., , , , , ",
"> ; ; - - - (.e L @.9 _.:.L <.[.! ! ! ! ! ! ",
") ' ' ' ' ) ) }.|.1.2.2.3.).^.y ( ( ( ( y y ",
"H ! ! ! ! H H H = >. . .>.= | | H H H H H H ",
", ; ; ; - - - - - - | | | | | H ! ! ! ! = = "};
