/* XPM */
static char * panther_iconify_brushed_xpm[] = {
"22 22 195 2",
"  	c None",
". 	c #F0F0F0",
"+ 	c #C1C1C1",
"@ 	c #C0C0C0",
"# 	c #AEAEAE",
"$ 	c #ADADAD",
"% 	c #ACACAC",
"& 	c #A4A4A4",
"* 	c #A5A5A5",
"= 	c #A6A6A6",
"- 	c #AFAFAF",
"; 	c #B0B0B0",
"> 	c #B1B1B1",
", 	c #A3A3A3",
"' 	c #A2A2A2",
") 	c #818181",
"! 	c #545252",
"~ 	c #34292A",
"{ 	c #200C0E",
"] 	c #332929",
"^ 	c #535151",
"/ 	c #AAAAAA",
"( 	c #686666",
"_ 	c #3E2929",
": 	c #624244",
"< 	c #8E7576",
"[ 	c #A39090",
"} 	c #A49090",
"| 	c #8F7576",
"1 	c #644546",
"2 	c #3D2929",
"3 	c #6B6969",
"4 	c #656262",
"5 	c #401B1C",
"6 	c #835357",
"7 	c #BE9D9C",
"8 	c #DACECC",
"9 	c #E7DEDE",
"0 	c #DACDCC",
"a 	c #825357",
"b 	c #411B1F",
"c 	c #666363",
"d 	c #838383",
"e 	c #422024",
"f 	c #7C3D37",
"g 	c #B87E6C",
"h 	c #D9B29C",
"i 	c #E8CEB5",
"j 	c #EAD2B8",
"k 	c #EAD2B7",
"l 	c #B97E6D",
"m 	c #813F39",
"n 	c #4A2125",
"o 	c #A7A7A7",
"p 	c #655D5D",
"q 	c #61201B",
"r 	c #AD5B38",
"s 	c #CA813F",
"t 	c #DC9B46",
"u 	c #E1A64C",
"v 	c #E1A74E",
"w 	c #E0A54B",
"x 	c #DA9A46",
"y 	c #CA823F",
"z 	c #AC5B39",
"A 	c #732520",
"B 	c #655E5E",
"C 	c #A8A8A8",
"D 	c #A1A1A1",
"E 	c #512C2D",
"F 	c #8B4125",
"G 	c #C57027",
"H 	c #D88517",
"I 	c #E09217",
"J 	c #E59B22",
"K 	c #E89E28",
"L 	c #E7A028",
"M 	c #E69C22",
"N 	c #E39317",
"O 	c #D88717",
"P 	c #C57327",
"Q 	c #9A482A",
"R 	c #522D2D",
"S 	c #641911",
"T 	c #B3662B",
"U 	c #DB8719",
"V 	c #E99613",
"W 	c #F0A126",
"X 	c #F3AB37",
"Y 	c #F5B13E",
"Z 	c #F6B23F",
"` 	c #F5AF38",
" .	c #F2A425",
"..	c #EC9814",
"+.	c #DE8B1A",
"@.	c #B6672C",
"#.	c #631A11",
"$.	c #A9A9A9",
"%.	c #792F12",
"&.	c #C77B2B",
"*.	c #EA9B22",
"=.	c #F8AB2A",
"-.	c #FCB842",
";.	c #FCC050",
">.	c #FAC557",
",.	c #FCC757",
"'.	c #FCC54F",
").	c #FCBC41",
"!.	c #FAAC2B",
"~.	c #EE9E21",
"{.	c #C97E2B",
"].	c #7A2F12",
"^.	c #80533A",
"/.	c #CC8127",
"(.	c #F2AA34",
"_.	c #FCBD42",
":.	c #FDCA52",
"<.	c #FDD463",
"[.	c #FDD96A",
"}.	c #FDDA6B",
"|.	c #FDD764",
"1.	c #FDCB54",
"2.	c #F4AE36",
"3.	c #D08427",
"4.	c #82533B",
"5.	c #ABABAB",
"6.	c #8A7A70",
"7.	c #C17B1B",
"8.	c #F1B141",
"9.	c #FBC954",
"0.	c #FDD861",
"a.	c #FEE36F",
"b.	c #FFEC79",
"c.	c #FFEF7A",
"d.	c #FEE772",
"e.	c #FEDA62",
"f.	c #FBCB55",
"g.	c #F2B641",
"h.	c #C37B1B",
"i.	c #8B7A70",
"j.	c #A6A4A3",
"k.	c #92662D",
"l.	c #DFA83D",
"m.	c #F7D15F",
"n.	c #FDE772",
"o.	c #FFF47D",
"p.	c #FFFA84",
"q.	c #FFFD85",
"r.	c #FFF57E",
"s.	c #FEEB73",
"t.	c #F9D561",
"u.	c #E1AD3D",
"v.	c #94682F",
"w.	c #A8A6A4",
"x.	c #BDBDBD",
"y.	c #95908A",
"z.	c #9A7523",
"A.	c #DBBB50",
"B.	c #F4E477",
"C.	c #FAF585",
"D.	c #FDFD91",
"E.	c #FDFC92",
"F.	c #FAF888",
"G.	c #F5EB79",
"H.	c #E2C755",
"I.	c #9E7B23",
"J.	c #BCBCBC",
"K.	c #C4C4C4",
"L.	c #94918C",
"M.	c #887941",
"N.	c #AFA442",
"O.	c #D0CB67",
"P.	c #E6E480",
"Q.	c #E7E381",
"R.	c #D2CF6A",
"S.	c #B5AE45",
"T.	c #8C7E43",
"U.	c #95928D",
"V.	c #C6C6C6",
"W.	c #C8C8C8",
"X.	c #C2C1C0",
"Y.	c #908E81",
"Z.	c #87844E",
"`.	c #858135",
" +	c #858235",
".+	c #8D8B4F",
"++	c #918F81",
"@+	c #C3C3C3",
"#+	c #CACACA",
"$+	c #B4B4B4",
"%+	c #C9C9C9",
"&+	c #D7D7D7",
"*+	c #DBDBDB",
"=+	c #D3D3D3",
"-+	c #B6B6B6",
". . . . . . . . . . . . . . . . . . . . . . ",
"+ + + + + + + + + + + + + + + + + + + + @ @ ",
"# # # # # $ $ $ # $ % % $ $ $ # # # # $ % % ",
"& & & & & & & & * * & & * * * = = = = = = = ",
"$ # # # # # # # - - # # - ; ; > > > > ; - - ",
", , , , , ' ' ) ! ~ { { ] ^ ) , , , , , ' ' ",
"/ / / / / / ( _ : < [ } | 1 2 3 - - - - # # ",
"= * * * * 4 5 6 7 8 9 9 0 7 a b c * * * & & ",
"& & & & d e f g h i j k i h l m n d & & , , ",
"o o o o p q r s t u v v w x y z A B C C C C ",
"D D D D E F G H I J K L M N O P Q R , & , , ",
"/ / / / S T U V W X Y Z `  ...+.@.#./ / $.$.",
"$.$.$.$.%.&.*.=.-.;.>.,.'.).!.~.{.].C C = = ",
"o o o o ^./.(._.:.<.[.}.|.1._.2.3.4./ / $./ ",
"5.5.5.5.6.7.8.9.0.a.b.c.d.e.f.g.h.i.% % 5.5.",
"o o o o j.k.l.m.n.o.p.q.r.s.t.u.v.w.5.5./ / ",
"; ; ; ; x.y.z.A.B.C.D.E.F.G.H.I.y.J.- # $ $ ",
"= = = = = K.L.M.N.O.P.Q.R.S.T.U.V./ / / / / ",
"% % $ $ $ $ W.X.Y.Z.`. +.+++@+#+- - - - # # ",
"' ' ' ' ' D D $+%+&+*+*+=+%+$+, , , , , ' ' ",
"5./ / / / / / / $ > -+-+; $ / 5./ / / / $.C ",
"$ $ $ # # # # - ; ; - - ; ; ; > > > > > - - "};
