/* XPM */
static char * linther_iconify_unfocused_brushed_xpm[] = {
"22 22 122 2",
"  	g None",
". 	g #F0F0F0",
"+ 	g #C1C1C1",
"@ 	g #C0C0C0",
"# 	g #AEAEAE",
"$ 	g #ADADAD",
"% 	g #ACACAC",
"& 	g #A4A4A4",
"* 	g #A5A5A5",
"= 	g #A6A6A6",
"- 	g #AFAFAF",
"; 	g #B0B0B0",
"> 	g #B1B1B1",
", 	g #A3A3A3",
"' 	g #A2A2A2",
") 	g #818181",
"! 	g #525252",
"~ 	g #2C2C2C",
"{ 	g #121212",
"] 	g #515151",
"^ 	g #AAAAAA",
"/ 	g #666666",
"( 	g #2F2F2F",
"_ 	g #4B4B4B",
": 	g #7C7C7C",
"< 	g #959595",
"[ 	g #969696",
"} 	g #4E4E4E",
"| 	g #696969",
"1 	g #626262",
"2 	g #262626",
"3 	g #616161",
"4 	g #D1D1D1",
"5 	g #E0E0E0",
"6 	g #D0D0D0",
"7 	g #636363",
"8 	g #838383",
"9 	g #2A2A2A",
"0 	g #4F4F4F",
"a 	g #8D8D8D",
"b 	g #BBBBBB",
"c 	g #D3D3D3",
"d 	g #D6D6D6",
"e 	g #2D2D2D",
"f 	g #A7A7A7",
"g 	g #5F5F5F",
"h 	g #323232",
"i 	g #6F6F6F",
"j 	g #8F8F8F",
"k 	g #909090",
"l 	g #3B3B3B",
"m 	g #606060",
"n 	g #A8A8A8",
"o 	g #A1A1A1",
"p 	g #373737",
"q 	g #545454",
"r 	g #919191",
"s 	g #9B9B9B",
"t 	g #9D9D9D",
"u 	g #929292",
"v 	g #5D5D5D",
"w 	g #383838",
"x 	g #2E2E2E",
"y 	g #767676",
"z 	g #949494",
"A 	g #474747",
"B 	g #555555",
"C 	g #565656",
"D 	g #484848",
"E 	g #979797",
"F 	g #787878",
"G 	g #A9A9A9",
"H 	g #424242",
"I 	g #898989",
"J 	g #8B8B8B",
"K 	g #B2B2B2",
"L 	g #C2C2C2",
"M 	g #CCCCCC",
"N 	g #D7D7D7",
"O 	g #D8D8D8",
"P 	g #D5D5D5",
"Q 	g #B5B5B5",
"R 	g #5E5E5E",
"S 	g #ABABAB",
"T 	g #7D7D7D",
"U 	g #858585",
"V 	g #B7B7B7",
"W 	g #CBCBCB",
"X 	g #DEDEDE",
"Y 	g #E5E5E5",
"Z 	g #E6E6E6",
"` 	g #E1E1E1",
" .	g #868686",
"..	g #7E7E7E",
"+.	g #6C6C6C",
"@.	g #CFCFCF",
"#.	g #EAEAEA",
"$.	g #EEEEEE",
"%.	g #E3E3E3",
"&.	g #6E6E6E",
"*.	g #BDBDBD",
"=.	g #777777",
"-.	g #B8B8B8",
";.	g #DCDCDC",
">.	g #F1F1F1",
",.	g #ECECEC",
"'.	g #7B7B7B",
").	g #BCBCBC",
"!.	g #C4C4C4",
"~.	g #9C9C9C",
"{.	g #D9D9D9",
"].	g #C6C6C6",
"^.	g #C8C8C8",
"/.	g #797979",
"(.	g #7A7A7A",
"_.	g #8E8E8E",
":.	g #C3C3C3",
"<.	g #CACACA",
"[.	g #B4B4B4",
"}.	g #C9C9C9",
"|.	g #DBDBDB",
"1.	g #B6B6B6",
". . . . . . . . . . . . . . . . . . . . . . ",
"+ + + + + + + + + + + + + + + + + + + + @ @ ",
"# # # # # $ $ $ # $ % % $ $ $ # # # # $ % % ",
"& & & & & & & & * * & & * * * = = = = = = = ",
"$ # # # # # # # - - # # - ; ; > > > > ; - - ",
", , , , , ' ' ) ! ~ { { ~ ] ) , , , , , ' ' ",
"^ ^ ^ ^ ^ ^ / ( _ : < [ : } ( | - - - - # # ",
"= * * * * 1 2 3 = 4 5 5 6 = 3 2 7 * * * & & ",
"& & & & 8 9 0 a b c d d c b a ! e 8 & & , , ",
"f f f f g h i j * $ # # % , k i l m n n n n ",
"o o o o p q ) r s , f n & t u 8 v w , & , , ",
"^ ^ ^ ^ x y z A 0 B B C C ! D E F x ^ ^ G G ",
"G G G G H I * B v 3 1 1 1 g C n J H n n = = ",
"f f f f v a K L M c N O P M L Q k R ^ ^ G ^ ",
"S S S S T U V W d X Y Z ` N M b  ...% % S S ",
"f f f f & +.% @.5 #.$.. #.%.c ; &.= S S ^ ^ ",
"; ; ; ; *.k =.-.;.#.>.. ,.` L '.k ).- # $ $ ",
"= = = = = !.r =.~.+ {.{.!.& '.u ].^ ^ ^ ^ ^ ",
"% % $ $ $ $ ^.+ a ../.(.U _.:.<.- - - - # # ",
"' ' ' ' ' o o [.}.N |.|.c }.[., , , , , ' ' ",
"S ^ ^ ^ ^ ^ ^ ^ $ > 1.1.; $ ^ S ^ ^ ^ ^ G n ",
"$ $ $ # # # # - ; ; - - ; ; ; > > > > > - - "};
