/* XPM */
static char * panther_button_xpm[] = {
"28 25 123 2",
"  	c None",
". 	c #F9F9F9",
"+ 	c #E1E1E1",
"@ 	c #B6B4B6",
"# 	c #9C9B9C",
"$ 	c #949394",
"% 	c #B9B8B9",
"& 	c #7C7C7C",
"* 	c #6C6B6C",
"= 	c #666666",
"- 	c #BCBCBC",
"; 	c #7D7D7D",
"> 	c #A8A8A8",
", 	c #D4D4D4",
"' 	c #EAEAEA",
") 	c #939393",
"! 	c #A9A9A9",
"~ 	c #EBEBEB",
"{ 	c #A1A1A1",
"] 	c #727272",
"^ 	c #D5D5D6",
"/ 	c #ECEBEC",
"( 	c #ECEBEB",
"_ 	c #EBECEC",
": 	c #ECECEC",
"< 	c #ECECEB",
"[ 	c #EBEBEC",
"} 	c #EBECEB",
"| 	c #C1C1C1",
"1 	c #CACACA",
"2 	c #EDEDED",
"3 	c #DCDCDC",
"4 	c #C2C2C3",
"5 	c #EEEEEE",
"6 	c #E8E8E8",
"7 	c #D0CFD0",
"8 	c #C6C6C6",
"9 	c #EFEFEF",
"0 	c #D8D8D8",
"a 	c #C8C9C8",
"b 	c #C9C8C9",
"c 	c #F0F0F0",
"d 	c #F1F1F1",
"e 	c #EFEEEF",
"f 	c #DDDDDD",
"g 	c #CCCBCC",
"h 	c #CBCCCC",
"i 	c #CCCCCC",
"j 	c #F3F3F3",
"k 	c #CFCFCF",
"l 	c #F2F2F2",
"m 	c #E5E5E5",
"n 	c #DADADA",
"o 	c #D3D3D3",
"p 	c #D3D2D3",
"q 	c #D2D2D2",
"r 	c #D2D2D3",
"s 	c #D3D2D2",
"t 	c #D6D6D6",
"u 	c #F4F4F4",
"v 	c #DEDEDE",
"w 	c #DBDADB",
"x 	c #DADBDA",
"y 	c #DBDBDB",
"z 	c #DBDBDA",
"A 	c #DADBDB",
"B 	c #F5F5F5",
"C 	c #E6E7E7",
"D 	c #DDDEDE",
"E 	c #DEDDDE",
"F 	c #DEDEDD",
"G 	c #F6F6F6",
"H 	c #E3E4E4",
"I 	c #E0E0E1",
"J 	c #E0E0E0",
"K 	c #E0E1E1",
"L 	c #E1E1E0",
"M 	c #F7F7F7",
"N 	c #EDEDEE",
"O 	c #E4E4E4",
"P 	c #E3E3E3",
"Q 	c #E4E3E3",
"R 	c #E2E2E3",
"S 	c #E4E3E4",
"T 	c #E4E4E3",
"U 	c #F8F8F8",
"V 	c #F0F0F1",
"W 	c #E6E7E6",
"X 	c #E7E7E6",
"Y 	c #E6E6E7",
"Z 	c #E6E6E6",
"` 	c #E5E6E5",
" .	c #E7E6E6",
"..	c #F9F8F8",
"+.	c #EAE9E9",
"@.	c #E9EAEA",
"#.	c #E9EAE9",
"$.	c #EAEAE9",
"%.	c #E9E9EA",
"&.	c #E9E9E9",
"*.	c #EAE9EA",
"=.	c #ECEDEC",
"-.	c #EDECEC",
";.	c #ECECED",
">.	c #DFDFE0",
",.	c #EFEFF0",
"'.	c #EEEFEE",
").	c #EEEEEF",
"!.	c #EFEEEE",
"~.	c #EFEFEE",
"{.	c #EEEFEF",
"].	c #8D8D8D",
"^.	c #AEAEAE",
"/.	c #F0F1F1",
"(.	c #F1F1F0",
"_.	c #F1F0F1",
":.	c #F1F0F0",
"<.	c #F0F1F0",
"[.	c #ACABAB",
"}.	c #B0B0B0",
"|.	c #868686",
"1.	c #ACACAC",
"2.	c #C9C9C9",
". . + @ # $ $ $ $ $ $ $ $ $ $ $ $ $ $ $ $ $ $ # @ + . . ",
". % & * = = = = = = = = = = = = = = = = = = = = * & % . ",
"- ; > , ' ' ' ' ' ' ' ' ' ' ' ' ' ' ' ' ' ' ' ' , > & - ",
") ! ~ ~ ~ ~ ~ ~ ~ ~ ~ ~ ~ ~ ~ ~ ~ ~ ~ ~ ~ ~ ~ ~ ~ ~ { ) ",
"] ^ / ( _ : _ < : ~ / [ < ~ [ ( < < : [ / _ _ ( [ } | ] ",
"= : : : : : : : : : : : : : : : : : : : : : : : : ' 1 = ",
"= 2 2 2 2 2 2 2 2 2 2 2 2 2 2 2 2 2 2 2 2 2 2 2 2 3 4 = ",
"= 5 5 5 5 5 5 5 5 5 5 5 5 5 5 5 5 5 5 5 5 5 5 5 6 7 8 = ",
"= 9 9 9 9 9 9 9 9 9 9 5 5 5 5 5 5 5 5 5 9 9 9 5 0 a b = ",
"= c c c c c c c 5 5 5 5 d d d d 5 5 5 c c c e f g h i = ",
"= d d d d d d d d d d d d d d d d d d j d : f k k k k = ",
"= l l l l l l j j j j j j j j j j j j c m n o p q r s = ",
"= j j j j j j j j j j j j j j j j m m 3 t t t t t t t = ",
"= u u u u u u u 5 m v v w w w w w w w x n y z n z A n = ",
"= B B B B B 9 C v v v v v v v v v v v D v E v v E F v = ",
"= G G G G 2 H I J K K K K K K K K K K K K L L J I I I = ",
"= M M M N O P Q P R S S S S S S S S S S H T H S S Q T = ",
"= U U V W W C X Y Y Z ` ` ` ` ` ` ` ` W  . .C W Y X C = ",
"= ..B : +.@.#.#.$.%.&.@.&.@.*.#.%.+.@.%.&.%.' @.*.*.$.= ",
"= . d : =.: : =.: : -.;.: : : : : -.: : : : : : : ;.2 = ",
"] >.,.'.'.).5 5 5 !.5 !.5 ~.5 {.e '.5 9 !.e 5 9 '.e 0 ] ",
"].^./.c (.d _.:.c V _._./.V (.c <.(.c _.V V c <._.(.[.].",
"}.|.1.y l l l l l l l l l l l l l l l l l l l l y 1.|.}.",
"1 }.].] = = = = = = = = = = = = = = = = = = = = ] ].}.1 ",
"1 1 2.2.2.2.2.2.2.2.2.2.2.2.2.2.2.2.2.2.2.2.2.2.2.2.1 1 "};
