/* XPM */
static char * linther_maximize_unfocused_brushed_xpm[] = {
"22 22 135 2",
"  	g None",
". 	g #F0F0F0",
"+ 	g #EFEFEF",
"@ 	g #C0C0C0",
"# 	g #C1C1C1",
"$ 	g #C2C2C2",
"% 	g #C3C3C3",
"& 	g #ACACAC",
"* 	g #ADADAD",
"= 	g #AEAEAE",
"- 	g #A6A6A6",
"; 	g #A8A8A8",
"> 	g #A9A9A9",
", 	g #AAAAAA",
"' 	g #AFAFAF",
") 	g #B0B0B0",
"! 	g #A2A2A2",
"~ 	g #A3A3A3",
"{ 	g #828282",
"] 	g #525252",
"^ 	g #2A2A2A",
"/ 	g #0E0E0E",
"( 	g #3E3E3E",
"_ 	g #6B6B6B",
": 	g #959595",
"< 	g #A7A7A7",
"[ 	g #6A6A6A",
"} 	g #2B2B2B",
"| 	g #464646",
"1 	g #767676",
"2 	g #909090",
"3 	g #919191",
"4 	g #5E5E5E",
"5 	g #393939",
"6 	g #4A4A4A",
"7 	g #8D8D8D",
"8 	g #A4A4A4",
"9 	g #A5A5A5",
"0 	g #646464",
"a 	g #1C1C1C",
"b 	g #585858",
"c 	g #A0A0A0",
"d 	g #CDCDCD",
"e 	g #DFDFDF",
"f 	g #B6B6B6",
"g 	g #7C7C7C",
"h 	g #3A3A3A",
"i 	g #404040",
"j 	g #888888",
"k 	g #ABABAB",
"l 	g #838383",
"m 	g #252525",
"n 	g #434343",
"o 	g #7F7F7F",
"p 	g #C9C9C9",
"q 	g #BCBCBC",
"r 	g #979797",
"s 	g #606060",
"t 	g #333333",
"u 	g #555555",
"v 	g #5F5F5F",
"w 	g #2C2C2C",
"x 	g #5B5B5B",
"y 	g #787878",
"z 	g #999999",
"A 	g #2D2D2D",
"B 	g #949494",
"C 	g #848484",
"D 	g #696969",
"E 	g #444444",
"F 	g #474747",
"G 	g #878787",
"H 	g #313131",
"I 	g #494949",
"J 	g #666666",
"K 	g #777777",
"L 	g #8C8C8C",
"M 	g #343434",
"N 	g #898989",
"O 	g #707070",
"P 	g #6F6F6F",
"Q 	g #232323",
"R 	g #797979",
"S 	g #484848",
"T 	g #6D6D6D",
"U 	g #414141",
"V 	g #8E8E8E",
"W 	g #505050",
"X 	g #595959",
"Y 	g #5A5A5A",
"Z 	g #565656",
"` 	g #4C4C4C",
" .	g #808080",
"..	g #4F4F4F",
"+.	g #9C9C9C",
"@.	g #BABABA",
"#.	g #C6C6C6",
"$.	g #B5B5B5",
"%.	g #8B8B8B",
"&.	g #656565",
"*.	g #6C6C6C",
"=.	g #BBBBBB",
"-.	g #D4D4D4",
";.	g #7B7B7B",
">.	g #D2D2D2",
",.	g #C4C4C4",
"'.	g #B1B1B1",
").	g #737373",
"!.	g #929292",
"~.	g #9A9A9A",
"{.	g #D8D8D8",
"].	g #E1E1E1",
"^.	g #818181",
"/.	g #DEDEDE",
"(.	g #D0D0D0",
"_.	g #B9B9B9",
":.	g #8F8F8F",
"<.	g #D3D3D3",
"[.	g #E0E0E0",
"}.	g #E7E7E7",
"|.	g #DBDBDB",
"1.	g #C8C8C8",
"2.	g #939393",
"3.	g #7D7D7D",
"4.	g #A1A1A1",
"5.	g #C7C7C7",
"6.	g #717171",
"7.	g #B8B8B8",
"8.	g #BDBDBD",
"9.	g #727272",
"0.	g #858585",
"a.	g #C5C5C5",
"b.	g #CACACA",
"c.	g #CFCFCF",
"d.	g #B4B4B4",
". . . + . . . . . + + + + + + + + + + + + + ",
"@ @ @ @ # # # # # # # $ $ $ % % % % % % % % ",
"& & & & * * * * * * * * * * = = = = = = = = ",
"- - - - ; ; ; ; ; ; ; ; > > , , , , , , , , ",
"' ' ' ' ) ' ' ' ' = = = = = = = * * * * & & ",
"! ! ! ! ~ ~ ~ { ] ^ / / ( _ : - - - < < < < ",
"= = = = ) ) [ } | 1 2 3 4 5 6 7 ) ) ' ' ' ' ",
"8 9 9 9 - 0 a b c d e e f g h i j k k k k & ",
"~ ~ ~ ~ l m n o ' p b b q r s t u : - - - - ",
"; ; ; ; v w x y 3 z A A B C D E F G = = = = ",
"~ ~ 8 8 H I J K l L M M N o O b ( P & & * * ",
"> > , , Q v R t ( F S S E h b T U D = = = = ",
"- - - - A O V | W X Y Y Z ` [  .W [ 9 8 8 8 ",
", , , , ..1 +.' @.#.P P $ $.- %.&.o * * * * ",
"k k k , K *.! =.p -.;.;.>.,.'.N ).!.& & k k ",
", , , , 8 v ~.# {.].^.^./.(.'.o l < , , , , ",
"* & & & _.:.D ' <.[.}.}.|.1.2.3.4.' ; ; ; ; ",
", , , k & 5.3 6.B 7.d (.> j C = 8.) ) ) ) ) ",
"= = * * = = 1.@ L y O 9.0.< a.@.* & & & & & ",
"! ! ! ~ 8 8 8 f b.{.|.|.c.# ' - < < < < ; ; ",
"; ; ; ; > > > ; k = d.d.& , > > > > > > > > ",
"' ' ' = ' ' ' ' ' ' ' ' = ' ) ) ) ) ) ) ) ) "};
