/* XPM */
static char * panther_maximize_pressed_brushed_xpm[] = {
"22 22 195 2",
"  	c None",
". 	c #F0F0F0",
"+ 	c #EFEFEF",
"@ 	c #C0C0C0",
"# 	c #C1C1C1",
"$ 	c #C2C2C2",
"% 	c #C3C3C3",
"& 	c #ACACAC",
"* 	c #ADADAD",
"= 	c #AEAEAE",
"- 	c #A6A6A6",
"; 	c #A8A8A8",
"> 	c #A9A9A9",
", 	c #AAAAAA",
"' 	c #AFAFAF",
") 	c #B0B0B0",
"! 	c #A2A2A2",
"~ 	c #A3A3A3",
"{ 	c #828282",
"] 	c #525252",
"^ 	c #2A2A2A",
"/ 	c #0E0E0E",
"( 	c #3E3E3E",
"_ 	c #6B6B6B",
": 	c #959595",
"< 	c #A7A7A7",
"[ 	c #6A6A6A",
"} 	c #2B2B2B",
"| 	c #464646",
"1 	c #767676",
"2 	c #909190",
"3 	c #919290",
"4 	c #5E5E5E",
"5 	c #393939",
"6 	c #4A4A4A",
"7 	c #8D8D8D",
"8 	c #A4A4A4",
"9 	c #A5A5A5",
"0 	c #646464",
"a 	c #1E1B1E",
"b 	c #575A57",
"c 	c #9CA39C",
"d 	c #CBCFCC",
"e 	c #DDE1E0",
"f 	c #DEE1DE",
"g 	c #B3B9B4",
"h 	c #797E7A",
"i 	c #3A3A3B",
"j 	c #414042",
"k 	c #888888",
"l 	c #ABABAB",
"m 	c #838383",
"n 	c #252525",
"o 	c #3A4A3A",
"p 	c #6D8C6D",
"q 	c #9DBD9C",
"r 	c #BCD4B3",
"s 	c #476836",
"t 	c #ADC9A7",
"u 	c #85A584",
"v 	c #536A53",
"w 	c #2F372F",
"x 	c #555555",
"y 	c #5F5F5F",
"z 	c #223420",
"A 	c #3E7138",
"B 	c #58943E",
"C 	c #77AD46",
"D 	c #83B34E",
"E 	c #094800",
"F 	c #7CAF49",
"G 	c #67A042",
"H 	c #4B823B",
"I 	c #30532C",
"J 	c #424B40",
"K 	c #878787",
"L 	c #2F342E",
"M 	c #2C5E29",
"N 	c #428625",
"O 	c #559B19",
"P 	c #67A51A",
"Q 	c #73AD28",
"R 	c #0E5200",
"S 	c #6EAB22",
"T 	c #5FA21B",
"U 	c #4B921F",
"V 	c #367327",
"W 	c #2E4A2C",
"X 	c #6E716E",
"Y 	c #172D10",
"Z 	c #3D7B2B",
"` 	c #589C1C",
" .	c #0A5200",
"..	c #195D00",
"+.	c #246700",
"@.	c #276700",
"#.	c #1F6400",
"$.	c #135A00",
"%.	c #33790E",
"&.	c #4C8D24",
"*.	c #2A541E",
"=.	c #636E5F",
"-.	c #1A3C11",
";.	c #528D2B",
">.	c #71B028",
",.	c #206700",
"'.	c #307000",
").	c #3C7A00",
"!.	c #3D7A03",
"~.	c #377700",
"{.	c #286E00",
"].	c #498C14",
"^.	c #62A029",
"/.	c #37671D",
"(.	c #61725A",
"_.	c #425B3A",
":.	c #5A9425",
"<.	c #81BD3A",
"[.	c #93D149",
"}.	c #A1DA5B",
"|.	c #ADE568",
"1.	c #529015",
"2.	c #A8E262",
"3.	c #9AD751",
"4.	c #8AC841",
"5.	c #6EAB2F",
"6.	c #4E7B2F",
"7.	c #788673",
"8.	c #737C70",
"9.	c #518A1A",
"0.	c #8AC144",
"a.	c #A0DB59",
"b.	c #AFE968",
"c.	c #BBF475",
"d.	c #619923",
"e.	c #B7F371",
"f.	c #A9E462",
"g.	c #96D151",
"h.	c #6FA830",
"i.	c #638445",
"j.	c #90958E",
"k.	c #A4A5A4",
"l.	c #4D722D",
"m.	c #7FB93F",
"n.	c #A9DF66",
"o.	c #BFF779",
"p.	c #CBFF83",
"q.	c #709931",
"r.	c #C7FD7F",
"s.	c #B6F071",
"t.	c #97D154",
"u.	c #699837",
"v.	c #7A8D69",
"w.	c #A7A8A7",
"x.	c #B9B9B9",
"y.	c #8D918A",
"z.	c #558126",
"A.	c #95CD55",
"B.	c #BCF07C",
"C.	c #CDFA8C",
"D.	c #DBFD95",
"E.	c #DBFD96",
"F.	c #C8F685",
"G.	c #B0E66B",
"H.	c #7CAF3F",
"I.	c #738A57",
"J.	c #A1A39F",
"K.	c #C7C7C7",
"L.	c #91938D",
"M.	c #658043",
"N.	c #81AC48",
"O.	c #AACE6B",
"P.	c #C2E282",
"Q.	c #C6E486",
"R.	c #9AC05F",
"S.	c #789D48",
"T.	c #7D8E69",
"U.	c #ADAFAC",
"V.	c #BDBDBD",
"W.	c #C8C8C8",
"X.	c #C1C1C0",
"Y.	c #899082",
"Z.	c #708550",
"`.	c #668138",
" +	c #678339",
".+	c #7F8E6A",
"++	c #A6AAA2",
"@+	c #C5C5C5",
"#+	c #BABABA",
"$+	c #B6B6B6",
"%+	c #CACACA",
"&+	c #D8D8D8",
"*+	c #DBDBDB",
"=+	c #CFCFCF",
"-+	c #B4B4B4",
". . . + . . . . . + + + + + + + + + + + + + ",
"@ @ @ @ # # # # # # # $ $ $ % % % % % % % % ",
"& & & & * * * * * * * * * * = = = = = = = = ",
"- - - - ; ; ; ; ; ; ; ; > > , , , , , , , , ",
"' ' ' ' ) ' ' ' ' = = = = = = = * * * * & & ",
"! ! ! ! ~ ~ ~ { ] ^ / / ( _ : - - - < < < < ",
"= = = = ) ) [ } | 1 2 3 4 5 6 7 ) ) ' ' ' ' ",
"8 9 9 9 - 0 a b c d e f g h i j k l l l l & ",
"~ ~ ~ ~ m n o p q r s s t u v w x : - - - - ",
"; ; ; ; y z A B C D E E F G H I J K = = = = ",
"~ ~ 8 8 L M N O P Q R R S T U V W X & & * * ",
"> > , , Y Z `  ...+.@.@.#.$.%.&.*.=.= = = = ",
"- - - - -.;.>.,.'.).!.!.~.{.].^./.(.9 8 8 8 ",
", , , , _.:.<.[.}.|.1.1.2.3.4.5.6.7.* * * * ",
"l l l , 8.9.0.a.b.c.d.d.e.f.g.h.i.j.& & l l ",
", , , , k.l.m.n.o.p.q.q.r.s.t.u.v.w., , , , ",
"* & & & x.y.z.A.B.C.D.E.F.G.H.I.J.' ; ; ; ; ",
", , , l & K.L.M.N.O.P.Q.R.S.T.U.V.) ) ) ) ) ",
"= = * * = = W.X.Y.Z.`. +.+++@+#+* & & & & & ",
"! ! ! ~ 8 8 8 $+%+&+*+*+=+# ' - < < < < ; ; ",
"; ; ; ; > > > ; l = -+-+& , > > > > > > > > ",
"' ' ' = ' ' ' ' ' ' ' ' = ' ) ) ) ) ) ) ) ) "};
